<?xml version="1.0" encoding="utf-8"?>
<!-- Generator: Adobe Illustrator 27.5.0, SVG Export Plug-In . SVG Version: 6.00 Build 0)  -->
<svg version="1.1" id="Layer_1" xmlns="http://www.w3.org/2000/svg" xmlns:xlink="http://www.w3.org/1999/xlink" x="0px"
	y="0px" viewBox="0 0 400 400" style="enable-background:new 0 0 400 400;" xml:space="preserve">
	<g>
		<rect width="400" height="400" />

		<g>

	

			<g>
				<g>
					<path style="fill:#FF43D1;"
						d="M326.119,260.654c-0.121,0-0.243-0.046-0.335-0.139l-3.95-3.95c-0.185-0.185-0.185-0.485,0-0.671
					c0.185-0.185,0.486-0.185,0.671,0l3.95,3.95c0.185,0.185,0.185,0.486,0,0.671C326.362,260.607,326.24,260.654,326.119,260.654z" />
					<path style="fill:#FF43D1;" d="M320.596,255.13c-0.121,0-0.243-0.046-0.335-0.139l-8.131-8.131
					c-0.185-0.185-0.185-0.486,0-0.671c0.185-0.185,0.486-0.185,0.671,0l8.131,8.131c0.185,0.185,0.185,0.486,0,0.671
					C320.838,255.084,320.717,255.13,320.596,255.13z" />
					<path style="fill:#FF43D1;" d="M328.997,260.654c-0.121,0-0.243-0.046-0.336-0.139l-2.417-2.418
					c-0.185-0.185-0.185-0.486,0-0.671s0.486-0.185,0.671,0l2.418,2.418c0.185,0.185,0.185,0.486,0,0.671
					C329.239,260.607,329.118,260.654,328.997,260.654z" />
					<path style="fill:#FF43D1;" d="M325.352,257.009c-0.121,0-0.243-0.046-0.335-0.139l-10.01-10.01
					c-0.185-0.185-0.185-0.486,0-0.671c0.185-0.185,0.486-0.185,0.671,0l10.01,10.01c0.185,0.185,0.185,0.486,0,0.671
					C325.594,256.963,325.473,257.009,325.352,257.009z" />
					<path style="fill:#0091FF;" d="M338.162,229.061c-0.121,0-0.243-0.046-0.335-0.139l-2.386-2.386
					c-0.185-0.185-0.185-0.485,0-0.671s0.486-0.185,0.671,0l2.386,2.386c0.185,0.185,0.185,0.486,0,0.671
					C338.405,229.014,338.284,229.061,338.162,229.061z" />
					<path style="fill:#0091FF;"
						d="M334.436,225.334c-0.121,0-0.243-0.046-0.335-0.139l-11.7-11.7c-0.185-0.185-0.185-0.486,0-0.671
					s0.486-0.185,0.671,0l11.7,11.7c0.185,0.185,0.185,0.485,0,0.671C334.678,225.287,334.557,225.334,334.436,225.334z" />
					<path style="fill:#0091FF;" d="M338.795,225.898c-0.121,0-0.243-0.046-0.335-0.139l-10.714-10.714
					c-0.185-0.185-0.185-0.486,0-0.671c0.185-0.185,0.486-0.185,0.671,0l10.714,10.714c0.185,0.185,0.185,0.486,0,0.671
					C339.038,225.852,338.916,225.898,338.795,225.898z" />
					<path style="fill:#0091FF;" d="M327.055,214.158c-0.121,0-0.243-0.046-0.335-0.139l-3.604-3.603
					c-0.185-0.185-0.185-0.486,0-0.671c0.185-0.185,0.486-0.185,0.671,0l3.604,3.603c0.185,0.185,0.185,0.486,0,0.671
					C327.298,214.112,327.177,214.158,327.055,214.158z" />
					<path style="fill:#0091FF;" d="M339.416,222.724c-0.121,0-0.243-0.046-0.335-0.139l-4.334-4.334
					c-0.185-0.185-0.185-0.486,0-0.671c0.185-0.185,0.486-0.185,0.671,0l4.334,4.334c0.185,0.185,0.185,0.486,0,0.671
					C339.658,222.677,339.537,222.724,339.416,222.724z" />
					<path style="fill:#0091FF;" d="M334.01,217.318c-0.121,0-0.243-0.046-0.335-0.139l-8.251-8.251
					c-0.185-0.185-0.185-0.485,0-0.671s0.486-0.185,0.671,0l8.251,8.251c0.185,0.185,0.185,0.486,0,0.671
					C334.253,217.272,334.132,217.318,334.01,217.318z" />
					<path style="fill:#0091FF;" d="M337.53,232.223c-0.121,0-0.243-0.046-0.335-0.139l-6.688-6.688
					c-0.185-0.185-0.185-0.486,0-0.671s0.486-0.185,0.671,0l6.688,6.688c0.185,0.185,0.185,0.486,0,0.671
					C337.773,232.177,337.651,232.223,337.53,232.223z" />
					<path style="fill:#0091FF;" d="M329.939,224.632c-0.121,0-0.243-0.046-0.335-0.139l-8.706-8.706
					c-0.185-0.185-0.185-0.485,0-0.671c0.185-0.185,0.486-0.185,0.671,0l8.706,8.706c0.185,0.185,0.185,0.485,0,0.671
					C330.182,224.586,330.06,224.632,329.939,224.632z" />
					<path style="fill:#0091FF;" d="M336.897,235.385c-0.121,0-0.243-0.046-0.335-0.139l-1.226-1.226
					c-0.185-0.185-0.185-0.486,0-0.671s0.486-0.185,0.671,0l1.226,1.226c0.185,0.185,0.185,0.486,0,0.671
					C337.14,235.339,337.019,235.385,336.897,235.385z" />
					<path style="fill:#0091FF;" d="M334.694,233.182c-0.121,0-0.243-0.046-0.335-0.139l-18.685-18.685
					c-0.185-0.185-0.185-0.486,0-0.671c0.185-0.185,0.486-0.185,0.671,0l18.685,18.685c0.185,0.185,0.185,0.485,0,0.671
					C334.937,233.136,334.815,233.182,334.694,233.182z" />
					<path style="fill:#0091FF;" d="M314.895,213.383c-0.121,0-0.243-0.046-0.335-0.139l-4.316-4.316
					c-0.185-0.185-0.185-0.485,0-0.671s0.486-0.185,0.671,0l4.316,4.316c0.185,0.185,0.185,0.486,0,0.671
					C315.138,213.337,315.016,213.383,314.895,213.383z" />
					<path style="fill:#0091FF;" d="M336.24,238.523c-0.121,0-0.243-0.046-0.335-0.139l-6.988-6.989
					c-0.185-0.185-0.185-0.486,0-0.671s0.486-0.185,0.671,0l6.988,6.989c0.185,0.185,0.185,0.486,0,0.671
					C336.483,238.477,336.362,238.523,336.24,238.523z" />
					<path style="fill:#0091FF;" d="M328.258,230.542c-0.121,0-0.243-0.046-0.335-0.139l-7.049-7.049
					c-0.185-0.185-0.185-0.485,0-0.671c0.185-0.185,0.486-0.185,0.671,0l7.048,7.048c0.185,0.185,0.185,0.486,0,0.671
					C328.501,230.495,328.38,230.542,328.258,230.542z" />
					<path style="fill:#FF43D1;" d="M319.255,221.538c-0.121,0-0.243-0.046-0.335-0.139l-2.883-2.883
					c-0.185-0.185-0.185-0.486,0-0.671s0.486-0.185,0.671,0l2.883,2.883c0.185,0.185,0.185,0.486,0,0.671
					C319.498,221.492,319.377,221.538,319.255,221.538z" />
					<path style="fill:#FF43D1;"
						d="M315.183,217.467c-0.121,0-0.243-0.046-0.336-0.139l-3.63-3.63c-0.185-0.185-0.185-0.486,0-0.671
					c0.185-0.185,0.486-0.185,0.671,0l3.63,3.63c0.185,0.185,0.185,0.486,0,0.671C315.426,217.42,315.305,217.467,315.183,217.467z" />
					<path style="fill:#0091FF;" d="M335.566,241.644c-0.121,0-0.243-0.046-0.335-0.139l-2.544-2.544
					c-0.185-0.185-0.185-0.486,0-0.671c0.185-0.185,0.486-0.185,0.671,0l2.544,2.543c0.185,0.185,0.185,0.486,0,0.671
					C335.809,241.598,335.687,241.644,335.566,241.644z" />
					<path style="fill:#0091FF;" d="M331.952,238.03c-0.121,0-0.243-0.046-0.335-0.139l-11.356-11.356
					c-0.185-0.185-0.185-0.485,0-0.671c0.185-0.185,0.486-0.185,0.671,0l11.356,11.356c0.185,0.185,0.185,0.486,0,0.671
					C332.195,237.984,332.073,238.03,331.952,238.03z" />
					<path style="fill:#FF43D1;" d="M318.343,224.421c-0.121,0-0.243-0.046-0.335-0.139l-5.765-5.765
					c-0.185-0.185-0.185-0.486,0-0.671c0.185-0.185,0.486-0.185,0.671,0l5.765,5.765c0.185,0.185,0.185,0.486,0,0.671
					C318.586,224.375,318.464,224.421,318.343,224.421z" />
					<path style="fill:#00DB2F;"
						d="M334.99,244.864c-0.121,0-0.243-0.046-0.335-0.139l-7.68-7.68c-0.185-0.185-0.185-0.486,0-0.671
					c0.185-0.185,0.485-0.185,0.671,0l7.68,7.68c0.185,0.185,0.185,0.486,0,0.671C335.233,244.817,335.112,244.864,334.99,244.864z" />
					<path style="fill:#00DB2F;" d="M326.274,236.147c-0.121,0-0.243-0.046-0.335-0.139l-12.823-12.823
					c-0.185-0.185-0.185-0.486,0-0.671c0.185-0.185,0.485-0.185,0.671,0l12.823,12.823c0.185,0.185,0.185,0.486,0,0.671
					C326.517,236.101,326.395,236.147,326.274,236.147z" />
					<path style="fill:#00DB2F;" d="M334.367,248.036c-0.121,0-0.243-0.046-0.335-0.139l-0.929-0.929
					c-0.185-0.185-0.185-0.486,0-0.671c0.185-0.185,0.485-0.185,0.671,0l0.929,0.93c0.185,0.185,0.185,0.486,0,0.671
					C334.61,247.99,334.489,248.036,334.367,248.036z" />
					<path style="fill:#00DB2F;" d="M332.328,245.997c-0.121,0-0.243-0.046-0.335-0.139l-17.972-17.972
					c-0.185-0.185-0.185-0.486,0-0.671s0.485-0.185,0.671,0l17.972,17.972c0.185,0.185,0.185,0.486,0,0.671
					C332.571,245.95,332.45,245.997,332.328,245.997z" />
					<path style="fill:#00DB2F;" d="M333.735,251.198c-0.121,0-0.243-0.046-0.335-0.139l-5.72-5.72c-0.185-0.185-0.185-0.486,0-0.671
					c0.185-0.185,0.486-0.185,0.671,0l5.72,5.72c0.185,0.185,0.185,0.485,0,0.671C333.978,251.152,333.856,251.198,333.735,251.198z
					" />
					<path style="fill:#00DB2F;" d="M326.579,244.042c-0.121,0-0.243-0.046-0.335-0.139l-8.423-8.422
					c-0.185-0.185-0.185-0.485,0-0.671s0.486-0.185,0.671,0l8.423,8.422c0.185,0.185,0.185,0.486,0,0.671
					C326.822,243.996,326.7,244.042,326.579,244.042z" />
					<path style="fill:#00DB2F;" d="M333.103,254.356c-0.121,0-0.243-0.046-0.335-0.139l-0.775-0.775
					c-0.185-0.185-0.185-0.486,0-0.671c0.185-0.185,0.485-0.185,0.671,0l0.775,0.775c0.185,0.185,0.185,0.486,0,0.671
					C333.346,254.31,333.225,254.356,333.103,254.356z" />
					<path style="fill:#00DB2F;" d="M330.966,252.218c-0.121,0-0.243-0.046-0.335-0.139l-9.406-9.406
					c-0.185-0.185-0.185-0.485,0-0.671c0.185-0.185,0.486-0.185,0.671,0l9.406,9.406c0.185,0.185,0.185,0.486,0,0.671
					C331.208,252.172,331.087,252.218,330.966,252.218z" />
					<path style="fill:#00DB2F;" d="M320.596,241.848c-0.121,0-0.243-0.046-0.335-0.139l-2.439-2.439
					c-0.185-0.185-0.185-0.485,0-0.671s0.486-0.185,0.671,0l2.439,2.439c0.185,0.185,0.185,0.486,0,0.671
					C320.838,241.802,320.717,241.848,320.596,241.848z" />
					<path style="fill:#00DB2F;" d="M332.471,257.518c-0.121,0-0.243-0.046-0.335-0.139l-4.212-4.212
					c-0.185-0.185-0.185-0.486,0-0.671c0.185-0.185,0.486-0.185,0.671,0l4.212,4.212c0.185,0.185,0.185,0.486,0,0.671
					C332.714,257.472,332.592,257.518,332.471,257.518z" />
					<path style="fill:#00DB2F;" d="M327.171,252.218c-0.121,0-0.243-0.046-0.335-0.139l-9.014-9.014
					c-0.185-0.185-0.185-0.486,0-0.671c0.185-0.185,0.486-0.185,0.671,0l9.014,9.014c0.185,0.185,0.185,0.486,0,0.671
					C327.413,252.172,327.292,252.218,327.171,252.218z" />
					<path style="fill:#FF43D1;" d="M331.811,260.654c-0.121,0-0.243-0.046-0.335-0.139l-9.642-9.642
					c-0.185-0.185-0.185-0.485,0-0.671c0.185-0.185,0.486-0.185,0.671,0l9.642,9.642c0.185,0.185,0.185,0.486,0,0.671
					C332.054,260.607,331.932,260.654,331.811,260.654z" />
					<path style="fill:#FF43D1;" d="M321.146,249.989c-0.121,0-0.243-0.046-0.335-0.139l-2.99-2.989
					c-0.185-0.185-0.185-0.486,0-0.671c0.185-0.185,0.486-0.185,0.671,0l2.99,2.99c0.185,0.185,0.185,0.486,0,0.671
					C321.389,249.943,321.267,249.989,321.146,249.989z" />
				</g>
				<g>
					<polygon style="fill:#FFFFFF;" points="315.34,232.294 310.596,208.575 304.903,208.575 312.494,246.526 318.186,246.526 
					325.776,208.575 320.084,208.575 				" />
					<path style="fill:#FFFFFF;" d="M318.186,247h-5.693c-0.226,0-0.421-0.16-0.465-0.381l-7.59-37.951
					c-0.028-0.139,0.008-0.284,0.098-0.394c0.09-0.11,0.225-0.174,0.367-0.174h5.693c0.226,0,0.421,0.16,0.465,0.381l4.279,21.393
					l4.279-21.393c0.044-0.222,0.239-0.381,0.465-0.381h5.693c0.142,0,0.277,0.064,0.367,0.174c0.09,0.11,0.126,0.254,0.098,0.394
					l-7.59,37.951C318.607,246.84,318.412,247,318.186,247z M312.882,246.051h4.915l7.4-37.002h-4.725l-4.668,23.338
					c-0.044,0.222-0.239,0.381-0.465,0.381c-0.226,0-0.421-0.16-0.465-0.381l-4.668-23.338h-4.725L312.882,246.051z" />
				</g>
			</g>

			<!-- **************************************  End of V  ************************************** -->
			
		</g>
		<g>
			<g>
				<g>
					<path style="fill:#0091FF;" d="M283.502,302.772c-0.121,0-0.243-0.046-0.335-0.139l-1.756-1.756
					c-0.185-0.185-0.185-0.486,0-0.671c0.185-0.185,0.486-0.185,0.671,0l1.756,1.756c0.185,0.185,0.185,0.486,0,0.671
					C283.745,302.725,283.624,302.772,283.502,302.772z" />
					<path style="fill:#0091FF;" d="M280.742,300.012c-0.121,0-0.243-0.046-0.335-0.139l-7.692-7.692
					c-0.185-0.185-0.185-0.486,0-0.671s0.486-0.185,0.671,0l7.692,7.692c0.185,0.185,0.185,0.485,0,0.671
					C280.985,299.965,280.864,300.012,280.742,300.012z" />
					<path style="fill:#0091FF;" d="M271.863,291.132c-0.121,0-0.243-0.046-0.335-0.139l-2.012-2.012
					c-0.185-0.185-0.185-0.485,0-0.671s0.486-0.185,0.671,0l2.012,2.012c0.185,0.185,0.185,0.486,0,0.671
					C272.106,291.086,271.984,291.132,271.863,291.132z" />
					<path style="fill:#0091FF;" d="M281.995,305.059c-0.121,0-0.243-0.046-0.335-0.139l-4.499-4.499
					c-0.185-0.185-0.185-0.486,0-0.671c0.185-0.185,0.486-0.185,0.671,0l4.499,4.499c0.185,0.185,0.185,0.485,0,0.671
					C282.238,305.013,282.116,305.059,281.995,305.059z" />
					<path style="fill:#0091FF;" d="M276.425,299.49c-0.121,0-0.243-0.046-0.335-0.139l-8.076-8.076
					c-0.185-0.185-0.185-0.486,0-0.671c0.185-0.185,0.486-0.185,0.671,0l8.076,8.076c0.185,0.185,0.185,0.486,0,0.671
					C276.668,299.443,276.546,299.49,276.425,299.49z" />
					<path style="fill:#0091FF;" d="M280.555,307.414c-0.121,0-0.243-0.046-0.335-0.139l-0.524-0.524
					c-0.185-0.185-0.185-0.486,0-0.671c0.185-0.185,0.486-0.185,0.671,0l0.524,0.524c0.185,0.185,0.185,0.486,0,0.671
					C280.798,307.368,280.676,307.414,280.555,307.414z" />
					<path style="fill:#0091FF;" d="M278.775,305.634c-0.121,0-0.243-0.046-0.335-0.139l-9.254-9.253
					c-0.185-0.185-0.185-0.486,0-0.671c0.185-0.185,0.486-0.185,0.671,0l9.254,9.253c0.185,0.185,0.185,0.486,0,0.671
					C279.018,305.588,278.896,305.634,278.775,305.634z" />
					<path style="fill:#0091FF;" d="M268.498,295.357c-0.121,0-0.243-0.046-0.335-0.139l-1.651-1.651
					c-0.185-0.185-0.185-0.486,0-0.671s0.486-0.185,0.671,0l1.651,1.651c0.185,0.185,0.185,0.486,0,0.671
					C268.741,295.311,268.619,295.357,268.498,295.357z" />
					<path style="fill:#0091FF;" d="M279.003,309.658c-0.121,0-0.243-0.046-0.335-0.139l-5.105-5.106
					c-0.185-0.185-0.185-0.486,0-0.671s0.486-0.185,0.671,0l5.106,5.106c0.185,0.185,0.185,0.485,0,0.671
					C279.246,309.612,279.125,309.658,279.003,309.658z" />
					<path style="fill:#0091FF;" d="M272.826,303.48c-0.121,0-0.243-0.046-0.335-0.139l-7.469-7.469
					c-0.185-0.185-0.185-0.486,0-0.671s0.486-0.185,0.671,0l7.469,7.469c0.185,0.185,0.185,0.486,0,0.671
					C273.069,303.434,272.947,303.48,272.826,303.48z" />
					<path style="fill:#0091FF;" d="M277.501,311.951c-0.121,0-0.243-0.046-0.335-0.139l-10.057-10.058
					c-0.185-0.185-0.185-0.485,0-0.671s0.486-0.185,0.671,0l10.057,10.057c0.185,0.185,0.185,0.486,0,0.671
					C277.744,311.905,277.623,311.951,277.501,311.951z" />
					<path style="fill:#0091FF;"
						d="M266.38,300.83c-0.121,0-0.243-0.046-0.335-0.139l-2.525-2.525c-0.185-0.185-0.185-0.486,0-0.671
					c0.185-0.185,0.486-0.185,0.671,0l2.525,2.525c0.185,0.185,0.185,0.486,0,0.671C266.623,300.784,266.502,300.83,266.38,300.83z" />
					<path style="fill:#0091FF;" d="M275.987,314.232c-0.121,0-0.243-0.046-0.335-0.139l-4.574-4.574
					c-0.185-0.185-0.185-0.486,0-0.671c0.185-0.185,0.486-0.185,0.671,0l4.574,4.574c0.185,0.185,0.185,0.486,0,0.671
					C276.23,314.185,276.108,314.232,275.987,314.232z" />
					<path style="fill:#0091FF;" d="M270.418,308.662c-0.121,0-0.243-0.046-0.335-0.139l-8.077-8.077
					c-0.185-0.185-0.185-0.486,0-0.671c0.185-0.185,0.486-0.185,0.671,0l8.077,8.077c0.185,0.185,0.185,0.486,0,0.671
					C270.66,308.616,270.539,308.662,270.418,308.662z" />
					<path style="fill:#0091FF;" d="M274.498,316.538c-0.121,0-0.243-0.046-0.335-0.139l-1.672-1.672
					c-0.185-0.185-0.185-0.486,0-0.671c0.185-0.185,0.486-0.185,0.671,0l1.672,1.672c0.185,0.185,0.185,0.486,0,0.671
					C274.74,316.491,274.619,316.538,274.498,316.538z" />
					<path style="fill:#0091FF;" d="M271.693,313.733c-0.121,0-0.243-0.046-0.335-0.139l-10.842-10.842
					c-0.185-0.185-0.185-0.486,0-0.671c0.185-0.185,0.486-0.185,0.671,0l10.842,10.842c0.185,0.185,0.185,0.486,0,0.671
					C271.936,313.687,271.815,313.733,271.693,313.733z" />
					<path style="fill:#0091FF;" d="M273.01,318.845c-0.121,0-0.243-0.046-0.335-0.139l-3.489-3.489
					c-0.185-0.185-0.185-0.486,0-0.671c0.185-0.185,0.486-0.185,0.671,0l3.489,3.489c0.185,0.185,0.185,0.486,0,0.671
					C273.253,318.798,273.131,318.845,273.01,318.845z" />
					<path style="fill:#0091FF;" d="M268.517,314.352c-0.121,0-0.243-0.046-0.335-0.139l-9.153-9.153
					c-0.185-0.185-0.185-0.486,0-0.671c0.185-0.185,0.486-0.185,0.671,0l9.153,9.153c0.185,0.185,0.185,0.486,0,0.671
					C268.76,314.306,268.638,314.352,268.517,314.352z" />
					<path style="fill:#0091FF;" d="M271.51,321.134c-0.121,0-0.243-0.046-0.335-0.139l-1.093-1.092
					c-0.185-0.185-0.185-0.486,0-0.671c0.185-0.185,0.486-0.185,0.671,0l1.093,1.092c0.185,0.185,0.185,0.486,0,0.671
					C271.753,321.088,271.632,321.134,271.51,321.134z" />
					<path style="fill:#0091FF;" d="M269.521,319.145c-0.121,0-0.243-0.046-0.335-0.139l-9.081-9.081
					c-0.185-0.185-0.185-0.486,0-0.671c0.185-0.185,0.485-0.185,0.671,0l9.081,9.081c0.185,0.185,0.185,0.486,0,0.671
					C269.764,319.099,269.643,319.145,269.521,319.145z" />
					<path style="fill:#0091FF;" d="M259.364,308.988c-0.121,0-0.243-0.046-0.335-0.139l-1.528-1.528
					c-0.185-0.185-0.185-0.485,0-0.671c0.185-0.185,0.486-0.185,0.671,0l1.528,1.528c0.185,0.185,0.185,0.486,0,0.671
					C259.606,308.941,259.485,308.988,259.364,308.988z" />
					<path style="fill:#0091FF;" d="M269.992,323.411c-0.121,0-0.243-0.046-0.335-0.139l-6.137-6.137
					c-0.185-0.185-0.185-0.486,0-0.671c0.185-0.185,0.486-0.185,0.671,0l6.137,6.137c0.185,0.185,0.185,0.486,0,0.671
					C270.235,323.365,270.114,323.411,269.992,323.411z" />
					<path style="fill:#0091FF;" d="M262.782,316.201c-0.121,0-0.243-0.046-0.335-0.139l-6.436-6.436
					c-0.185-0.185-0.185-0.486,0-0.671c0.185-0.185,0.486-0.185,0.671,0l6.436,6.436c0.185,0.185,0.185,0.486,0,0.671
					C263.025,316.155,262.904,316.201,262.782,316.201z" />
					<path style="fill:#0091FF;" d="M264.673,321.887c-0.121,0-0.243-0.046-0.336-0.139l-6.531-6.531
					c-0.185-0.185-0.185-0.486,0-0.671c0.185-0.185,0.486-0.185,0.671,0l6.531,6.531c0.185,0.185,0.185,0.486,0,0.671
					C264.916,321.841,264.794,321.887,264.673,321.887z" />
					<path style="fill:#0091FF;" d="M256.741,313.955c-0.121,0-0.243-0.046-0.335-0.139l-1.885-1.885
					c-0.185-0.185-0.185-0.486,0-0.671c0.185-0.185,0.486-0.185,0.671,0l1.885,1.885c0.185,0.185,0.185,0.486,0,0.671
					C256.984,313.909,256.863,313.955,256.741,313.955z" />
				</g>
				<g>
					<path style="fill:#00DB2F;" d="M279.699,340.685c-0.121,0-0.243-0.046-0.335-0.139l-4.492-4.492
					c-0.185-0.185-0.185-0.486,0-0.671s0.486-0.185,0.671,0l4.492,4.492c0.185,0.185,0.185,0.485,0,0.671
					C279.941,340.639,279.82,340.685,279.699,340.685z" />
					<path style="fill:#00DB2F;" d="M274.148,335.134c-0.121,0-0.243-0.046-0.335-0.139l-9.651-9.651
					c-0.185-0.185-0.185-0.486,0-0.671s0.486-0.185,0.671,0l9.651,9.651c0.185,0.185,0.185,0.486,0,0.671
					C274.391,335.088,274.27,335.134,274.148,335.134z" />
					<path style="fill:#FF43D1;" d="M258.831,319.818c-0.121,0-0.243-0.046-0.335-0.139l-5.466-5.466
					c-0.185-0.185-0.185-0.486,0-0.671c0.185-0.185,0.486-0.185,0.671,0l5.466,5.466c0.185,0.185,0.185,0.486,0,0.671
					C259.074,319.772,258.953,319.818,258.831,319.818z" />
					<path style="fill:#FF43D1;" d="M275.946,340.728c-0.121,0-0.243-0.046-0.335-0.139l-9.099-9.099
					c-0.185-0.185-0.185-0.486,0-0.671s0.486-0.185,0.671,0l9.099,9.099c0.185,0.185,0.185,0.486,0,0.671
					C276.189,340.681,276.068,340.728,275.946,340.728z" />
					<path style="fill:#FF43D1;" d="M265.822,330.603c-0.121,0-0.243-0.046-0.335-0.139l-4.772-4.772
					c-0.185-0.185-0.185-0.486,0-0.671c0.185-0.185,0.486-0.185,0.671,0l4.772,4.772c0.185,0.185,0.185,0.486,0,0.671
					C266.064,330.556,265.943,330.603,265.822,330.603z" />
					<path style="fill:#FF43D1;" d="M257.464,322.246c-0.121,0-0.243-0.046-0.335-0.139l-4.288-4.288
					c-0.185-0.185-0.185-0.486,0-0.671c0.185-0.185,0.485-0.185,0.671,0l4.288,4.288c0.185,0.185,0.185,0.486,0,0.671
					C257.707,322.199,257.585,322.246,257.464,322.246z" />
					<path style="fill:#FF43D1;" d="M272.151,340.728c-0.121,0-0.243-0.046-0.335-0.139l-1.566-1.566
					c-0.185-0.185-0.185-0.486,0-0.671s0.486-0.185,0.671,0l1.566,1.566c0.185,0.185,0.185,0.486,0,0.671
					C272.394,340.681,272.273,340.728,272.151,340.728z" />
					<path style="fill:#FF43D1;" d="M269.223,337.799c-0.121,0-0.243-0.046-0.335-0.139l-13.002-13.002
					c-0.185-0.185-0.185-0.486,0-0.671c0.185-0.185,0.486-0.185,0.671,0l13.002,13.002c0.185,0.185,0.185,0.486,0,0.671
					C269.466,337.753,269.344,337.799,269.223,337.799z" />
					<path style="fill:#FF43D1;" d="M254.137,322.714c-0.121,0-0.243-0.046-0.335-0.139l-3.763-3.763
					c-0.185-0.185-0.185-0.486,0-0.671c0.185-0.185,0.486-0.185,0.671,0l3.763,3.763c0.185,0.185,0.185,0.486,0,0.671
					C254.38,322.668,254.259,322.714,254.137,322.714z" />
					<path style="fill:#FF43D1;" d="M268.356,340.728c-0.121,0-0.243-0.046-0.335-0.139l-7.139-7.139
					c-0.185-0.185-0.185-0.486,0-0.671c0.185-0.185,0.486-0.185,0.671,0l7.139,7.139c0.185,0.185,0.185,0.486,0,0.671
					C268.599,340.681,268.477,340.728,268.356,340.728z" />
					<path style="fill:#FF43D1;" d="M260.137,332.508c-0.121,0-0.243-0.046-0.335-0.139l-11.277-11.277
					c-0.185-0.185-0.185-0.486,0-0.671c0.185-0.185,0.486-0.185,0.671,0l11.277,11.277c0.185,0.185,0.185,0.486,0,0.671
					C260.38,332.462,260.258,332.508,260.137,332.508z" />
					<path style="fill:#FF43D1;" d="M264.561,340.728c-0.121,0-0.243-0.046-0.335-0.139l-10.125-10.125
					c-0.185-0.185-0.185-0.486,0-0.671c0.185-0.185,0.486-0.185,0.671,0l10.125,10.125c0.185,0.185,0.185,0.486,0,0.671
					C264.804,340.681,264.682,340.728,264.561,340.728z" />
					<path style="fill:#FF43D1;" d="M253.324,329.491c-0.121,0-0.243-0.046-0.335-0.139l-5.954-5.954
					c-0.185-0.185-0.185-0.486,0-0.671c0.185-0.185,0.486-0.185,0.671,0l5.954,5.954c0.185,0.185,0.185,0.486,0,0.671
					C253.567,329.444,253.446,329.491,253.324,329.491z" />
					<path style="fill:#FF43D1;" d="M260.766,340.728c-0.121,0-0.243-0.046-0.335-0.139l-2.928-2.928
					c-0.185-0.185-0.185-0.486,0-0.671c0.185-0.185,0.486-0.185,0.671,0l2.928,2.928c0.185,0.185,0.185,0.486,0,0.671
					C261.009,340.681,260.887,340.728,260.766,340.728z" />
					<path style="fill:#FF43D1;" d="M256.56,336.522c-0.121,0-0.243-0.046-0.335-0.139l-10.677-10.677
					c-0.185-0.185-0.185-0.486,0-0.671s0.486-0.185,0.671,0l10.677,10.677c0.185,0.185,0.185,0.486,0,0.671
					C256.803,336.475,256.681,336.522,256.56,336.522z" />
					<path style="fill:#FF43D1;" d="M256.977,340.728c-0.121,0-0.243-0.046-0.335-0.139l-0.631-0.631
					c-0.185-0.185-0.185-0.486,0-0.671c0.185-0.185,0.486-0.185,0.671,0l0.631,0.631c0.185,0.185,0.185,0.486,0,0.671
					C257.22,340.681,257.098,340.728,256.977,340.728z" />
					<path style="fill:#FF43D1;" d="M255.068,338.819c-0.121,0-0.243-0.046-0.335-0.139l-9.186-9.185
					c-0.185-0.185-0.185-0.486,0-0.671s0.486-0.185,0.671,0l9.186,9.185c0.185,0.185,0.185,0.486,0,0.671
					C255.311,338.772,255.189,338.819,255.068,338.819z" />
					<path style="fill:#FF43D1;" d="M244.951,328.702c-0.121,0-0.243-0.046-0.335-0.139l-2.253-2.253
					c-0.185-0.185-0.185-0.486,0-0.671c0.185-0.185,0.486-0.185,0.671,0l2.253,2.253c0.185,0.185,0.185,0.486,0,0.671
					C245.194,328.656,245.073,328.702,244.951,328.702z" />
					<path style="fill:#FF43D1;" d="M252.886,340.617c-0.121,0-0.243-0.046-0.335-0.139l-5.921-5.922
					c-0.185-0.185-0.185-0.485,0-0.671s0.486-0.185,0.671,0l5.921,5.921c0.185,0.185,0.185,0.486,0,0.671
					C253.129,340.571,253.008,340.617,252.886,340.617z" />
					<path style="fill:#FF43D1;" d="M245.882,333.613c-0.121,0-0.243-0.046-0.335-0.139l-6.554-6.554
					c-0.185-0.185-0.185-0.485,0-0.671c0.185-0.185,0.485-0.185,0.671,0l6.554,6.554c0.185,0.185,0.185,0.486,0,0.671
					C246.125,333.567,246.004,333.613,245.882,333.613z" />
					<path style="fill:#00DB2F;" d="M279.67,335.021c-0.121,0-0.243-0.046-0.335-0.139l-1.738-1.735
					c-0.185-0.185-0.186-0.486-0.001-0.671c0.185-0.185,0.486-0.186,0.671-0.001l1.738,1.735c0.185,0.185,0.186,0.486,0.001,0.671
					C279.913,334.974,279.792,335.021,279.67,335.021z" />
					<path style="fill:#00DB2F;" d="M276.896,332.253c-0.121,0-0.242-0.046-0.335-0.139l-7.805-7.788
					c-0.186-0.185-0.186-0.486-0.001-0.671c0.185-0.185,0.486-0.186,0.671-0.001l7.805,7.788c0.185,0.185,0.186,0.486,0.001,0.671
					C277.139,332.206,277.018,332.253,276.896,332.253z" />
					<path style="fill:#00DB2F;" d="M267.836,323.211c-0.121,0-0.243-0.046-0.335-0.139l-1.837-1.833
					c-0.185-0.185-0.186-0.486-0.001-0.671s0.486-0.186,0.671-0.001l1.837,1.833c0.186,0.185,0.186,0.486,0.001,0.671
					C268.079,323.164,267.957,323.211,267.836,323.211z" />
					<path style="fill:#00DB2F;" d="M279.67,337.799c-0.121,0-0.243-0.046-0.335-0.139l-0.494-0.493
					c-0.185-0.185-0.186-0.486-0.001-0.671c0.185-0.185,0.486-0.186,0.671-0.001l0.494,0.493c0.185,0.185,0.186,0.486,0.001,0.671
					C279.913,337.753,279.792,337.799,279.67,337.799z" />
					<path style="fill:#00DB2F;" d="M278.06,336.193c-0.121,0-0.242-0.046-0.335-0.139l-6.031-6.018
					c-0.186-0.185-0.186-0.486-0.001-0.671c0.185-0.186,0.485-0.186,0.671-0.001l6.031,6.018c0.185,0.185,0.186,0.486,0.001,0.671
					C278.303,336.146,278.182,336.193,278.06,336.193z" />
					<path style="fill:#00DB2F;" d="M270.834,328.981c-0.121,0-0.243-0.046-0.335-0.139l-4.835-4.825
					c-0.185-0.185-0.186-0.486-0.001-0.671s0.486-0.186,0.671-0.001l4.835,4.825c0.185,0.185,0.186,0.486,0.001,0.671
					C271.077,328.935,270.956,328.981,270.834,328.981z" />
				</g>
				<g>
					<path style="fill:#FF43D1;" d="M261.263,297.678c-0.121,0-0.243-0.046-0.335-0.139l-2.867-2.867
					c-0.185-0.185-0.185-0.485,0-0.671c0.185-0.185,0.485-0.185,0.671,0l2.867,2.867c0.185,0.185,0.185,0.486,0,0.671
					C261.505,297.632,261.384,297.678,261.263,297.678z" />
					<path style="fill:#FF43D1;" d="M255.53,295.741c-0.121,0-0.243-0.046-0.335-0.139l-0.924-0.924
					c-0.185-0.185-0.185-0.485,0-0.671s0.486-0.185,0.671,0l0.924,0.924c0.185,0.185,0.185,0.486,0,0.671
					C255.773,295.694,255.651,295.741,255.53,295.741z" />
					<path style="fill:#FF43D1;" d="M259.279,299.49c-0.121,0-0.243-0.046-0.335-0.139l-2.537-2.538
					c-0.185-0.185-0.185-0.486,0-0.671c0.185-0.185,0.486-0.185,0.671,0l2.537,2.537c0.185,0.185,0.185,0.486,0,0.671
					C259.521,299.443,259.4,299.49,259.279,299.49z" />
					<path style="fill:#00DB2F;" d="M253.585,297.591c-0.121,0-0.243-0.046-0.335-0.139l-2.836-2.836
					c-0.185-0.185-0.185-0.486,0-0.671c0.185-0.185,0.485-0.185,0.671,0l2.836,2.836c0.185,0.185,0.185,0.486,0,0.671
					C253.828,297.545,253.707,297.591,253.585,297.591z" />
					<path style="fill:#00DB2F;" d="M257.603,301.609c-0.121,0-0.243-0.046-0.335-0.139l-2.963-2.963
					c-0.185-0.185-0.185-0.486,0-0.671c0.185-0.185,0.486-0.185,0.671,0l2.963,2.963c0.185,0.185,0.185,0.486,0,0.671
					C257.846,301.563,257.725,301.609,257.603,301.609z" />
					<path style="fill:#00DB2F;" d="M256.574,304.375c-0.121,0-0.243-0.046-0.335-0.139l-9.558-9.558
					c-0.185-0.185-0.185-0.485,0-0.671s0.486-0.185,0.671,0l9.558,9.558c0.185,0.185,0.185,0.486,0,0.671
					C256.816,304.328,256.695,304.375,256.574,304.375z" />
					<path style="fill:#00DB2F;" d="M245.557,297.153c-0.121,0-0.243-0.046-0.335-0.139l-2.336-2.336
					c-0.185-0.185-0.185-0.485,0-0.671c0.185-0.185,0.486-0.185,0.671,0l2.336,2.336c0.185,0.185,0.185,0.485,0,0.671
					C245.8,297.107,245.678,297.153,245.557,297.153z" />
					<path style="fill:#00DB2F;" d="M250.709,302.306c-0.121,0-0.243-0.046-0.335-0.139l-3.744-3.744
					c-0.185-0.185-0.185-0.486,0-0.671s0.486-0.185,0.671,0l3.744,3.744c0.185,0.185,0.185,0.486,0,0.671
					C250.952,302.259,250.831,302.306,250.709,302.306z" />
					<path style="fill:#00DB2F;" d="M255.294,306.89c-0.121,0-0.243-0.046-0.335-0.139l-3.418-3.418
					c-0.185-0.185-0.185-0.486,0-0.671c0.185-0.185,0.486-0.185,0.671,0l3.418,3.418c0.185,0.185,0.185,0.486,0,0.671
					C255.537,306.844,255.415,306.89,255.294,306.89z" />
				</g>
				<g>
					<path style="fill:#FFFFFF;" d="M243.229,288.646v5.693h17.201l-21.126,32.258c1.023,0,25.628,0,26.695,0v-5.693h-17.274
					l21.126-32.258C268.873,288.646,244.298,288.646,243.229,288.646z" />
					<path style="fill:#FFFFFF;" d="M265.999,327.071h-26.695c-0.174,0-0.334-0.096-0.417-0.249c-0.083-0.153-0.075-0.34,0.02-0.486
					l20.645-31.524h-16.324c-0.262,0-0.474-0.212-0.474-0.474v-5.693c0-0.262,0.212-0.474,0.474-0.474h26.622
					c0.174,0,0.335,0.096,0.417,0.249c0.083,0.153,0.075,0.34-0.02,0.486l-20.645,31.524h16.396c0.262,0,0.474,0.212,0.474,0.474
					v5.693C266.474,326.858,266.261,327.071,265.999,327.071z M240.182,326.122h25.342v-4.744h-16.8
					c-0.174,0-0.334-0.096-0.417-0.249c-0.083-0.153-0.075-0.34,0.02-0.486l20.645-31.524h-25.27v4.744h16.727
					c0.174,0,0.335,0.096,0.417,0.249c0.083,0.153,0.075,0.34-0.02,0.486L240.182,326.122z" />
				</g>
			</g>
			<g>
				<g>
					<path style="fill:#FF43D1;" d="M148.677,340.707c-0.121,0-0.243-0.046-0.335-0.139l-10.235-10.235
					c-0.185-0.185-0.185-0.486,0-0.671c0.185-0.185,0.486-0.185,0.671,0l10.235,10.235c0.185,0.185,0.185,0.486,0,0.671
					C148.92,340.661,148.798,340.707,148.677,340.707z" />
					<path style="fill:#FF43D1;" d="M137.199,329.229c-0.121,0-0.243-0.046-0.335-0.139l-2.176-2.176
					c-0.185-0.185-0.185-0.486,0-0.671c0.185-0.185,0.486-0.185,0.671,0l2.176,2.176c0.185,0.185,0.185,0.486,0,0.671
					C137.442,329.182,137.32,329.229,137.199,329.229z" />
					<path style="fill:#FF43D1;" d="M151.554,340.707c-0.121,0-0.243-0.046-0.335-0.139l-6.562-6.562
					c-0.185-0.185-0.185-0.486,0-0.671c0.185-0.185,0.486-0.185,0.671,0l6.562,6.562c0.185,0.185,0.185,0.486,0,0.671
					C151.797,340.661,151.676,340.707,151.554,340.707z" />
					<path style="fill:#FF43D1;" d="M143.993,333.146c-0.121,0-0.243-0.046-0.335-0.139l-6.093-6.093
					c-0.185-0.185-0.185-0.486,0-0.671c0.185-0.185,0.486-0.185,0.671,0l6.093,6.093c0.185,0.185,0.185,0.486,0,0.671
					C144.236,333.099,144.114,333.146,143.993,333.146z" />
					<path style="fill:#0091FF;" d="M160.72,309.114c-0.121,0-0.243-0.046-0.335-0.139l-6.337-6.337
					c-0.185-0.185-0.185-0.486,0-0.671c0.185-0.185,0.486-0.185,0.671,0l6.337,6.337c0.185,0.185,0.185,0.486,0,0.671
					C160.963,309.068,160.842,309.114,160.72,309.114z" />
					<path style="fill:#0091FF;"
						d="M153.007,301.4c-0.121,0-0.243-0.046-0.335-0.139l-7.714-7.713c-0.185-0.185-0.185-0.486,0-0.671
					c0.185-0.185,0.486-0.185,0.671,0l7.714,7.713c0.185,0.185,0.185,0.486,0,0.671C153.25,301.354,153.128,301.4,153.007,301.4z" />
					<path style="fill:#0091FF;" d="M161.353,305.951c-0.121,0-0.243-0.046-0.335-0.139l-1.133-1.133
					c-0.185-0.185-0.185-0.486,0-0.671s0.486-0.185,0.671,0l1.133,1.133c0.185,0.185,0.185,0.486,0,0.671
					C161.596,305.905,161.474,305.951,161.353,305.951z" />
					<path style="fill:#0091FF;" d="M159.106,303.704c-0.121,0-0.243-0.046-0.335-0.139l-8.842-8.842
					c-0.185-0.185-0.185-0.486,0-0.671c0.185-0.185,0.486-0.185,0.671,0l8.842,8.842c0.185,0.185,0.185,0.486,0,0.671
					C159.349,303.658,159.227,303.704,159.106,303.704z" />
					<path style="fill:#0091FF;" d="M149.087,293.685c-0.121,0-0.243-0.046-0.335-0.139l-3.077-3.077
					c-0.185-0.185-0.185-0.486,0-0.671c0.185-0.185,0.486-0.185,0.671,0l3.077,3.077c0.185,0.185,0.185,0.486,0,0.671
					C149.33,293.639,149.208,293.685,149.087,293.685z" />
					<path style="fill:#0091FF;" d="M161.974,302.777c-0.121,0-0.243-0.046-0.335-0.139l-4.192-4.192
					c-0.185-0.185-0.185-0.486,0-0.671c0.185-0.185,0.486-0.185,0.671,0l4.192,4.192c0.185,0.185,0.185,0.486,0,0.671
					C162.216,302.73,162.095,302.777,161.974,302.777z" />
					<path style="fill:#0091FF;" d="M156.135,296.938c-0.121,0-0.243-0.046-0.335-0.139l-7.818-7.818
					c-0.185-0.185-0.185-0.485,0-0.671c0.185-0.185,0.486-0.185,0.671,0l7.818,7.818c0.185,0.185,0.185,0.486,0,0.671
					C156.377,296.891,156.256,296.938,156.135,296.938z" />
					<path style="fill:#0091FF;" d="M160.088,312.276c-0.121,0-0.243-0.046-0.335-0.139l-10.513-10.513
					c-0.185-0.185-0.185-0.486,0-0.671c0.185-0.185,0.486-0.185,0.671,0l10.513,10.513c0.185,0.185,0.185,0.486,0,0.671
					C160.331,312.23,160.209,312.276,160.088,312.276z" />
					<path style="fill:#0091FF;" d="M148.317,300.505c-0.121,0-0.243-0.046-0.336-0.139l-4.526-4.526
					c-0.185-0.185-0.185-0.486,0-0.671c0.185-0.185,0.486-0.185,0.671,0l4.526,4.526c0.185,0.185,0.185,0.486,0,0.671
					C148.56,300.459,148.438,300.505,148.317,300.505z" />
					<path style="fill:#0091FF;" d="M159.455,315.439c-0.121,0-0.243-0.046-0.335-0.139l-8.338-8.338
					c-0.185-0.185-0.185-0.485,0-0.671c0.185-0.185,0.486-0.185,0.671,0l8.338,8.338c0.185,0.185,0.185,0.486,0,0.671
					C159.698,315.392,159.577,315.439,159.455,315.439z" />
					<path style="fill:#0091FF;" d="M149.968,305.951c-0.121,0-0.243-0.046-0.336-0.139l-4.896-4.896
					c-0.185-0.185-0.185-0.486,0-0.671c0.185-0.185,0.486-0.185,0.671,0l4.896,4.896c0.185,0.185,0.185,0.486,0,0.671
					C150.21,305.905,150.089,305.951,149.968,305.951z" />
					<path style="fill:#0091FF;" d="M158.798,318.577c-0.121,0-0.243-0.046-0.336-0.139l-1.404-1.404
					c-0.185-0.185-0.185-0.486,0-0.671c0.185-0.185,0.486-0.185,0.671,0l1.404,1.404c0.185,0.185,0.185,0.486,0,0.671
					C159.041,318.53,158.92,318.577,158.798,318.577z" />
					<path style="fill:#0091FF;" d="M156.207,315.985c-0.121,0-0.243-0.046-0.335-0.139l-22.095-22.095
					c-0.185-0.185-0.185-0.486,0-0.671c0.185-0.185,0.486-0.185,0.671,0l22.095,22.095c0.185,0.185,0.185,0.486,0,0.671
					C156.449,315.939,156.328,315.985,156.207,315.985z" />
					<path style="fill:#0091FF;" d="M158.124,321.698c-0.121,0-0.243-0.046-0.335-0.139l-4.17-4.17c-0.185-0.185-0.185-0.486,0-0.671
					c0.185-0.185,0.486-0.185,0.671,0l4.17,4.17c0.185,0.185,0.185,0.486,0,0.671C158.367,321.651,158.245,321.698,158.124,321.698z
					" />
					<path style="fill:#0091FF;" d="M152.412,315.985c-0.121,0-0.243-0.046-0.335-0.139l-5.724-5.725
					c-0.185-0.185-0.185-0.485,0-0.671c0.185-0.185,0.486-0.185,0.671,0l5.724,5.724c0.185,0.185,0.185,0.486,0,0.671
					C152.654,315.939,152.533,315.985,152.412,315.985z" />
					<path style="fill:#0091FF;" d="M145.54,309.114c-0.121,0-0.243-0.046-0.335-0.139l-2.521-2.521
					c-0.185-0.185-0.185-0.486,0-0.671c0.185-0.185,0.486-0.185,0.671,0l2.521,2.521c0.185,0.185,0.185,0.486,0,0.671
					C145.783,309.068,145.661,309.114,145.54,309.114z" />
					<path style="fill:#00DB2F;" d="M156.293,331.252c-0.121,0-0.243-0.046-0.335-0.139l-4.316-4.316
					c-0.185-0.185-0.185-0.486,0-0.671c0.185-0.185,0.486-0.185,0.671,0l4.316,4.316c0.185,0.185,0.185,0.486,0,0.671
					C156.536,331.205,156.414,331.252,156.293,331.252z" />
					<path style="fill:#00DB2F;" d="M150.781,325.74c-0.121,0-0.243-0.046-0.335-0.139l-10.067-10.067
					c-0.185-0.185-0.185-0.486,0-0.671c0.185-0.185,0.486-0.185,0.671,0l10.067,10.067c0.185,0.185,0.185,0.485,0,0.671
					C151.024,325.694,150.902,325.74,150.781,325.74z" />
					<path style="fill:#00DB2F;" d="M155.661,334.409c-0.121,0-0.243-0.046-0.335-0.139l-10.474-10.474
					c-0.185-0.185-0.185-0.486,0-0.671c0.185-0.185,0.486-0.185,0.671,0l10.474,10.474c0.185,0.185,0.185,0.486,0,0.671
					C155.904,334.363,155.783,334.409,155.661,334.409z" />
					<path style="fill:#00DB2F;" d="M143.993,322.741c-0.121,0-0.243-0.046-0.335-0.139l-3.279-3.279
					c-0.185-0.185-0.185-0.486,0-0.671c0.185-0.185,0.486-0.185,0.671,0l3.279,3.279c0.185,0.185,0.185,0.486,0,0.671
					C144.236,322.695,144.114,322.741,143.993,322.741z" />
					<path style="fill:#00DB2F;" d="M155.029,337.572c-0.121,0-0.243-0.046-0.335-0.139l-1.074-1.074
					c-0.185-0.185-0.185-0.486,0-0.671c0.185-0.185,0.486-0.185,0.671,0l1.075,1.074c0.185,0.185,0.185,0.486,0,0.671
					C155.272,337.525,155.15,337.572,155.029,337.572z" />
					<path style="fill:#00DB2F;" d="M152.657,335.2c-0.121,0-0.243-0.046-0.335-0.139l-11.943-11.943
					c-0.185-0.185-0.185-0.485,0-0.671c0.185-0.185,0.486-0.185,0.671,0l11.943,11.943c0.185,0.185,0.185,0.486,0,0.671
					C152.9,335.154,152.779,335.2,152.657,335.2z" />
					<path style="fill:#FF43D1;" d="M154.369,340.707c-0.121,0-0.243-0.046-0.335-0.139l-2.252-2.252
					c-0.185-0.185-0.185-0.486,0-0.671c0.185-0.185,0.486-0.185,0.671,0l2.252,2.252c0.185,0.185,0.185,0.486,0,0.671
					C154.612,340.661,154.49,340.707,154.369,340.707z" />
					<path style="fill:#FF43D1;" d="M150.781,337.119c-0.121,0-0.243-0.046-0.335-0.139l-7.712-7.712
					c-0.185-0.185-0.185-0.486,0-0.671c0.185-0.185,0.486-0.185,0.671,0l7.712,7.712c0.185,0.185,0.185,0.486,0,0.671
					C151.024,337.073,150.902,337.119,150.781,337.119z" />
					<path style="fill:#FF43D1;" d="M142.063,328.402c-0.121,0-0.243-0.046-0.335-0.139l-1.349-1.349
					c-0.185-0.185-0.185-0.486,0-0.671c0.185-0.185,0.486-0.185,0.671,0l1.349,1.349c0.185,0.185,0.185,0.486,0,0.671
					C142.306,328.355,142.185,328.402,142.063,328.402z" />
				</g>
				<g>
					<path style="fill:#FF43D1;" d="M137.738,340.724c-0.121,0-0.243-0.046-0.335-0.139l-4.727-4.727
					c-0.185-0.185-0.185-0.486,0-0.671c0.185-0.185,0.486-0.185,0.671,0l4.727,4.727c0.185,0.185,0.185,0.486,0,0.671
					C137.981,340.678,137.86,340.724,137.738,340.724z" />
					<path style="fill:#FF43D1;" d="M132.094,335.08c-0.121,0-0.243-0.046-0.335-0.139l-8.011-8.011
					c-0.185-0.185-0.185-0.486,0-0.671c0.185-0.185,0.486-0.185,0.671,0l8.011,8.011c0.185,0.185,0.185,0.486,0,0.671
					C132.337,335.034,132.216,335.08,132.094,335.08z" />
					<path style="fill:#FF43D1;" d="M140.616,340.724c-0.121,0-0.243-0.046-0.335-0.139l-10.84-10.84
					c-0.185-0.185-0.185-0.486,0-0.671c0.185-0.185,0.486-0.185,0.671,0l10.84,10.84c0.185,0.185,0.185,0.486,0,0.671
					C140.859,340.678,140.737,340.724,140.616,340.724z" />
					<path style="fill:#FF43D1;" d="M128.753,328.861c-0.121,0-0.243-0.046-0.335-0.139l-1.792-1.792
					c-0.185-0.185-0.185-0.486,0-0.671c0.185-0.185,0.486-0.185,0.671,0l1.792,1.792c0.185,0.185,0.185,0.486,0,0.671
					C128.996,328.815,128.874,328.861,128.753,328.861z" />
					<path style="fill:#0091FF;"
						d="M144.52,300.547c-0.121,0-0.243-0.046-0.335-0.139l-5.49-5.49c-0.185-0.185-0.185-0.486,0-0.671
					c0.185-0.185,0.486-0.185,0.671,0l5.49,5.49c0.185,0.185,0.185,0.486,0,0.671C144.763,300.501,144.642,300.547,144.52,300.547z" />
					<path style="fill:#0091FF;" d="M137.658,293.685c-0.121,0-0.243-0.046-0.335-0.139l-4.543-4.543
					c-0.185-0.185-0.185-0.486,0-0.671c0.185-0.185,0.486-0.185,0.671,0l4.543,4.543c0.185,0.185,0.185,0.486,0,0.671
					C137.901,293.639,137.78,293.685,137.658,293.685z" />
					<path style="fill:#00DB2F;" d="M143.492,307.101c-0.121,0-0.243-0.046-0.335-0.139l-5.337-5.338
					c-0.185-0.185-0.185-0.486,0-0.671c0.185-0.185,0.486-0.185,0.671,0l5.338,5.338c0.185,0.185,0.185,0.485,0,0.671
					C143.734,307.055,143.613,307.101,143.492,307.101z" />
					<path style="fill:#00DB2F;" d="M136.704,300.313c-0.121,0-0.243-0.046-0.335-0.139l-3.851-3.851
					c-0.185-0.185-0.185-0.486,0-0.671c0.185-0.185,0.486-0.185,0.671,0l3.851,3.851c0.185,0.185,0.185,0.486,0,0.671
					C136.946,300.267,136.825,300.313,136.704,300.313z" />
					<path style="fill:#00DB2F;" d="M157.394,324.333c-0.121,0-0.243-0.046-0.335-0.139l-1.592-1.592
					c-0.185-0.185-0.185-0.486,0-0.671c0.185-0.185,0.486-0.185,0.671,0l1.592,1.592c0.185,0.185,0.185,0.486,0,0.671
					C157.637,324.287,157.515,324.333,157.394,324.333z" />
					<path style="fill:#00DB2F;" d="M154.685,321.625c-0.121,0-0.243-0.046-0.335-0.139l-5.136-5.136
					c-0.185-0.185-0.185-0.486,0-0.671c0.185-0.185,0.486-0.185,0.671,0l5.136,5.136c0.185,0.185,0.185,0.486,0,0.671
					C154.928,321.578,154.806,321.625,154.685,321.625z" />
					<path style="fill:#00DB2F;" d="M148.188,315.127c-0.121,0-0.243-0.046-0.335-0.139l-13.067-13.067
					c-0.185-0.185-0.185-0.486,0-0.671c0.185-0.185,0.486-0.185,0.671,0l13.067,13.067c0.185,0.185,0.185,0.485,0,0.671
					C148.431,315.081,148.309,315.127,148.188,315.127z" />
					<path style="fill:#0091FF;" d="M130.421,297.361c-0.121,0-0.243-0.046-0.335-0.139l-4.651-4.651
					c-0.185-0.185-0.185-0.486,0-0.671c0.185-0.185,0.486-0.185,0.671,0l4.651,4.651c0.185,0.185,0.185,0.486,0,0.671
					C130.664,297.315,130.543,297.361,130.421,297.361z" />
					<path style="fill:#0091FF;" d="M124.535,291.474c-0.121,0-0.243-0.046-0.335-0.139l-2.337-2.337
					c-0.185-0.185-0.185-0.486,0-0.671c0.185-0.185,0.486-0.185,0.671,0l2.337,2.337c0.185,0.185,0.185,0.486,0,0.671
					C124.778,291.428,124.656,291.474,124.535,291.474z" />
					<path style="fill:#00DB2F;"
						d="M156.866,327.6c-0.121,0-0.243-0.046-0.335-0.139l-7.587-7.587c-0.185-0.185-0.185-0.486,0-0.671
					c0.185-0.185,0.486-0.185,0.671,0l7.587,7.587c0.185,0.185,0.185,0.486,0,0.671C157.109,327.554,156.987,327.6,156.866,327.6z" />
					<path style="fill:#00DB2F;" d="M148.255,318.99c-0.121,0-0.243-0.046-0.336-0.139l-13.457-13.457
					c-0.185-0.185-0.185-0.485,0-0.671c0.185-0.185,0.486-0.185,0.671,0l13.457,13.457c0.185,0.185,0.185,0.486,0,0.671
					C148.498,318.943,148.376,318.99,148.255,318.99z" />
					<path style="fill:#0091FF;"
						d="M130.026,300.76c-0.121,0-0.243-0.046-0.335-0.139l-1.93-1.93c-0.185-0.185-0.185-0.486,0-0.671
					c0.185-0.185,0.486-0.185,0.671,0l1.93,1.93c0.185,0.185,0.185,0.486,0,0.671C130.269,300.714,130.147,300.76,130.026,300.76z" />
					<path style="fill:#0091FF;" d="M126.962,297.696c-0.121,0-0.243-0.046-0.335-0.139l-3.789-3.789
					c-0.185-0.185-0.185-0.486,0-0.671c0.185-0.185,0.486-0.185,0.671,0l3.789,3.789c0.185,0.185,0.185,0.486,0,0.671
					C127.204,297.65,127.083,297.696,126.962,297.696z" />
					<path style="fill:#FF43D1;" d="M141.528,316.057c-0.121,0-0.243-0.046-0.335-0.139l-15.519-15.519
					c-0.185-0.185-0.185-0.486,0-0.671c0.185-0.185,0.486-0.185,0.671,0l15.519,15.519c0.185,0.185,0.185,0.486,0,0.671
					C141.771,316.011,141.649,316.057,141.528,316.057z" />
					<path style="fill:#FF43D1;"
						d="M125.167,299.696c-0.121,0-0.243-0.046-0.335-0.139l-0.97-0.97c-0.185-0.185-0.185-0.486,0-0.671
					c0.185-0.185,0.486-0.185,0.671,0l0.97,0.97c0.185,0.185,0.185,0.485,0,0.671C125.409,299.65,125.288,299.696,125.167,299.696z" />
					<path style="fill:#FF43D1;" d="M140.952,319.277c-0.121,0-0.243-0.046-0.335-0.139l-15.882-15.882
					c-0.185-0.185-0.185-0.486,0-0.671c0.185-0.185,0.486-0.185,0.671,0l15.882,15.882c0.185,0.185,0.185,0.486,0,0.671
					C141.195,319.23,141.073,319.277,140.952,319.277z" />
					<path style="fill:#FF43D1;" d="M138.214,320.333c-0.121,0-0.243-0.046-0.335-0.139l-12.238-12.238
					c-0.185-0.185-0.185-0.486,0-0.671c0.185-0.185,0.486-0.185,0.671,0l12.238,12.238c0.185,0.185,0.185,0.486,0,0.671
					C138.456,320.287,138.335,320.333,138.214,320.333z" />
					<path style="fill:#0091FF;" d="M137.77,323.974c-0.121,0-0.243-0.046-0.335-0.139l-7.921-7.921
					c-0.185-0.185-0.185-0.485,0-0.671c0.185-0.185,0.486-0.185,0.671,0l7.921,7.921c0.185,0.185,0.185,0.486,0,0.671
					C138.012,323.927,137.891,323.974,137.77,323.974z" />
					<path style="fill:#0091FF;" d="M135.66,325.669c-0.121,0-0.243-0.046-0.335-0.139l-2.928-2.928
					c-0.185-0.185-0.185-0.486,0-0.671c0.185-0.185,0.486-0.185,0.671,0l2.928,2.928c0.185,0.185,0.185,0.486,0,0.671
					C135.902,325.623,135.781,325.669,135.66,325.669z" />
					<path style="fill:#0091FF;" d="M131.822,321.832c-0.121,0-0.243-0.046-0.335-0.139l-2.019-2.019
					c-0.185-0.185-0.185-0.486,0-0.671c0.185-0.185,0.486-0.185,0.671,0l2.019,2.019c0.185,0.185,0.185,0.486,0,0.671
					C132.065,321.785,131.943,321.832,131.822,321.832z" />
					<path style="fill:#0091FF;" d="M143.879,337.793c-0.121,0-0.243-0.046-0.335-0.139l-10.43-10.43
					c-0.185-0.185-0.185-0.486,0-0.671c0.185-0.185,0.486-0.185,0.671,0l10.43,10.43c0.185,0.185,0.185,0.486,0,0.671
					C144.121,337.746,144,337.793,143.879,337.793z" />
					<path style="fill:#0091FF;" d="M132.407,326.321c-0.121,0-0.243-0.046-0.335-0.139l-2.843-2.843
					c-0.185-0.185-0.185-0.485,0-0.671c0.185-0.185,0.486-0.185,0.671,0l2.843,2.843c0.185,0.185,0.185,0.486,0,0.671
					C132.65,326.275,132.529,326.321,132.407,326.321z" />
					<path style="fill:#FF43D1;" d="M143.43,340.724c-0.121,0-0.243-0.046-0.335-0.139l-5.912-5.912
					c-0.185-0.185-0.185-0.486,0-0.671c0.185-0.185,0.486-0.185,0.671,0l5.912,5.912c0.185,0.185,0.185,0.486,0,0.671
					C143.673,340.678,143.552,340.724,143.43,340.724z" />
					<path style="fill:#FF43D1;" d="M136.578,333.872c-0.121,0-0.243-0.046-0.335-0.139l-6.802-6.803
					c-0.185-0.185-0.185-0.486,0-0.671c0.185-0.185,0.486-0.185,0.671,0l6.803,6.803c0.185,0.185,0.185,0.486,0,0.671
					C136.821,333.826,136.7,333.872,136.578,333.872z" />
				</g>
				<g>
					<polygon style="fill:#FFFFFF;" points="137.88,312.365 133.136,288.646 127.444,288.646 129.561,299.231 126.934,312.365 
					122.19,288.646 116.498,288.646 124.088,326.596 129.78,326.596 132.407,313.462 135.034,326.596 140.727,326.596 
					148.317,288.646 142.624,288.646 				" />
					<path style="fill:#FFFFFF;" d="M140.727,327.071h-5.693c-0.226,0-0.421-0.16-0.465-0.381l-2.162-10.808l-2.162,10.808
					c-0.044,0.222-0.239,0.381-0.465,0.381h-5.693c-0.226,0-0.421-0.16-0.465-0.381l-7.59-37.951
					c-0.028-0.139,0.008-0.284,0.098-0.394c0.09-0.11,0.225-0.174,0.367-0.174h5.693c0.226,0,0.421,0.159,0.465,0.381l4.279,21.393
					l2.143-10.715l-2.099-10.492c-0.028-0.139,0.008-0.284,0.098-0.394c0.09-0.11,0.225-0.174,0.367-0.174h5.693
					c0.226,0,0.421,0.159,0.465,0.381l4.279,21.393l4.279-21.393c0.044-0.222,0.239-0.381,0.465-0.381h5.693
					c0.142,0,0.277,0.064,0.367,0.174c0.09,0.11,0.126,0.255,0.098,0.394l-7.59,37.951
					C141.147,326.911,140.953,327.071,140.727,327.071z M135.423,326.122h4.915l7.4-37.002h-4.725l-4.667,23.338
					c-0.044,0.222-0.239,0.381-0.465,0.381c-0.226,0-0.421-0.16-0.465-0.381l-4.667-23.338h-4.725l2.004,10.018
					c0.012,0.061,0.012,0.125,0,0.186l-2.627,13.134c-0.044,0.222-0.239,0.381-0.465,0.381c-0.226,0-0.421-0.16-0.465-0.381
					l-4.668-23.338h-4.725l7.4,37.002h4.915l2.551-12.753c0.044-0.222,0.239-0.381,0.465-0.381c0.226,0,0.421,0.16,0.465,0.381
					L135.423,326.122z" />
				</g>
			</g>
			<g>
				<g>
					<path style="fill:#0091FF;" d="M184.207,338.386c-0.121,0-0.243-0.046-0.335-0.139l-2.471-2.471
					c-0.185-0.185-0.185-0.486,0-0.671s0.486-0.185,0.671,0l2.471,2.471c0.185,0.185,0.185,0.486,0,0.671
					C184.45,338.34,184.328,338.386,184.207,338.386z" />
					<path style="fill:#0091FF;" d="M180.597,334.776c-0.121,0-0.243-0.046-0.335-0.139l-10.045-10.045
					c-0.185-0.185-0.185-0.486,0-0.671c0.185-0.185,0.485-0.185,0.671,0l10.045,10.045c0.185,0.185,0.185,0.486,0,0.671
					C180.84,334.73,180.719,334.776,180.597,334.776z" />
					<path style="fill:#0091FF;" d="M185.062,336.164c-0.121,0-0.243-0.046-0.335-0.139l-0.936-0.936
					c-0.185-0.185-0.185-0.486,0-0.671c0.185-0.185,0.486-0.185,0.671,0l0.936,0.936c0.185,0.185,0.185,0.486,0,0.671
					C185.304,336.118,185.183,336.164,185.062,336.164z" />
					<path style="fill:#0091FF;" d="M183.286,334.389c-0.121,0-0.243-0.046-0.335-0.139l-4.51-4.511
					c-0.185-0.185-0.185-0.485,0-0.671c0.185-0.185,0.486-0.185,0.671,0l4.51,4.511c0.185,0.185,0.185,0.486,0,0.671
					C183.529,334.342,183.407,334.389,183.286,334.389z" />
					<path style="fill:#0091FF;" d="M177.928,329.03c-0.121,0-0.243-0.046-0.335-0.139l-6.506-6.506
					c-0.185-0.185-0.185-0.486,0-0.671c0.185-0.185,0.486-0.185,0.671,0l6.506,6.506c0.185,0.185,0.185,0.486,0,0.671
					C178.171,328.984,178.049,329.03,177.928,329.03z" />
					<path style="fill:#0091FF;" d="M196.248,308.199c-0.121,0-0.243-0.046-0.335-0.139l-7.256-7.256
					c-0.185-0.185-0.185-0.486,0-0.671s0.486-0.185,0.671,0l7.256,7.256c0.185,0.185,0.185,0.486,0,0.671
					C196.491,308.152,196.369,308.199,196.248,308.199z" />
					<path style="fill:#0091FF;" d="M187.884,299.835c-0.121,0-0.243-0.046-0.335-0.139l-6.148-6.148
					c-0.185-0.185-0.185-0.486,0-0.671s0.486-0.185,0.671,0l6.148,6.148c0.185,0.185,0.185,0.486,0,0.671
					C188.127,299.788,188.005,299.835,187.884,299.835z" />
					<path style="fill:#0091FF;" d="M197.332,305.488c-0.121,0-0.243-0.046-0.335-0.139l-2.945-2.945
					c-0.185-0.185-0.185-0.486,0-0.671s0.485-0.185,0.671,0l2.945,2.945c0.185,0.185,0.185,0.486,0,0.671
					C197.575,305.441,197.454,305.488,197.332,305.488z" />
					<path style="fill:#0091FF;" d="M193.315,301.471c-0.121,0-0.243-0.046-0.335-0.139l-10.862-10.862
					c-0.185-0.185-0.185-0.486,0-0.671c0.185-0.185,0.486-0.185,0.671,0l10.862,10.862c0.185,0.185,0.185,0.486,0,0.671
					C193.558,301.424,193.437,301.471,193.315,301.471z" />
					<path style="fill:#0091FF;" d="M198.417,302.777c-0.121,0-0.243-0.046-0.335-0.139l-8.524-8.524
					c-0.185-0.185-0.185-0.486,0-0.671c0.185-0.185,0.485-0.185,0.671,0l8.524,8.524c0.185,0.185,0.185,0.486,0,0.671
					C198.659,302.73,198.538,302.777,198.417,302.777z" />
					<path style="fill:#0091FF;" d="M188.709,293.069c-0.121,0-0.243-0.046-0.335-0.139l-3.949-3.949
					c-0.185-0.185-0.185-0.486,0-0.671c0.185-0.185,0.486-0.185,0.671,0l3.949,3.949c0.185,0.185,0.185,0.486,0,0.671
					C188.951,293.023,188.83,293.069,188.709,293.069z" />
					<path style="fill:#0091FF;" d="M195.164,310.909c-0.121,0-0.243-0.046-0.335-0.139l-2.711-2.711
					c-0.185-0.185-0.185-0.486,0-0.671s0.486-0.185,0.671,0l2.711,2.711c0.185,0.185,0.185,0.486,0,0.671
					C195.406,310.863,195.285,310.909,195.164,310.909z" />
					<path style="fill:#0091FF;" d="M191.519,307.264c-0.121,0-0.243-0.046-0.335-0.139l-11.285-11.285
					c-0.185-0.185-0.185-0.486,0-0.671s0.486-0.185,0.671,0l11.285,11.285c0.185,0.185,0.185,0.485,0,0.671
					C191.761,307.218,191.64,307.264,191.519,307.264z" />
					<path style="fill:#0091FF;" d="M194.079,313.62c-0.121,0-0.243-0.046-0.335-0.139l-9.605-9.605
					c-0.185-0.185-0.185-0.486,0-0.671c0.185-0.185,0.486-0.185,0.671,0l9.605,9.605c0.185,0.185,0.185,0.486,0,0.671
					C194.322,313.574,194.201,313.62,194.079,313.62z" />
					<path style="fill:#0091FF;" d="M183.68,303.221c-0.121,0-0.243-0.046-0.335-0.139l-9.465-9.465
					c-0.185-0.185-0.185-0.486,0-0.671c0.185-0.185,0.485-0.185,0.671,0l9.465,9.465c0.185,0.185,0.185,0.486,0,0.671
					C183.923,303.174,183.801,303.221,183.68,303.221z" />
					<path style="fill:#0091FF;" d="M172.865,292.405c-0.121,0-0.243-0.046-0.335-0.139l-3.285-3.286
					c-0.185-0.185-0.185-0.485,0-0.671c0.185-0.185,0.485-0.185,0.671,0l3.285,3.285c0.185,0.185,0.185,0.486,0,0.671
					C173.108,292.359,172.986,292.405,172.865,292.405z" />
					<path style="fill:#0091FF;" d="M192.995,316.331c-0.121,0-0.243-0.046-0.335-0.139l-4.942-4.942
					c-0.185-0.185-0.185-0.485,0-0.671c0.185-0.185,0.485-0.185,0.671,0l4.942,4.942c0.185,0.185,0.185,0.486,0,0.671
					C193.238,316.284,193.116,316.331,192.995,316.331z" />
					<path style="fill:#0091FF;" d="M186.997,310.333c-0.121,0-0.243-0.046-0.335-0.139l-16.442-16.443
					c-0.185-0.185-0.185-0.486,0-0.671c0.185-0.185,0.486-0.185,0.671,0l16.442,16.443c0.185,0.185,0.185,0.486,0,0.671
					C187.24,310.286,187.118,310.333,186.997,310.333z" />
					<path style="fill:#0091FF;" d="M191.911,319.042c-0.121,0-0.243-0.046-0.335-0.139l-9.928-9.928
					c-0.185-0.185-0.185-0.486,0-0.671c0.185-0.185,0.486-0.185,0.671,0l9.928,9.928c0.185,0.185,0.185,0.485,0,0.671
					C192.154,318.995,192.032,319.042,191.911,319.042z" />
					<path style="fill:#0091FF;" d="M181.068,308.199c-0.121,0-0.243-0.046-0.335-0.139l-9.489-9.489
					c-0.185-0.185-0.185-0.486,0-0.671c0.185-0.185,0.486-0.185,0.671,0l9.489,9.489c0.185,0.185,0.185,0.486,0,0.671
					C181.31,308.152,181.189,308.199,181.068,308.199z" />
					<path style="fill:#00DB2F;" d="M190.826,321.752c-0.121,0-0.243-0.046-0.335-0.139l-3.175-3.175
					c-0.185-0.185-0.185-0.486,0-0.671c0.185-0.185,0.485-0.185,0.671,0l3.176,3.175c0.185,0.185,0.185,0.486,0,0.671
					C191.069,321.706,190.948,321.752,190.826,321.752z" />
					<path style="fill:#00DB2F;" d="M186.562,317.488c-0.121,0-0.243-0.046-0.335-0.139l-14.11-14.11
					c-0.185-0.185-0.185-0.486,0-0.671s0.486-0.185,0.671,0l14.11,14.11c0.185,0.185,0.185,0.486,0,0.671
					C186.805,317.442,186.683,317.488,186.562,317.488z" />
					<path style="fill:#00DB2F;" d="M193.368,328.089c-0.121,0-0.243-0.046-0.335-0.139l-1.457-1.457
					c-0.185-0.185-0.185-0.486,0-0.671c0.185-0.185,0.486-0.185,0.671,0l1.457,1.457c0.185,0.185,0.185,0.486,0,0.671
					C193.611,328.043,193.489,328.089,193.368,328.089z" />
					<path style="fill:#00DB2F;" d="M190.988,325.709c-0.121,0-0.243-0.046-0.335-0.139l-8.221-8.221
					c-0.185-0.185-0.185-0.486,0-0.671c0.185-0.185,0.486-0.185,0.671,0l8.221,8.221c0.185,0.185,0.185,0.486,0,0.671
					C191.23,325.662,191.109,325.709,190.988,325.709z" />
					<path style="fill:#00DB2F;" d="M181.61,316.331c-0.121,0-0.243-0.046-0.335-0.139l-8.253-8.253
					c-0.185-0.185-0.185-0.486,0-0.671c0.185-0.185,0.486-0.185,0.671,0l8.253,8.253c0.185,0.185,0.185,0.486,0,0.671
					C181.853,316.284,181.731,316.331,181.61,316.331z" />
					<path style="fill:#00DB2F;" d="M195.887,334.403c-0.121,0-0.243-0.046-0.335-0.139l-6.106-6.106
					c-0.185-0.185-0.185-0.486,0-0.671c0.185-0.185,0.486-0.185,0.671,0l6.106,6.106c0.185,0.185,0.185,0.486,0,0.671
					C196.129,334.356,196.008,334.403,195.887,334.403z" />
					<path style="fill:#00DB2F;" d="M188.69,327.206c-0.121,0-0.243-0.046-0.335-0.139l-11.533-11.533
					c-0.185-0.185-0.185-0.486,0-0.671c0.185-0.185,0.486-0.185,0.671,0l11.533,11.533c0.185,0.185,0.185,0.486,0,0.671
					C188.933,327.16,188.812,327.206,188.69,327.206z" />
					<path style="fill:#FF43D1;" d="M198.42,340.725c-0.121,0-0.243-0.046-0.335-0.139l-1.123-1.123
					c-0.185-0.185-0.185-0.486,0-0.671c0.185-0.185,0.485-0.185,0.671,0l1.123,1.123c0.185,0.185,0.185,0.486,0,0.671
					C198.663,340.678,198.541,340.725,198.42,340.725z" />
					<path style="fill:#FF43D1;" d="M196.225,338.53c-0.121,0-0.243-0.046-0.335-0.139l-7.921-7.921
					c-0.185-0.185-0.185-0.486,0-0.671s0.486-0.185,0.671,0l7.921,7.921c0.185,0.185,0.185,0.486,0,0.671
					C196.468,338.484,196.346,338.53,196.225,338.53z" />
					<path style="fill:#FF43D1;" d="M187.305,329.61c-0.121,0-0.243-0.046-0.335-0.139l-11.137-11.137
					c-0.185-0.185-0.185-0.486,0-0.671c0.185-0.185,0.485-0.185,0.671,0L187.64,328.8c0.185,0.185,0.185,0.486,0,0.671
					C187.547,329.563,187.426,329.61,187.305,329.61z" />
					<path style="fill:#FF43D1;" d="M195.509,340.728c-0.121,0-0.243-0.046-0.335-0.139l-0.922-0.923
					c-0.185-0.185-0.185-0.486,0-0.671c0.185-0.185,0.485-0.185,0.671,0l0.922,0.923c0.185,0.185,0.185,0.486,0,0.671
					C195.752,340.681,195.63,340.728,195.509,340.728z" />
					<path style="fill:#FF43D1;" d="M193.478,338.697c-0.121,0-0.243-0.046-0.335-0.139l-9.353-9.352
					c-0.185-0.185-0.185-0.485,0-0.671c0.185-0.185,0.486-0.185,0.671,0l9.352,9.352c0.185,0.185,0.185,0.486,0,0.671
					C193.721,338.651,193.6,338.697,193.478,338.697z" />
					<path style="fill:#FF43D1;" d="M183.286,328.505c-0.121,0-0.243-0.046-0.335-0.139l-2.689-2.689
					c-0.185-0.185-0.185-0.486,0-0.671c0.185-0.185,0.486-0.185,0.671,0l2.689,2.689c0.185,0.185,0.185,0.486,0,0.671
					C183.529,328.458,183.407,328.505,183.286,328.505z" />
					<path style="fill:#00DB2F;" d="M178.744,323.963c-0.121,0-0.243-0.046-0.335-0.139l-3.798-3.798
					c-0.185-0.185-0.185-0.486,0-0.671c0.185-0.185,0.485-0.185,0.671,0l3.798,3.798c0.185,0.185,0.185,0.485,0,0.671
					C178.987,323.917,178.866,323.963,178.744,323.963z" />
					<path style="fill:#00DB2F;" d="M173.823,319.042c-0.121,0-0.243-0.046-0.335-0.139l-0.958-0.958
					c-0.185-0.185-0.185-0.486,0-0.671s0.486-0.185,0.671,0l0.958,0.958c0.185,0.185,0.185,0.485,0,0.671
					C174.066,318.995,173.944,319.042,173.823,319.042z" />
					<path style="fill:#FF43D1;"
						d="M192.722,340.725c-0.121,0-0.243-0.046-0.335-0.139l-6.16-6.16c-0.185-0.185-0.185-0.486,0-0.671
					s0.486-0.185,0.671,0l6.16,6.16c0.185,0.185,0.185,0.485,0,0.671C192.965,340.679,192.843,340.725,192.722,340.725z" />
					<path style="fill:#FF43D1;" d="M185.637,333.639c-0.121,0-0.243-0.046-0.336-0.139l-6.569-6.569
					c-0.185-0.185-0.185-0.486,0-0.671c0.185-0.185,0.485-0.185,0.671,0l6.569,6.569c0.185,0.185,0.185,0.485,0,0.671
					C185.879,333.593,185.758,333.639,185.637,333.639z" />
					<path style="fill:#00DB2F;"
						d="M179.067,327.07c-0.121,0-0.243-0.046-0.335-0.139L175,323.199c-0.185-0.185-0.185-0.486,0-0.671
					c0.185-0.185,0.485-0.185,0.671,0l3.732,3.732c0.185,0.185,0.185,0.486,0,0.671C179.31,327.024,179.189,327.07,179.067,327.07z" />
					<path style="fill:#00DB2F;" d="M174.445,322.448c-0.121,0-0.243-0.046-0.335-0.139l-2.155-2.155
					c-0.185-0.185-0.185-0.485,0-0.671c0.185-0.185,0.485-0.185,0.671,0l2.155,2.155c0.185,0.185,0.185,0.486,0,0.671
					C174.688,322.402,174.566,322.448,174.445,322.448z" />
					<path style="fill:#FF43D1;" d="M183.25,340.699c-0.121,0-0.243-0.046-0.335-0.139l-1.267-1.267
					c-0.185-0.185-0.185-0.486,0-0.671s0.486-0.185,0.671,0l1.267,1.267c0.185,0.185,0.185,0.486,0,0.671
					C183.493,340.653,183.372,340.699,183.25,340.699z" />
					<path style="fill:#FF43D1;" d="M181.081,338.53c-0.121,0-0.243-0.046-0.335-0.139l-7.921-7.921
					c-0.185-0.185-0.185-0.486,0-0.671c0.185-0.185,0.485-0.185,0.671,0l7.921,7.921c0.185,0.185,0.185,0.486,0,0.671
					C181.324,338.484,181.202,338.53,181.081,338.53z" />
					<path style="fill:#FF43D1;" d="M172.16,329.61c-0.121,0-0.243-0.046-0.335-0.139l-2.565-2.565c-0.185-0.185-0.185-0.486,0-0.671
					s0.486-0.185,0.671,0l2.565,2.565c0.185,0.185,0.185,0.486,0,0.671C172.403,329.563,172.282,329.61,172.16,329.61z" />
					<path style="fill:#FF43D1;" d="M177.512,340.699c-0.121,0-0.243-0.046-0.335-0.139l-4.647-4.647
					c-0.185-0.185-0.185-0.486,0-0.671c0.185-0.185,0.486-0.185,0.671,0l4.647,4.647c0.185,0.185,0.185,0.486,0,0.671
					C177.755,340.653,177.633,340.699,177.512,340.699z" />
					<path style="fill:#FF43D1;"
						d="M171.813,335c-0.121,0-0.243-0.046-0.335-0.139l-5.246-5.246c-0.185-0.185-0.185-0.486,0-0.671
					c0.185-0.185,0.486-0.185,0.671,0l5.246,5.246c0.185,0.185,0.185,0.486,0,0.671C172.055,334.954,171.934,335,171.813,335z" />
					<path style="fill:#FF43D1;" d="M165.436,328.623c-0.121,0-0.243-0.046-0.335-0.139l-1.578-1.578
					c-0.185-0.185-0.185-0.486,0-0.671s0.485-0.185,0.671,0l1.578,1.578c0.185,0.185,0.185,0.486,0,0.671
					C165.678,328.577,165.557,328.623,165.436,328.623z" />
					<path style="fill:#FF43D1;"
						d="M180.394,340.699c-0.121,0-0.243-0.046-0.335-0.139l-1.65-1.65c-0.185-0.185-0.185-0.485,0-0.671
					s0.486-0.185,0.671,0l1.65,1.65c0.185,0.185,0.185,0.486,0,0.671C180.637,340.653,180.515,340.699,180.394,340.699z" />
					<path style="fill:#FF43D1;" d="M177.483,337.789c-0.121,0-0.243-0.046-0.335-0.139l-10.744-10.744
					c-0.185-0.185-0.185-0.486,0-0.671c0.185-0.185,0.485-0.185,0.671,0l10.744,10.744c0.185,0.185,0.185,0.486,0,0.671
					C177.726,337.743,177.605,337.789,177.483,337.789z" />
				</g>
				<g>
					<polygon style="fill:#FFFFFF;"
						points="179.067,288.646 174.323,300.505 169.579,288.646 163.887,288.646 171.477,307.621 
					163.887,326.596 169.579,326.596 174.323,314.737 179.067,326.596 184.76,326.596 177.17,307.621 184.76,288.646 				" />
					<path style="fill:#FFFFFF;" d="M184.76,327.071h-5.693c-0.194,0-0.368-0.118-0.441-0.298l-4.303-10.759l-4.303,10.759
					c-0.072,0.18-0.247,0.298-0.441,0.298h-5.693c-0.157,0-0.305-0.078-0.393-0.208c-0.088-0.13-0.106-0.296-0.048-0.442
					l7.52-18.799l-7.52-18.799c-0.058-0.146-0.041-0.312,0.048-0.442c0.088-0.13,0.235-0.208,0.393-0.208h5.693
					c0.194,0,0.368,0.118,0.441,0.298l4.303,10.759l4.303-10.759c0.072-0.18,0.247-0.298,0.441-0.298h5.693
					c0.157,0,0.305,0.078,0.393,0.208c0.088,0.13,0.106,0.296,0.048,0.442l-7.52,18.799l7.52,18.799
					c0.058,0.146,0.041,0.312-0.048,0.442C185.064,326.993,184.917,327.071,184.76,327.071z M179.388,326.122h4.671l-7.33-18.325
					c-0.045-0.113-0.045-0.239,0-0.353l7.33-18.325h-4.671l-4.624,11.561c-0.072,0.18-0.246,0.298-0.44,0.298
					s-0.368-0.118-0.44-0.298l-4.625-11.561h-4.671l7.33,18.325c0.045,0.113,0.045,0.239,0,0.353l-7.33,18.325h4.671l4.625-11.562
					c0.072-0.18,0.246-0.298,0.44-0.298s0.368,0.118,0.44,0.298L179.388,326.122z" />
				</g>
			</g>
			<g>
				<g>
					<path style="fill:#0091FF;" d="M217.09,298.297c-0.121,0-0.243-0.046-0.335-0.139l-4.038-4.038
					c-0.185-0.185-0.185-0.486,0-0.671c0.185-0.185,0.486-0.185,0.671,0l4.038,4.038c0.185,0.185,0.185,0.486,0,0.671
					C217.333,298.25,217.212,298.297,217.09,298.297z" />
					<path style="fill:#0091FF;" d="M211.586,292.792c-0.121,0-0.243-0.046-0.336-0.139l-3.672-3.672
					c-0.185-0.185-0.185-0.486,0-0.671c0.185-0.185,0.486-0.185,0.671,0l3.672,3.672c0.185,0.185,0.185,0.486,0,0.671
					C211.829,292.746,211.707,292.792,211.586,292.792z" />
					<path style="fill:#FF43D1;" d="M216.502,301.503c-0.121,0-0.243-0.046-0.335-0.139l-6.888-6.888
					c-0.185-0.185-0.185-0.486,0-0.671s0.486-0.185,0.671,0l6.888,6.888c0.185,0.185,0.185,0.485,0,0.671
					C216.744,301.457,216.623,301.503,216.502,301.503z" />
					<path style="fill:#FF43D1;" d="M215.621,304.418c-0.121,0-0.243-0.046-0.335-0.139l-4.295-4.295
					c-0.185-0.185-0.185-0.485,0-0.671s0.486-0.185,0.671,0l4.295,4.295c0.185,0.185,0.185,0.486,0,0.671
					C215.864,304.371,215.743,304.418,215.621,304.418z" />
				</g>
				<g>
					<path style="fill:#FF43D1;" d="M223.458,340.728c-0.121,0-0.243-0.046-0.335-0.139l-7.442-7.442
					c-0.185-0.185-0.185-0.486,0-0.671c0.185-0.185,0.486-0.185,0.671,0l7.442,7.442c0.185,0.185,0.185,0.485,0,0.671
					C223.701,340.682,223.58,340.728,223.458,340.728z" />
					<path style="fill:#FF43D1;" d="M214.863,332.132c-0.121,0-0.243-0.046-0.335-0.139l-5.059-5.059
					c-0.185-0.185-0.185-0.486,0-0.671s0.486-0.185,0.671,0l5.059,5.059c0.185,0.185,0.185,0.486,0,0.671
					C215.105,332.086,214.984,332.132,214.863,332.132z" />
					<path style="fill:#FF43D1;" d="M226.336,340.728c-0.121,0-0.243-0.046-0.335-0.139l-0.923-0.923
					c-0.185-0.185-0.185-0.486,0-0.671s0.486-0.185,0.671,0l0.923,0.923c0.185,0.185,0.185,0.485,0,0.671
					C226.579,340.682,226.457,340.728,226.336,340.728z" />
					<path style="fill:#FF43D1;" d="M224.138,338.53c-0.121,0-0.243-0.046-0.335-0.139l-11.457-11.457
					c-0.185-0.185-0.185-0.486,0-0.671s0.486-0.185,0.671,0l11.457,11.457c0.185,0.185,0.185,0.486,0,0.671
					C224.381,338.484,224.259,338.53,224.138,338.53z" />
					<path style="fill:#0091FF;" d="M235.229,307.435c-0.121,0-0.243-0.046-0.335-0.139l-0.873-0.873
					c-0.185-0.185-0.185-0.486,0-0.671c0.185-0.185,0.486-0.185,0.671,0l0.873,0.873c0.185,0.185,0.185,0.486,0,0.671
					C235.472,307.389,235.351,307.435,235.229,307.435z" />
					<path style="fill:#0091FF;" d="M232.666,304.872c-0.121,0-0.243-0.046-0.335-0.139l-11.02-11.02
					c-0.185-0.185-0.185-0.485,0-0.671c0.185-0.185,0.486-0.185,0.671,0l11.02,11.02c0.185,0.185,0.185,0.486,0,0.671
					C232.909,304.826,232.788,304.872,232.666,304.872z" />
					<path style="fill:#0091FF;" d="M234.435,310.225c-0.121,0-0.243-0.046-0.335-0.139l-9.826-9.826
					c-0.185-0.185-0.185-0.486,0-0.671c0.185-0.185,0.485-0.185,0.671,0l9.826,9.826c0.185,0.185,0.185,0.486,0,0.671
					C234.677,310.179,234.556,310.225,234.435,310.225z" />
					<path style="fill:#0091FF;" d="M223.571,299.362c-0.121,0-0.243-0.046-0.335-0.139l-2.773-2.773
					c-0.185-0.185-0.185-0.486,0-0.671c0.185-0.185,0.486-0.185,0.671,0l2.773,2.773c0.185,0.185,0.185,0.486,0,0.671
					C223.814,299.315,223.692,299.362,223.571,299.362z" />
					<path style="fill:#0091FF;" d="M235.95,305.103c-0.121,0-0.243-0.046-0.335-0.139l-7.512-7.512
					c-0.185-0.185-0.185-0.485,0-0.671s0.485-0.185,0.671,0l7.512,7.512c0.185,0.185,0.185,0.486,0,0.671
					C236.193,305.057,236.071,305.103,235.95,305.103z" />
					<path style="fill:#0091FF;" d="M226.822,295.976c-0.121,0-0.243-0.046-0.335-0.139l-4.486-4.486
					c-0.185-0.185-0.185-0.486,0-0.671c0.185-0.185,0.486-0.185,0.671,0l4.486,4.486c0.185,0.185,0.185,0.486,0,0.671
					C227.065,295.929,226.944,295.976,226.822,295.976z" />
					<path style="fill:#0091FF;" d="M236.735,302.778c-0.121,0-0.243-0.046-0.335-0.139l-2.766-2.766
					c-0.185-0.185-0.185-0.486,0-0.671c0.185-0.185,0.485-0.185,0.671,0l2.766,2.766c0.185,0.185,0.185,0.486,0,0.671
					C236.978,302.731,236.856,302.778,236.735,302.778z" />
					<path style="fill:#0091FF;" d="M232.666,298.709c-0.121,0-0.243-0.046-0.335-0.139l-9.589-9.589
					c-0.185-0.185-0.185-0.486,0-0.671c0.185-0.185,0.486-0.185,0.671,0l9.589,9.589c0.185,0.185,0.185,0.485,0,0.671
					C232.909,298.663,232.788,298.709,232.666,298.709z" />
					<path style="fill:#0091FF;" d="M233.578,312.94c-0.121,0-0.243-0.046-0.335-0.139l-3.011-3.011
					c-0.185-0.185-0.185-0.486,0-0.671s0.486-0.185,0.671,0l3.011,3.011c0.185,0.185,0.185,0.486,0,0.671
					C233.821,312.893,233.7,312.94,233.578,312.94z" />
					<path style="fill:#0091FF;" d="M229.456,308.818c-0.121,0-0.243-0.046-0.335-0.139l-4.417-4.418
					c-0.185-0.185-0.185-0.485,0-0.671c0.185-0.185,0.485-0.185,0.671,0l4.417,4.417c0.185,0.185,0.185,0.486,0,0.671
					C229.699,308.771,229.577,308.818,229.456,308.818z" />
					<path style="fill:#0091FF;" d="M223.571,302.932c-0.121,0-0.243-0.046-0.335-0.139l-3.633-3.633
					c-0.185-0.185-0.185-0.486,0-0.671s0.486-0.185,0.671,0l3.632,3.633c0.185,0.185,0.185,0.485,0,0.671
					C223.814,302.886,223.692,302.932,223.571,302.932z" />
					<path style="fill:#0091FF;" d="M232.776,315.766c-0.121,0-0.243-0.046-0.336-0.139l-11.978-11.978
					c-0.185-0.185-0.185-0.486,0-0.671c0.185-0.185,0.486-0.185,0.671,0l11.978,11.978c0.185,0.185,0.185,0.486,0,0.671
					C233.019,315.72,232.897,315.766,232.776,315.766z" />
					<path style="fill:#0091FF;" d="M231.858,318.477c-0.121,0-0.243-0.046-0.335-0.139l-1.686-1.686
					c-0.185-0.185-0.185-0.486,0-0.671c0.185-0.185,0.486-0.185,0.671,0l1.686,1.686c0.185,0.185,0.185,0.486,0,0.671
					C232.101,318.431,231.98,318.477,231.858,318.477z" />
					<path style="fill:#0091FF;" d="M228.937,315.556c-0.121,0-0.243-0.046-0.335-0.139l-10.719-10.719
					c-0.185-0.185-0.185-0.486,0-0.671c0.185-0.185,0.486-0.185,0.671,0l10.719,10.719c0.185,0.185,0.185,0.486,0,0.671
					C229.18,315.51,229.059,315.556,228.937,315.556z" />
					<path style="fill:#FF43D1;" d="M230.978,321.225c-0.121,0-0.243-0.046-0.335-0.139l-7.407-7.407
					c-0.185-0.185-0.185-0.486,0-0.671s0.485-0.185,0.671,0l7.407,7.407c0.185,0.185,0.185,0.485,0,0.671
					C231.221,321.179,231.099,321.225,230.978,321.225z" />
					<path style="fill:#FF43D1;" d="M222.185,312.432c-0.121,0-0.243-0.046-0.335-0.139l-4.847-4.846
					c-0.185-0.185-0.185-0.486,0-0.671c0.185-0.185,0.486-0.185,0.671,0l4.846,4.846c0.185,0.185,0.185,0.486,0,0.671
					C222.427,312.385,222.306,312.432,222.185,312.432z" />
					<path style="fill:#FF43D1;" d="M230.102,323.978c-0.121,0-0.243-0.046-0.335-0.139l-1.378-1.378
					c-0.185-0.185-0.185-0.486,0-0.671c0.185-0.185,0.485-0.185,0.671,0l1.378,1.378c0.185,0.185,0.185,0.486,0,0.671
					C230.345,323.931,230.223,323.978,230.102,323.978z" />
					<path style="fill:#FF43D1;" d="M227.349,321.225c-0.121,0-0.243-0.046-0.335-0.139l-7.031-7.031
					c-0.185-0.185-0.185-0.486,0-0.671c0.185-0.185,0.486-0.185,0.671,0l7.031,7.031c0.185,0.185,0.185,0.485,0,0.671
					C227.592,321.179,227.471,321.225,227.349,321.225z" />
					<path style="fill:#FF43D1;" d="M218.865,312.741c-0.121,0-0.243-0.046-0.335-0.139l-2.403-2.403
					c-0.185-0.185-0.185-0.486,0-0.671c0.185-0.185,0.486-0.185,0.671,0l2.403,2.403c0.185,0.185,0.185,0.486,0,0.671
					C219.108,312.694,218.987,312.741,218.865,312.741z" />
					<path style="fill:#00DB2F;" d="M229.133,326.637c-0.121,0-0.243-0.046-0.335-0.139l-5.562-5.562
					c-0.185-0.185-0.185-0.486,0-0.671c0.185-0.185,0.485-0.185,0.671,0l5.562,5.562c0.185,0.185,0.185,0.485,0,0.671
					C229.376,326.591,229.255,326.637,229.133,326.637z" />
					<path style="fill:#00DB2F;" d="M222.185,319.689c-0.121,0-0.243-0.046-0.335-0.139l-6.692-6.691
					c-0.185-0.185-0.185-0.486,0-0.671c0.185-0.185,0.486-0.185,0.671,0l6.691,6.691c0.185,0.185,0.185,0.486,0,0.671
					C222.427,319.642,222.306,319.689,222.185,319.689z" />
					<path style="fill:#00DB2F;" d="M229.133,330.266c-0.121,0-0.243-0.046-0.335-0.139l-1.973-1.973
					c-0.185-0.185-0.185-0.485,0-0.671c0.185-0.185,0.486-0.185,0.671,0l1.973,1.973c0.185,0.185,0.185,0.486,0,0.671
					C229.376,330.22,229.255,330.266,229.133,330.266z" />
					<path style="fill:#00DB2F;" d="M225.949,327.082c-0.121,0-0.243-0.046-0.335-0.139l-10.456-10.456
					c-0.185-0.185-0.185-0.486,0-0.671c0.185-0.185,0.486-0.185,0.671,0l10.456,10.456c0.185,0.185,0.185,0.486,0,0.671
					C226.192,327.036,226.071,327.082,225.949,327.082z" />
					<path style="fill:#00DB2F;" d="M229.16,333.916c-0.121,0-0.243-0.046-0.336-0.139l-9.652-9.652
					c-0.185-0.185-0.185-0.486,0-0.671s0.486-0.185,0.671,0l9.652,9.652c0.185,0.185,0.185,0.486,0,0.671
					C229.403,333.869,229.282,333.916,229.16,333.916z" />
					<path style="fill:#00DB2F;" d="M218.218,322.974c-0.121,0-0.243-0.046-0.335-0.139l-2.725-2.725
					c-0.185-0.185-0.185-0.486,0-0.671c0.185-0.185,0.486-0.185,0.671,0l2.725,2.725c0.185,0.185,0.185,0.486,0,0.671
					C218.461,322.927,218.34,322.974,218.218,322.974z" />
					<path style="fill:#00DB2F;" d="M229.133,337.517c-0.121,0-0.243-0.046-0.335-0.139l-3.184-3.184
					c-0.185-0.185-0.185-0.485,0-0.671c0.185-0.185,0.485-0.185,0.671,0l3.184,3.184c0.185,0.185,0.185,0.485,0,0.671
					C229.376,337.471,229.255,337.517,229.133,337.517z" />
					<path style="fill:#00DB2F;" d="M224.608,332.992c-0.121,0-0.243-0.046-0.335-0.139l-9.115-9.115
					c-0.185-0.185-0.185-0.486,0-0.671c0.185-0.185,0.486-0.185,0.671,0l9.115,9.115c0.185,0.185,0.185,0.486,0,0.671
					C224.851,332.946,224.73,332.992,224.608,332.992z" />
					<path style="fill:#FF43D1;" d="M229.15,340.728c-0.121,0-0.243-0.046-0.335-0.139l-3.802-3.802
					c-0.185-0.185-0.185-0.486,0-0.671c0.185-0.185,0.486-0.185,0.671,0l3.802,3.802c0.185,0.185,0.185,0.485,0,0.671
					C229.393,340.682,229.272,340.728,229.15,340.728z" />
					<path style="fill:#FF43D1;" d="M224.341,335.919c-0.121,0-0.243-0.046-0.335-0.139l-5.921-5.921
					c-0.185-0.185-0.185-0.486,0-0.671s0.486-0.185,0.671,0l5.921,5.921c0.185,0.185,0.185,0.486,0,0.671
					C224.584,335.872,224.462,335.919,224.341,335.919z" />
					<path style="fill:#FF43D1;" d="M217.09,328.668c-0.121,0-0.243-0.046-0.335-0.139l-1.595-1.595
					c-0.185-0.185-0.185-0.486,0-0.671c0.185-0.185,0.485-0.185,0.671,0l1.594,1.595c0.185,0.185,0.185,0.486,0,0.671
					C217.333,328.622,217.212,328.668,217.09,328.668z" />
				</g>
				<g>
					<polygon style="fill:#FFFFFF;" points="212.648,303.898 207.904,288.646 202.212,288.646 209.802,313.049 209.802,326.596 
					215.494,326.596 215.494,313.049 223.085,288.646 217.392,288.646 				" />
					<path style="fill:#FFFFFF;"
						d="M215.494,327.071h-5.693c-0.262,0-0.474-0.212-0.474-0.474v-13.475l-7.569-24.335
					c-0.045-0.144-0.018-0.301,0.071-0.422c0.089-0.121,0.231-0.193,0.382-0.193h5.693c0.208,0,0.391,0.135,0.453,0.333
					l4.291,13.796l4.291-13.796c0.062-0.198,0.245-0.333,0.453-0.333h5.693c0.151,0,0.293,0.072,0.382,0.193
					c0.089,0.122,0.116,0.278,0.071,0.422l-7.569,24.335v13.475C215.969,326.858,215.756,327.071,215.494,327.071z M210.276,326.122
					h4.744v-13.073c0-0.048,0.007-0.095,0.021-0.141l7.399-23.788h-4.699l-4.64,14.919c-0.062,0.198-0.245,0.334-0.453,0.334
					c-0.208,0-0.391-0.135-0.453-0.334l-4.64-14.919h-4.699l7.399,23.788c0.014,0.046,0.021,0.093,0.021,0.141V326.122z" />
				</g>
			</g>
		</g>
	</g>
</svg>