<?xml version="1.0" encoding="utf-8"?>
<!-- Generator: Adobe Illustrator 27.5.0, SVG Export Plug-In . SVG Version: 6.00 Build 0)  -->
<svg version="1.1" id="Layer_1" xmlns="http://www.w3.org/2000/svg" xmlns:xlink="http://www.w3.org/1999/xlink" x="0px"
	y="0px" viewBox="0 0 400 400" style="enable-background:new 0 0 400 400;" xml:space="preserve">
	<g>
		<rect width="400" height="400" />

		<g>
			<g>
				<g>
					<path style="fill:#0091FF;" d="M283.502,302.772c-0.121,0-0.243-0.046-0.335-0.139l-1.756-1.756
					c-0.185-0.185-0.185-0.486,0-0.671c0.185-0.185,0.486-0.185,0.671,0l1.756,1.756c0.185,0.185,0.185,0.486,0,0.671
					C283.745,302.725,283.624,302.772,283.502,302.772z" />
					<path style="fill:#0091FF;" d="M280.742,300.012c-0.121,0-0.243-0.046-0.335-0.139l-7.692-7.692
					c-0.185-0.185-0.185-0.486,0-0.671s0.486-0.185,0.671,0l7.692,7.692c0.185,0.185,0.185,0.485,0,0.671
					C280.985,299.965,280.864,300.012,280.742,300.012z" />
					<path style="fill:#0091FF;" d="M271.863,291.132c-0.121,0-0.243-0.046-0.335-0.139l-2.012-2.012
					c-0.185-0.185-0.185-0.485,0-0.671s0.486-0.185,0.671,0l2.012,2.012c0.185,0.185,0.185,0.486,0,0.671
					C272.106,291.086,271.984,291.132,271.863,291.132z" />
					<path style="fill:#0091FF;" d="M281.995,305.059c-0.121,0-0.243-0.046-0.335-0.139l-4.499-4.499
					c-0.185-0.185-0.185-0.486,0-0.671c0.185-0.185,0.486-0.185,0.671,0l4.499,4.499c0.185,0.185,0.185,0.485,0,0.671
					C282.238,305.013,282.116,305.059,281.995,305.059z" />
					<path style="fill:#0091FF;" d="M276.425,299.49c-0.121,0-0.243-0.046-0.335-0.139l-8.076-8.076
					c-0.185-0.185-0.185-0.486,0-0.671c0.185-0.185,0.486-0.185,0.671,0l8.076,8.076c0.185,0.185,0.185,0.486,0,0.671
					C276.668,299.443,276.546,299.49,276.425,299.49z" />
					<path style="fill:#0091FF;" d="M280.555,307.414c-0.121,0-0.243-0.046-0.335-0.139l-0.524-0.524
					c-0.185-0.185-0.185-0.486,0-0.671c0.185-0.185,0.486-0.185,0.671,0l0.524,0.524c0.185,0.185,0.185,0.486,0,0.671
					C280.798,307.368,280.676,307.414,280.555,307.414z" />
					<path style="fill:#0091FF;" d="M278.775,305.634c-0.121,0-0.243-0.046-0.335-0.139l-9.254-9.253
					c-0.185-0.185-0.185-0.486,0-0.671c0.185-0.185,0.486-0.185,0.671,0l9.254,9.253c0.185,0.185,0.185,0.486,0,0.671
					C279.018,305.588,278.896,305.634,278.775,305.634z" />
					<path style="fill:#0091FF;" d="M268.498,295.357c-0.121,0-0.243-0.046-0.335-0.139l-1.651-1.651
					c-0.185-0.185-0.185-0.486,0-0.671s0.486-0.185,0.671,0l1.651,1.651c0.185,0.185,0.185,0.486,0,0.671
					C268.741,295.311,268.619,295.357,268.498,295.357z" />
					<path style="fill:#0091FF;" d="M279.003,309.658c-0.121,0-0.243-0.046-0.335-0.139l-5.105-5.106
					c-0.185-0.185-0.185-0.486,0-0.671s0.486-0.185,0.671,0l5.106,5.106c0.185,0.185,0.185,0.485,0,0.671
					C279.246,309.612,279.125,309.658,279.003,309.658z" />
					<path style="fill:#0091FF;" d="M272.826,303.48c-0.121,0-0.243-0.046-0.335-0.139l-7.469-7.469
					c-0.185-0.185-0.185-0.486,0-0.671s0.486-0.185,0.671,0l7.469,7.469c0.185,0.185,0.185,0.486,0,0.671
					C273.069,303.434,272.947,303.48,272.826,303.48z" />
					<path style="fill:#0091FF;" d="M277.501,311.951c-0.121,0-0.243-0.046-0.335-0.139l-10.057-10.058
					c-0.185-0.185-0.185-0.485,0-0.671s0.486-0.185,0.671,0l10.057,10.057c0.185,0.185,0.185,0.486,0,0.671
					C277.744,311.905,277.623,311.951,277.501,311.951z" />
					<path style="fill:#0091FF;"
						d="M266.38,300.83c-0.121,0-0.243-0.046-0.335-0.139l-2.525-2.525c-0.185-0.185-0.185-0.486,0-0.671
					c0.185-0.185,0.486-0.185,0.671,0l2.525,2.525c0.185,0.185,0.185,0.486,0,0.671C266.623,300.784,266.502,300.83,266.38,300.83z" />
					<path style="fill:#0091FF;" d="M275.987,314.232c-0.121,0-0.243-0.046-0.335-0.139l-4.574-4.574
					c-0.185-0.185-0.185-0.486,0-0.671c0.185-0.185,0.486-0.185,0.671,0l4.574,4.574c0.185,0.185,0.185,0.486,0,0.671
					C276.23,314.185,276.108,314.232,275.987,314.232z" />
					<path style="fill:#0091FF;" d="M270.418,308.662c-0.121,0-0.243-0.046-0.335-0.139l-8.077-8.077
					c-0.185-0.185-0.185-0.486,0-0.671c0.185-0.185,0.486-0.185,0.671,0l8.077,8.077c0.185,0.185,0.185,0.486,0,0.671
					C270.66,308.616,270.539,308.662,270.418,308.662z" />
					<path style="fill:#0091FF;" d="M274.498,316.538c-0.121,0-0.243-0.046-0.335-0.139l-1.672-1.672
					c-0.185-0.185-0.185-0.486,0-0.671c0.185-0.185,0.486-0.185,0.671,0l1.672,1.672c0.185,0.185,0.185,0.486,0,0.671
					C274.74,316.491,274.619,316.538,274.498,316.538z" />
					<path style="fill:#0091FF;" d="M271.693,313.733c-0.121,0-0.243-0.046-0.335-0.139l-10.842-10.842
					c-0.185-0.185-0.185-0.486,0-0.671c0.185-0.185,0.486-0.185,0.671,0l10.842,10.842c0.185,0.185,0.185,0.486,0,0.671
					C271.936,313.687,271.815,313.733,271.693,313.733z" />
					<path style="fill:#0091FF;" d="M273.01,318.845c-0.121,0-0.243-0.046-0.335-0.139l-3.489-3.489
					c-0.185-0.185-0.185-0.486,0-0.671c0.185-0.185,0.486-0.185,0.671,0l3.489,3.489c0.185,0.185,0.185,0.486,0,0.671
					C273.253,318.798,273.131,318.845,273.01,318.845z" />
					<path style="fill:#0091FF;" d="M268.517,314.352c-0.121,0-0.243-0.046-0.335-0.139l-9.153-9.153
					c-0.185-0.185-0.185-0.486,0-0.671c0.185-0.185,0.486-0.185,0.671,0l9.153,9.153c0.185,0.185,0.185,0.486,0,0.671
					C268.76,314.306,268.638,314.352,268.517,314.352z" />
					<path style="fill:#0091FF;" d="M271.51,321.134c-0.121,0-0.243-0.046-0.335-0.139l-1.093-1.092
					c-0.185-0.185-0.185-0.486,0-0.671c0.185-0.185,0.486-0.185,0.671,0l1.093,1.092c0.185,0.185,0.185,0.486,0,0.671
					C271.753,321.088,271.632,321.134,271.51,321.134z" />
					<path style="fill:#0091FF;" d="M269.521,319.145c-0.121,0-0.243-0.046-0.335-0.139l-9.081-9.081
					c-0.185-0.185-0.185-0.486,0-0.671c0.185-0.185,0.485-0.185,0.671,0l9.081,9.081c0.185,0.185,0.185,0.486,0,0.671
					C269.764,319.099,269.643,319.145,269.521,319.145z" />
					<path style="fill:#0091FF;" d="M259.364,308.988c-0.121,0-0.243-0.046-0.335-0.139l-1.528-1.528
					c-0.185-0.185-0.185-0.485,0-0.671c0.185-0.185,0.486-0.185,0.671,0l1.528,1.528c0.185,0.185,0.185,0.486,0,0.671
					C259.606,308.941,259.485,308.988,259.364,308.988z" />
					<path style="fill:#0091FF;" d="M269.992,323.411c-0.121,0-0.243-0.046-0.335-0.139l-6.137-6.137
					c-0.185-0.185-0.185-0.486,0-0.671c0.185-0.185,0.486-0.185,0.671,0l6.137,6.137c0.185,0.185,0.185,0.486,0,0.671
					C270.235,323.365,270.114,323.411,269.992,323.411z" />
					<path style="fill:#0091FF;" d="M262.782,316.201c-0.121,0-0.243-0.046-0.335-0.139l-6.436-6.436
					c-0.185-0.185-0.185-0.486,0-0.671c0.185-0.185,0.486-0.185,0.671,0l6.436,6.436c0.185,0.185,0.185,0.486,0,0.671
					C263.025,316.155,262.904,316.201,262.782,316.201z" />
					<path style="fill:#0091FF;" d="M264.673,321.887c-0.121,0-0.243-0.046-0.336-0.139l-6.531-6.531
					c-0.185-0.185-0.185-0.486,0-0.671c0.185-0.185,0.486-0.185,0.671,0l6.531,6.531c0.185,0.185,0.185,0.486,0,0.671
					C264.916,321.841,264.794,321.887,264.673,321.887z" />
					<path style="fill:#0091FF;" d="M256.741,313.955c-0.121,0-0.243-0.046-0.335-0.139l-1.885-1.885
					c-0.185-0.185-0.185-0.486,0-0.671c0.185-0.185,0.486-0.185,0.671,0l1.885,1.885c0.185,0.185,0.185,0.486,0,0.671
					C256.984,313.909,256.863,313.955,256.741,313.955z" />
				</g>
				<g>
					<path style="fill:#00DB2F;" d="M279.699,340.685c-0.121,0-0.243-0.046-0.335-0.139l-4.492-4.492
					c-0.185-0.185-0.185-0.486,0-0.671s0.486-0.185,0.671,0l4.492,4.492c0.185,0.185,0.185,0.485,0,0.671
					C279.941,340.639,279.82,340.685,279.699,340.685z" />
					<path style="fill:#00DB2F;" d="M274.148,335.134c-0.121,0-0.243-0.046-0.335-0.139l-9.651-9.651
					c-0.185-0.185-0.185-0.486,0-0.671s0.486-0.185,0.671,0l9.651,9.651c0.185,0.185,0.185,0.486,0,0.671
					C274.391,335.088,274.27,335.134,274.148,335.134z" />
					<path style="fill:#FF43D1;" d="M258.831,319.818c-0.121,0-0.243-0.046-0.335-0.139l-5.466-5.466
					c-0.185-0.185-0.185-0.486,0-0.671c0.185-0.185,0.486-0.185,0.671,0l5.466,5.466c0.185,0.185,0.185,0.486,0,0.671
					C259.074,319.772,258.953,319.818,258.831,319.818z" />
					<path style="fill:#FF43D1;" d="M275.946,340.728c-0.121,0-0.243-0.046-0.335-0.139l-9.099-9.099
					c-0.185-0.185-0.185-0.486,0-0.671s0.486-0.185,0.671,0l9.099,9.099c0.185,0.185,0.185,0.486,0,0.671
					C276.189,340.681,276.068,340.728,275.946,340.728z" />
					<path style="fill:#FF43D1;" d="M265.822,330.603c-0.121,0-0.243-0.046-0.335-0.139l-4.772-4.772
					c-0.185-0.185-0.185-0.486,0-0.671c0.185-0.185,0.486-0.185,0.671,0l4.772,4.772c0.185,0.185,0.185,0.486,0,0.671
					C266.064,330.556,265.943,330.603,265.822,330.603z" />
					<path style="fill:#FF43D1;" d="M257.464,322.246c-0.121,0-0.243-0.046-0.335-0.139l-4.288-4.288
					c-0.185-0.185-0.185-0.486,0-0.671c0.185-0.185,0.485-0.185,0.671,0l4.288,4.288c0.185,0.185,0.185,0.486,0,0.671
					C257.707,322.199,257.585,322.246,257.464,322.246z" />
					<path style="fill:#FF43D1;" d="M272.151,340.728c-0.121,0-0.243-0.046-0.335-0.139l-1.566-1.566
					c-0.185-0.185-0.185-0.486,0-0.671s0.486-0.185,0.671,0l1.566,1.566c0.185,0.185,0.185,0.486,0,0.671
					C272.394,340.681,272.273,340.728,272.151,340.728z" />
					<path style="fill:#FF43D1;" d="M269.223,337.799c-0.121,0-0.243-0.046-0.335-0.139l-13.002-13.002
					c-0.185-0.185-0.185-0.486,0-0.671c0.185-0.185,0.486-0.185,0.671,0l13.002,13.002c0.185,0.185,0.185,0.486,0,0.671
					C269.466,337.753,269.344,337.799,269.223,337.799z" />
					<path style="fill:#FF43D1;" d="M254.137,322.714c-0.121,0-0.243-0.046-0.335-0.139l-3.763-3.763
					c-0.185-0.185-0.185-0.486,0-0.671c0.185-0.185,0.486-0.185,0.671,0l3.763,3.763c0.185,0.185,0.185,0.486,0,0.671
					C254.38,322.668,254.259,322.714,254.137,322.714z" />
					<path style="fill:#FF43D1;" d="M268.356,340.728c-0.121,0-0.243-0.046-0.335-0.139l-7.139-7.139
					c-0.185-0.185-0.185-0.486,0-0.671c0.185-0.185,0.486-0.185,0.671,0l7.139,7.139c0.185,0.185,0.185,0.486,0,0.671
					C268.599,340.681,268.477,340.728,268.356,340.728z" />
					<path style="fill:#FF43D1;" d="M260.137,332.508c-0.121,0-0.243-0.046-0.335-0.139l-11.277-11.277
					c-0.185-0.185-0.185-0.486,0-0.671c0.185-0.185,0.486-0.185,0.671,0l11.277,11.277c0.185,0.185,0.185,0.486,0,0.671
					C260.38,332.462,260.258,332.508,260.137,332.508z" />
					<path style="fill:#FF43D1;" d="M264.561,340.728c-0.121,0-0.243-0.046-0.335-0.139l-10.125-10.125
					c-0.185-0.185-0.185-0.486,0-0.671c0.185-0.185,0.486-0.185,0.671,0l10.125,10.125c0.185,0.185,0.185,0.486,0,0.671
					C264.804,340.681,264.682,340.728,264.561,340.728z" />
					<path style="fill:#FF43D1;" d="M253.324,329.491c-0.121,0-0.243-0.046-0.335-0.139l-5.954-5.954
					c-0.185-0.185-0.185-0.486,0-0.671c0.185-0.185,0.486-0.185,0.671,0l5.954,5.954c0.185,0.185,0.185,0.486,0,0.671
					C253.567,329.444,253.446,329.491,253.324,329.491z" />
					<path style="fill:#FF43D1;" d="M260.766,340.728c-0.121,0-0.243-0.046-0.335-0.139l-2.928-2.928
					c-0.185-0.185-0.185-0.486,0-0.671c0.185-0.185,0.486-0.185,0.671,0l2.928,2.928c0.185,0.185,0.185,0.486,0,0.671
					C261.009,340.681,260.887,340.728,260.766,340.728z" />
					<path style="fill:#FF43D1;" d="M256.56,336.522c-0.121,0-0.243-0.046-0.335-0.139l-10.677-10.677
					c-0.185-0.185-0.185-0.486,0-0.671s0.486-0.185,0.671,0l10.677,10.677c0.185,0.185,0.185,0.486,0,0.671
					C256.803,336.475,256.681,336.522,256.56,336.522z" />
					<path style="fill:#FF43D1;" d="M256.977,340.728c-0.121,0-0.243-0.046-0.335-0.139l-0.631-0.631
					c-0.185-0.185-0.185-0.486,0-0.671c0.185-0.185,0.486-0.185,0.671,0l0.631,0.631c0.185,0.185,0.185,0.486,0,0.671
					C257.22,340.681,257.098,340.728,256.977,340.728z" />
					<path style="fill:#FF43D1;" d="M255.068,338.819c-0.121,0-0.243-0.046-0.335-0.139l-9.186-9.185
					c-0.185-0.185-0.185-0.486,0-0.671s0.486-0.185,0.671,0l9.186,9.185c0.185,0.185,0.185,0.486,0,0.671
					C255.311,338.772,255.189,338.819,255.068,338.819z" />
					<path style="fill:#FF43D1;" d="M244.951,328.702c-0.121,0-0.243-0.046-0.335-0.139l-2.253-2.253
					c-0.185-0.185-0.185-0.486,0-0.671c0.185-0.185,0.486-0.185,0.671,0l2.253,2.253c0.185,0.185,0.185,0.486,0,0.671
					C245.194,328.656,245.073,328.702,244.951,328.702z" />
					<path style="fill:#FF43D1;" d="M252.886,340.617c-0.121,0-0.243-0.046-0.335-0.139l-5.921-5.922
					c-0.185-0.185-0.185-0.485,0-0.671s0.486-0.185,0.671,0l5.921,5.921c0.185,0.185,0.185,0.486,0,0.671
					C253.129,340.571,253.008,340.617,252.886,340.617z" />
					<path style="fill:#FF43D1;" d="M245.882,333.613c-0.121,0-0.243-0.046-0.335-0.139l-6.554-6.554
					c-0.185-0.185-0.185-0.485,0-0.671c0.185-0.185,0.485-0.185,0.671,0l6.554,6.554c0.185,0.185,0.185,0.486,0,0.671
					C246.125,333.567,246.004,333.613,245.882,333.613z" />
					<path style="fill:#00DB2F;" d="M279.67,335.021c-0.121,0-0.243-0.046-0.335-0.139l-1.738-1.735
					c-0.185-0.185-0.186-0.486-0.001-0.671c0.185-0.185,0.486-0.186,0.671-0.001l1.738,1.735c0.185,0.185,0.186,0.486,0.001,0.671
					C279.913,334.974,279.792,335.021,279.67,335.021z" />
					<path style="fill:#00DB2F;" d="M276.896,332.253c-0.121,0-0.242-0.046-0.335-0.139l-7.805-7.788
					c-0.186-0.185-0.186-0.486-0.001-0.671c0.185-0.185,0.486-0.186,0.671-0.001l7.805,7.788c0.185,0.185,0.186,0.486,0.001,0.671
					C277.139,332.206,277.018,332.253,276.896,332.253z" />
					<path style="fill:#00DB2F;" d="M267.836,323.211c-0.121,0-0.243-0.046-0.335-0.139l-1.837-1.833
					c-0.185-0.185-0.186-0.486-0.001-0.671s0.486-0.186,0.671-0.001l1.837,1.833c0.186,0.185,0.186,0.486,0.001,0.671
					C268.079,323.164,267.957,323.211,267.836,323.211z" />
					<path style="fill:#00DB2F;" d="M279.67,337.799c-0.121,0-0.243-0.046-0.335-0.139l-0.494-0.493
					c-0.185-0.185-0.186-0.486-0.001-0.671c0.185-0.185,0.486-0.186,0.671-0.001l0.494,0.493c0.185,0.185,0.186,0.486,0.001,0.671
					C279.913,337.753,279.792,337.799,279.67,337.799z" />
					<path style="fill:#00DB2F;" d="M278.06,336.193c-0.121,0-0.242-0.046-0.335-0.139l-6.031-6.018
					c-0.186-0.185-0.186-0.486-0.001-0.671c0.185-0.186,0.485-0.186,0.671-0.001l6.031,6.018c0.185,0.185,0.186,0.486,0.001,0.671
					C278.303,336.146,278.182,336.193,278.06,336.193z" />
					<path style="fill:#00DB2F;" d="M270.834,328.981c-0.121,0-0.243-0.046-0.335-0.139l-4.835-4.825
					c-0.185-0.185-0.186-0.486-0.001-0.671s0.486-0.186,0.671-0.001l4.835,4.825c0.185,0.185,0.186,0.486,0.001,0.671
					C271.077,328.935,270.956,328.981,270.834,328.981z" />
				</g>
				<g>
					<path style="fill:#FF43D1;" d="M261.263,297.678c-0.121,0-0.243-0.046-0.335-0.139l-2.867-2.867
					c-0.185-0.185-0.185-0.485,0-0.671c0.185-0.185,0.485-0.185,0.671,0l2.867,2.867c0.185,0.185,0.185,0.486,0,0.671
					C261.505,297.632,261.384,297.678,261.263,297.678z" />
					<path style="fill:#FF43D1;" d="M255.53,295.741c-0.121,0-0.243-0.046-0.335-0.139l-0.924-0.924
					c-0.185-0.185-0.185-0.485,0-0.671s0.486-0.185,0.671,0l0.924,0.924c0.185,0.185,0.185,0.486,0,0.671
					C255.773,295.694,255.651,295.741,255.53,295.741z" />
					<path style="fill:#FF43D1;" d="M259.279,299.49c-0.121,0-0.243-0.046-0.335-0.139l-2.537-2.538
					c-0.185-0.185-0.185-0.486,0-0.671c0.185-0.185,0.486-0.185,0.671,0l2.537,2.537c0.185,0.185,0.185,0.486,0,0.671
					C259.521,299.443,259.4,299.49,259.279,299.49z" />
					<path style="fill:#00DB2F;" d="M253.585,297.591c-0.121,0-0.243-0.046-0.335-0.139l-2.836-2.836
					c-0.185-0.185-0.185-0.486,0-0.671c0.185-0.185,0.485-0.185,0.671,0l2.836,2.836c0.185,0.185,0.185,0.486,0,0.671
					C253.828,297.545,253.707,297.591,253.585,297.591z" />
					<path style="fill:#00DB2F;" d="M257.603,301.609c-0.121,0-0.243-0.046-0.335-0.139l-2.963-2.963
					c-0.185-0.185-0.185-0.486,0-0.671c0.185-0.185,0.486-0.185,0.671,0l2.963,2.963c0.185,0.185,0.185,0.486,0,0.671
					C257.846,301.563,257.725,301.609,257.603,301.609z" />
					<path style="fill:#00DB2F;" d="M256.574,304.375c-0.121,0-0.243-0.046-0.335-0.139l-9.558-9.558
					c-0.185-0.185-0.185-0.485,0-0.671s0.486-0.185,0.671,0l9.558,9.558c0.185,0.185,0.185,0.486,0,0.671
					C256.816,304.328,256.695,304.375,256.574,304.375z" />
					<path style="fill:#00DB2F;" d="M245.557,297.153c-0.121,0-0.243-0.046-0.335-0.139l-2.336-2.336
					c-0.185-0.185-0.185-0.485,0-0.671c0.185-0.185,0.486-0.185,0.671,0l2.336,2.336c0.185,0.185,0.185,0.485,0,0.671
					C245.8,297.107,245.678,297.153,245.557,297.153z" />
					<path style="fill:#00DB2F;" d="M250.709,302.306c-0.121,0-0.243-0.046-0.335-0.139l-3.744-3.744
					c-0.185-0.185-0.185-0.486,0-0.671s0.486-0.185,0.671,0l3.744,3.744c0.185,0.185,0.185,0.486,0,0.671
					C250.952,302.259,250.831,302.306,250.709,302.306z" />
					<path style="fill:#00DB2F;" d="M255.294,306.89c-0.121,0-0.243-0.046-0.335-0.139l-3.418-3.418
					c-0.185-0.185-0.185-0.486,0-0.671c0.185-0.185,0.486-0.185,0.671,0l3.418,3.418c0.185,0.185,0.185,0.486,0,0.671
					C255.537,306.844,255.415,306.89,255.294,306.89z" />
				</g>
				<g>
					<path style="fill:#FFFFFF;" d="M243.229,288.646v5.693h17.201l-21.126,32.258c1.023,0,25.628,0,26.695,0v-5.693h-17.274
					l21.126-32.258C268.873,288.646,244.298,288.646,243.229,288.646z" />
					<path style="fill:#FFFFFF;" d="M265.999,327.071h-26.695c-0.174,0-0.334-0.096-0.417-0.249c-0.083-0.153-0.075-0.34,0.02-0.486
					l20.645-31.524h-16.324c-0.262,0-0.474-0.212-0.474-0.474v-5.693c0-0.262,0.212-0.474,0.474-0.474h26.622
					c0.174,0,0.335,0.096,0.417,0.249c0.083,0.153,0.075,0.34-0.02,0.486l-20.645,31.524h16.396c0.262,0,0.474,0.212,0.474,0.474
					v5.693C266.474,326.858,266.261,327.071,265.999,327.071z M240.182,326.122h25.342v-4.744h-16.8
					c-0.174,0-0.334-0.096-0.417-0.249c-0.083-0.153-0.075-0.34,0.02-0.486l20.645-31.524h-25.27v4.744h16.727
					c0.174,0,0.335,0.096,0.417,0.249c0.083,0.153,0.075,0.34-0.02,0.486L240.182,326.122z" />
				</g>
			</g>

			<!-- Z -->

			
		</g>
	</g>
</svg>