<?xml version="1.0" encoding="utf-8"?>
<!-- Generator: Adobe Illustrator 27.5.0, SVG Export Plug-In . SVG Version: 6.00 Build 0)  -->
<svg version="1.1" id="Layer_1" xmlns="http://www.w3.org/2000/svg" xmlns:xlink="http://www.w3.org/1999/xlink" x="0px"
	y="0px" viewBox="0 0 400 400" style="enable-background:new 0 0 400 400;" xml:space="preserve">
	<g>
		<rect width="400" height="400" />

		<g>
			<g>
				<g>
					<path style="fill:#0091FF;" d="M283.502,302.772c-0.121,0-0.243-0.046-0.335-0.139l-1.756-1.756
					c-0.185-0.185-0.185-0.486,0-0.671c0.185-0.185,0.486-0.185,0.671,0l1.756,1.756c0.185,0.185,0.185,0.486,0,0.671
					C283.745,302.725,283.624,302.772,283.502,302.772z" />
					<path style="fill:#0091FF;" d="M280.742,300.012c-0.121,0-0.243-0.046-0.335-0.139l-7.692-7.692
					c-0.185-0.185-0.185-0.486,0-0.671s0.486-0.185,0.671,0l7.692,7.692c0.185,0.185,0.185,0.485,0,0.671
					C280.985,299.965,280.864,300.012,280.742,300.012z" />
					<path style="fill:#0091FF;" d="M271.863,291.132c-0.121,0-0.243-0.046-0.335-0.139l-2.012-2.012
					c-0.185-0.185-0.185-0.485,0-0.671s0.486-0.185,0.671,0l2.012,2.012c0.185,0.185,0.185,0.486,0,0.671
					C272.106,291.086,271.984,291.132,271.863,291.132z" />
					<path style="fill:#0091FF;" d="M281.995,305.059c-0.121,0-0.243-0.046-0.335-0.139l-4.499-4.499
					c-0.185-0.185-0.185-0.486,0-0.671c0.185-0.185,0.486-0.185,0.671,0l4.499,4.499c0.185,0.185,0.185,0.485,0,0.671
					C282.238,305.013,282.116,305.059,281.995,305.059z" />
					<path style="fill:#0091FF;" d="M276.425,299.49c-0.121,0-0.243-0.046-0.335-0.139l-8.076-8.076
					c-0.185-0.185-0.185-0.486,0-0.671c0.185-0.185,0.486-0.185,0.671,0l8.076,8.076c0.185,0.185,0.185,0.486,0,0.671
					C276.668,299.443,276.546,299.49,276.425,299.49z" />
					<path style="fill:#0091FF;" d="M280.555,307.414c-0.121,0-0.243-0.046-0.335-0.139l-0.524-0.524
					c-0.185-0.185-0.185-0.486,0-0.671c0.185-0.185,0.486-0.185,0.671,0l0.524,0.524c0.185,0.185,0.185,0.486,0,0.671
					C280.798,307.368,280.676,307.414,280.555,307.414z" />
					<path style="fill:#0091FF;" d="M278.775,305.634c-0.121,0-0.243-0.046-0.335-0.139l-9.254-9.253
					c-0.185-0.185-0.185-0.486,0-0.671c0.185-0.185,0.486-0.185,0.671,0l9.254,9.253c0.185,0.185,0.185,0.486,0,0.671
					C279.018,305.588,278.896,305.634,278.775,305.634z" />
					<path style="fill:#0091FF;" d="M268.498,295.357c-0.121,0-0.243-0.046-0.335-0.139l-1.651-1.651
					c-0.185-0.185-0.185-0.486,0-0.671s0.486-0.185,0.671,0l1.651,1.651c0.185,0.185,0.185,0.486,0,0.671
					C268.741,295.311,268.619,295.357,268.498,295.357z" />
					<path style="fill:#0091FF;" d="M279.003,309.658c-0.121,0-0.243-0.046-0.335-0.139l-5.105-5.106
					c-0.185-0.185-0.185-0.486,0-0.671s0.486-0.185,0.671,0l5.106,5.106c0.185,0.185,0.185,0.485,0,0.671
					C279.246,309.612,279.125,309.658,279.003,309.658z" />
					<path style="fill:#0091FF;" d="M272.826,303.48c-0.121,0-0.243-0.046-0.335-0.139l-7.469-7.469
					c-0.185-0.185-0.185-0.486,0-0.671s0.486-0.185,0.671,0l7.469,7.469c0.185,0.185,0.185,0.486,0,0.671
					C273.069,303.434,272.947,303.48,272.826,303.48z" />
					<path style="fill:#0091FF;" d="M277.501,311.951c-0.121,0-0.243-0.046-0.335-0.139l-10.057-10.058
					c-0.185-0.185-0.185-0.485,0-0.671s0.486-0.185,0.671,0l10.057,10.057c0.185,0.185,0.185,0.486,0,0.671
					C277.744,311.905,277.623,311.951,277.501,311.951z" />
					<path style="fill:#0091FF;"
						d="M266.38,300.83c-0.121,0-0.243-0.046-0.335-0.139l-2.525-2.525c-0.185-0.185-0.185-0.486,0-0.671
					c0.185-0.185,0.486-0.185,0.671,0l2.525,2.525c0.185,0.185,0.185,0.486,0,0.671C266.623,300.784,266.502,300.83,266.38,300.83z" />
					<path style="fill:#0091FF;" d="M275.987,314.232c-0.121,0-0.243-0.046-0.335-0.139l-4.574-4.574
					c-0.185-0.185-0.185-0.486,0-0.671c0.185-0.185,0.486-0.185,0.671,0l4.574,4.574c0.185,0.185,0.185,0.486,0,0.671
					C276.23,314.185,276.108,314.232,275.987,314.232z" />
					<path style="fill:#0091FF;" d="M270.418,308.662c-0.121,0-0.243-0.046-0.335-0.139l-8.077-8.077
					c-0.185-0.185-0.185-0.486,0-0.671c0.185-0.185,0.486-0.185,0.671,0l8.077,8.077c0.185,0.185,0.185,0.486,0,0.671
					C270.66,308.616,270.539,308.662,270.418,308.662z" />
					<path style="fill:#0091FF;" d="M274.498,316.538c-0.121,0-0.243-0.046-0.335-0.139l-1.672-1.672
					c-0.185-0.185-0.185-0.486,0-0.671c0.185-0.185,0.486-0.185,0.671,0l1.672,1.672c0.185,0.185,0.185,0.486,0,0.671
					C274.74,316.491,274.619,316.538,274.498,316.538z" />
					<path style="fill:#0091FF;" d="M271.693,313.733c-0.121,0-0.243-0.046-0.335-0.139l-10.842-10.842
					c-0.185-0.185-0.185-0.486,0-0.671c0.185-0.185,0.486-0.185,0.671,0l10.842,10.842c0.185,0.185,0.185,0.486,0,0.671
					C271.936,313.687,271.815,313.733,271.693,313.733z" />
					<path style="fill:#0091FF;" d="M273.01,318.845c-0.121,0-0.243-0.046-0.335-0.139l-3.489-3.489
					c-0.185-0.185-0.185-0.486,0-0.671c0.185-0.185,0.486-0.185,0.671,0l3.489,3.489c0.185,0.185,0.185,0.486,0,0.671
					C273.253,318.798,273.131,318.845,273.01,318.845z" />
					<path style="fill:#0091FF;" d="M268.517,314.352c-0.121,0-0.243-0.046-0.335-0.139l-9.153-9.153
					c-0.185-0.185-0.185-0.486,0-0.671c0.185-0.185,0.486-0.185,0.671,0l9.153,9.153c0.185,0.185,0.185,0.486,0,0.671
					C268.76,314.306,268.638,314.352,268.517,314.352z" />
					<path style="fill:#0091FF;" d="M271.51,321.134c-0.121,0-0.243-0.046-0.335-0.139l-1.093-1.092
					c-0.185-0.185-0.185-0.486,0-0.671c0.185-0.185,0.486-0.185,0.671,0l1.093,1.092c0.185,0.185,0.185,0.486,0,0.671
					C271.753,321.088,271.632,321.134,271.51,321.134z" />
					<path style="fill:#0091FF;" d="M269.521,319.145c-0.121,0-0.243-0.046-0.335-0.139l-9.081-9.081
					c-0.185-0.185-0.185-0.486,0-0.671c0.185-0.185,0.485-0.185,0.671,0l9.081,9.081c0.185,0.185,0.185,0.486,0,0.671
					C269.764,319.099,269.643,319.145,269.521,319.145z" />
					<path style="fill:#0091FF;" d="M259.364,308.988c-0.121,0-0.243-0.046-0.335-0.139l-1.528-1.528
					c-0.185-0.185-0.185-0.485,0-0.671c0.185-0.185,0.486-0.185,0.671,0l1.528,1.528c0.185,0.185,0.185,0.486,0,0.671
					C259.606,308.941,259.485,308.988,259.364,308.988z" />
					<path style="fill:#0091FF;" d="M269.992,323.411c-0.121,0-0.243-0.046-0.335-0.139l-6.137-6.137
					c-0.185-0.185-0.185-0.486,0-0.671c0.185-0.185,0.486-0.185,0.671,0l6.137,6.137c0.185,0.185,0.185,0.486,0,0.671
					C270.235,323.365,270.114,323.411,269.992,323.411z" />
					<path style="fill:#0091FF;" d="M262.782,316.201c-0.121,0-0.243-0.046-0.335-0.139l-6.436-6.436
					c-0.185-0.185-0.185-0.486,0-0.671c0.185-0.185,0.486-0.185,0.671,0l6.436,6.436c0.185,0.185,0.185,0.486,0,0.671
					C263.025,316.155,262.904,316.201,262.782,316.201z" />
					<path style="fill:#0091FF;" d="M264.673,321.887c-0.121,0-0.243-0.046-0.336-0.139l-6.531-6.531
					c-0.185-0.185-0.185-0.486,0-0.671c0.185-0.185,0.486-0.185,0.671,0l6.531,6.531c0.185,0.185,0.185,0.486,0,0.671
					C264.916,321.841,264.794,321.887,264.673,321.887z" />
					<path style="fill:#0091FF;" d="M256.741,313.955c-0.121,0-0.243-0.046-0.335-0.139l-1.885-1.885
					c-0.185-0.185-0.185-0.486,0-0.671c0.185-0.185,0.486-0.185,0.671,0l1.885,1.885c0.185,0.185,0.185,0.486,0,0.671
					C256.984,313.909,256.863,313.955,256.741,313.955z" />
				</g>
				<g>
					<path style="fill:#00DB2F;" d="M279.699,340.685c-0.121,0-0.243-0.046-0.335-0.139l-4.492-4.492
					c-0.185-0.185-0.185-0.486,0-0.671s0.486-0.185,0.671,0l4.492,4.492c0.185,0.185,0.185,0.485,0,0.671
					C279.941,340.639,279.82,340.685,279.699,340.685z" />
					<path style="fill:#00DB2F;" d="M274.148,335.134c-0.121,0-0.243-0.046-0.335-0.139l-9.651-9.651
					c-0.185-0.185-0.185-0.486,0-0.671s0.486-0.185,0.671,0l9.651,9.651c0.185,0.185,0.185,0.486,0,0.671
					C274.391,335.088,274.27,335.134,274.148,335.134z" />
					<path style="fill:#FF43D1;" d="M258.831,319.818c-0.121,0-0.243-0.046-0.335-0.139l-5.466-5.466
					c-0.185-0.185-0.185-0.486,0-0.671c0.185-0.185,0.486-0.185,0.671,0l5.466,5.466c0.185,0.185,0.185,0.486,0,0.671
					C259.074,319.772,258.953,319.818,258.831,319.818z" />
					<path style="fill:#FF43D1;" d="M275.946,340.728c-0.121,0-0.243-0.046-0.335-0.139l-9.099-9.099
					c-0.185-0.185-0.185-0.486,0-0.671s0.486-0.185,0.671,0l9.099,9.099c0.185,0.185,0.185,0.486,0,0.671
					C276.189,340.681,276.068,340.728,275.946,340.728z" />
					<path style="fill:#FF43D1;" d="M265.822,330.603c-0.121,0-0.243-0.046-0.335-0.139l-4.772-4.772
					c-0.185-0.185-0.185-0.486,0-0.671c0.185-0.185,0.486-0.185,0.671,0l4.772,4.772c0.185,0.185,0.185,0.486,0,0.671
					C266.064,330.556,265.943,330.603,265.822,330.603z" />
					<path style="fill:#FF43D1;" d="M257.464,322.246c-0.121,0-0.243-0.046-0.335-0.139l-4.288-4.288
					c-0.185-0.185-0.185-0.486,0-0.671c0.185-0.185,0.485-0.185,0.671,0l4.288,4.288c0.185,0.185,0.185,0.486,0,0.671
					C257.707,322.199,257.585,322.246,257.464,322.246z" />
					<path style="fill:#FF43D1;" d="M272.151,340.728c-0.121,0-0.243-0.046-0.335-0.139l-1.566-1.566
					c-0.185-0.185-0.185-0.486,0-0.671s0.486-0.185,0.671,0l1.566,1.566c0.185,0.185,0.185,0.486,0,0.671
					C272.394,340.681,272.273,340.728,272.151,340.728z" />
					<path style="fill:#FF43D1;" d="M269.223,337.799c-0.121,0-0.243-0.046-0.335-0.139l-13.002-13.002
					c-0.185-0.185-0.185-0.486,0-0.671c0.185-0.185,0.486-0.185,0.671,0l13.002,13.002c0.185,0.185,0.185,0.486,0,0.671
					C269.466,337.753,269.344,337.799,269.223,337.799z" />
					<path style="fill:#FF43D1;" d="M254.137,322.714c-0.121,0-0.243-0.046-0.335-0.139l-3.763-3.763
					c-0.185-0.185-0.185-0.486,0-0.671c0.185-0.185,0.486-0.185,0.671,0l3.763,3.763c0.185,0.185,0.185,0.486,0,0.671
					C254.38,322.668,254.259,322.714,254.137,322.714z" />
					<path style="fill:#FF43D1;" d="M268.356,340.728c-0.121,0-0.243-0.046-0.335-0.139l-7.139-7.139
					c-0.185-0.185-0.185-0.486,0-0.671c0.185-0.185,0.486-0.185,0.671,0l7.139,7.139c0.185,0.185,0.185,0.486,0,0.671
					C268.599,340.681,268.477,340.728,268.356,340.728z" />
					<path style="fill:#FF43D1;" d="M260.137,332.508c-0.121,0-0.243-0.046-0.335-0.139l-11.277-11.277
					c-0.185-0.185-0.185-0.486,0-0.671c0.185-0.185,0.486-0.185,0.671,0l11.277,11.277c0.185,0.185,0.185,0.486,0,0.671
					C260.38,332.462,260.258,332.508,260.137,332.508z" />
					<path style="fill:#FF43D1;" d="M264.561,340.728c-0.121,0-0.243-0.046-0.335-0.139l-10.125-10.125
					c-0.185-0.185-0.185-0.486,0-0.671c0.185-0.185,0.486-0.185,0.671,0l10.125,10.125c0.185,0.185,0.185,0.486,0,0.671
					C264.804,340.681,264.682,340.728,264.561,340.728z" />
					<path style="fill:#FF43D1;" d="M253.324,329.491c-0.121,0-0.243-0.046-0.335-0.139l-5.954-5.954
					c-0.185-0.185-0.185-0.486,0-0.671c0.185-0.185,0.486-0.185,0.671,0l5.954,5.954c0.185,0.185,0.185,0.486,0,0.671
					C253.567,329.444,253.446,329.491,253.324,329.491z" />
					<path style="fill:#FF43D1;" d="M260.766,340.728c-0.121,0-0.243-0.046-0.335-0.139l-2.928-2.928
					c-0.185-0.185-0.185-0.486,0-0.671c0.185-0.185,0.486-0.185,0.671,0l2.928,2.928c0.185,0.185,0.185,0.486,0,0.671
					C261.009,340.681,260.887,340.728,260.766,340.728z" />
					<path style="fill:#FF43D1;" d="M256.56,336.522c-0.121,0-0.243-0.046-0.335-0.139l-10.677-10.677
					c-0.185-0.185-0.185-0.486,0-0.671s0.486-0.185,0.671,0l10.677,10.677c0.185,0.185,0.185,0.486,0,0.671
					C256.803,336.475,256.681,336.522,256.56,336.522z" />
					<path style="fill:#FF43D1;" d="M256.977,340.728c-0.121,0-0.243-0.046-0.335-0.139l-0.631-0.631
					c-0.185-0.185-0.185-0.486,0-0.671c0.185-0.185,0.486-0.185,0.671,0l0.631,0.631c0.185,0.185,0.185,0.486,0,0.671
					C257.22,340.681,257.098,340.728,256.977,340.728z" />
					<path style="fill:#FF43D1;" d="M255.068,338.819c-0.121,0-0.243-0.046-0.335-0.139l-9.186-9.185
					c-0.185-0.185-0.185-0.486,0-0.671s0.486-0.185,0.671,0l9.186,9.185c0.185,0.185,0.185,0.486,0,0.671
					C255.311,338.772,255.189,338.819,255.068,338.819z" />
					<path style="fill:#FF43D1;" d="M244.951,328.702c-0.121,0-0.243-0.046-0.335-0.139l-2.253-2.253
					c-0.185-0.185-0.185-0.486,0-0.671c0.185-0.185,0.486-0.185,0.671,0l2.253,2.253c0.185,0.185,0.185,0.486,0,0.671
					C245.194,328.656,245.073,328.702,244.951,328.702z" />
					<path style="fill:#FF43D1;" d="M252.886,340.617c-0.121,0-0.243-0.046-0.335-0.139l-5.921-5.922
					c-0.185-0.185-0.185-0.485,0-0.671s0.486-0.185,0.671,0l5.921,5.921c0.185,0.185,0.185,0.486,0,0.671
					C253.129,340.571,253.008,340.617,252.886,340.617z" />
					<path style="fill:#FF43D1;" d="M245.882,333.613c-0.121,0-0.243-0.046-0.335-0.139l-6.554-6.554
					c-0.185-0.185-0.185-0.485,0-0.671c0.185-0.185,0.485-0.185,0.671,0l6.554,6.554c0.185,0.185,0.185,0.486,0,0.671
					C246.125,333.567,246.004,333.613,245.882,333.613z" />
					<path style="fill:#00DB2F;" d="M279.67,335.021c-0.121,0-0.243-0.046-0.335-0.139l-1.738-1.735
					c-0.185-0.185-0.186-0.486-0.001-0.671c0.185-0.185,0.486-0.186,0.671-0.001l1.738,1.735c0.185,0.185,0.186,0.486,0.001,0.671
					C279.913,334.974,279.792,335.021,279.67,335.021z" />
					<path style="fill:#00DB2F;" d="M276.896,332.253c-0.121,0-0.242-0.046-0.335-0.139l-7.805-7.788
					c-0.186-0.185-0.186-0.486-0.001-0.671c0.185-0.185,0.486-0.186,0.671-0.001l7.805,7.788c0.185,0.185,0.186,0.486,0.001,0.671
					C277.139,332.206,277.018,332.253,276.896,332.253z" />
					<path style="fill:#00DB2F;" d="M267.836,323.211c-0.121,0-0.243-0.046-0.335-0.139l-1.837-1.833
					c-0.185-0.185-0.186-0.486-0.001-0.671s0.486-0.186,0.671-0.001l1.837,1.833c0.186,0.185,0.186,0.486,0.001,0.671
					C268.079,323.164,267.957,323.211,267.836,323.211z" />
					<path style="fill:#00DB2F;" d="M279.67,337.799c-0.121,0-0.243-0.046-0.335-0.139l-0.494-0.493
					c-0.185-0.185-0.186-0.486-0.001-0.671c0.185-0.185,0.486-0.186,0.671-0.001l0.494,0.493c0.185,0.185,0.186,0.486,0.001,0.671
					C279.913,337.753,279.792,337.799,279.67,337.799z" />
					<path style="fill:#00DB2F;" d="M278.06,336.193c-0.121,0-0.242-0.046-0.335-0.139l-6.031-6.018
					c-0.186-0.185-0.186-0.486-0.001-0.671c0.185-0.186,0.485-0.186,0.671-0.001l6.031,6.018c0.185,0.185,0.186,0.486,0.001,0.671
					C278.303,336.146,278.182,336.193,278.06,336.193z" />
					<path style="fill:#00DB2F;" d="M270.834,328.981c-0.121,0-0.243-0.046-0.335-0.139l-4.835-4.825
					c-0.185-0.185-0.186-0.486-0.001-0.671s0.486-0.186,0.671-0.001l4.835,4.825c0.185,0.185,0.186,0.486,0.001,0.671
					C271.077,328.935,270.956,328.981,270.834,328.981z" />
				</g>
				<g>
					<path style="fill:#FF43D1;" d="M261.263,297.678c-0.121,0-0.243-0.046-0.335-0.139l-2.867-2.867
					c-0.185-0.185-0.185-0.485,0-0.671c0.185-0.185,0.485-0.185,0.671,0l2.867,2.867c0.185,0.185,0.185,0.486,0,0.671
					C261.505,297.632,261.384,297.678,261.263,297.678z" />
					<path style="fill:#FF43D1;" d="M255.53,295.741c-0.121,0-0.243-0.046-0.335-0.139l-0.924-0.924
					c-0.185-0.185-0.185-0.485,0-0.671s0.486-0.185,0.671,0l0.924,0.924c0.185,0.185,0.185,0.486,0,0.671
					C255.773,295.694,255.651,295.741,255.53,295.741z" />
					<path style="fill:#FF43D1;" d="M259.279,299.49c-0.121,0-0.243-0.046-0.335-0.139l-2.537-2.538
					c-0.185-0.185-0.185-0.486,0-0.671c0.185-0.185,0.486-0.185,0.671,0l2.537,2.537c0.185,0.185,0.185,0.486,0,0.671
					C259.521,299.443,259.4,299.49,259.279,299.49z" />
					<path style="fill:#00DB2F;" d="M253.585,297.591c-0.121,0-0.243-0.046-0.335-0.139l-2.836-2.836
					c-0.185-0.185-0.185-0.486,0-0.671c0.185-0.185,0.485-0.185,0.671,0l2.836,2.836c0.185,0.185,0.185,0.486,0,0.671
					C253.828,297.545,253.707,297.591,253.585,297.591z" />
					<path style="fill:#00DB2F;" d="M257.603,301.609c-0.121,0-0.243-0.046-0.335-0.139l-2.963-2.963
					c-0.185-0.185-0.185-0.486,0-0.671c0.185-0.185,0.486-0.185,0.671,0l2.963,2.963c0.185,0.185,0.185,0.486,0,0.671
					C257.846,301.563,257.725,301.609,257.603,301.609z" />
					<path style="fill:#00DB2F;" d="M256.574,304.375c-0.121,0-0.243-0.046-0.335-0.139l-9.558-9.558
					c-0.185-0.185-0.185-0.485,0-0.671s0.486-0.185,0.671,0l9.558,9.558c0.185,0.185,0.185,0.486,0,0.671
					C256.816,304.328,256.695,304.375,256.574,304.375z" />
					<path style="fill:#00DB2F;" d="M245.557,297.153c-0.121,0-0.243-0.046-0.335-0.139l-2.336-2.336
					c-0.185-0.185-0.185-0.485,0-0.671c0.185-0.185,0.486-0.185,0.671,0l2.336,2.336c0.185,0.185,0.185,0.485,0,0.671
					C245.8,297.107,245.678,297.153,245.557,297.153z" />
					<path style="fill:#00DB2F;" d="M250.709,302.306c-0.121,0-0.243-0.046-0.335-0.139l-3.744-3.744
					c-0.185-0.185-0.185-0.486,0-0.671s0.486-0.185,0.671,0l3.744,3.744c0.185,0.185,0.185,0.486,0,0.671
					C250.952,302.259,250.831,302.306,250.709,302.306z" />
					<path style="fill:#00DB2F;" d="M255.294,306.89c-0.121,0-0.243-0.046-0.335-0.139l-3.418-3.418
					c-0.185-0.185-0.185-0.486,0-0.671c0.185-0.185,0.486-0.185,0.671,0l3.418,3.418c0.185,0.185,0.185,0.486,0,0.671
					C255.537,306.844,255.415,306.89,255.294,306.89z" />
				</g>
				<g>
					<path style="fill:#FFFFFF;" d="M243.229,288.646v5.693h17.201l-21.126,32.258c1.023,0,25.628,0,26.695,0v-5.693h-17.274
					l21.126-32.258C268.873,288.646,244.298,288.646,243.229,288.646z" />
					<path style="fill:#FFFFFF;" d="M265.999,327.071h-26.695c-0.174,0-0.334-0.096-0.417-0.249c-0.083-0.153-0.075-0.34,0.02-0.486
					l20.645-31.524h-16.324c-0.262,0-0.474-0.212-0.474-0.474v-5.693c0-0.262,0.212-0.474,0.474-0.474h26.622
					c0.174,0,0.335,0.096,0.417,0.249c0.083,0.153,0.075,0.34-0.02,0.486l-20.645,31.524h16.396c0.262,0,0.474,0.212,0.474,0.474
					v5.693C266.474,326.858,266.261,327.071,265.999,327.071z M240.182,326.122h25.342v-4.744h-16.8
					c-0.174,0-0.334-0.096-0.417-0.249c-0.083-0.153-0.075-0.34,0.02-0.486l20.645-31.524h-25.27v4.744h16.727
					c0.174,0,0.335,0.096,0.417,0.249c0.083,0.153,0.075,0.34-0.02,0.486L240.182,326.122z" />
				</g>
			</g>

			<!-- Z -->


			<g>
				<g>
					<path style="fill:#0091FF;" d="M184.207,338.386c-0.121,0-0.243-0.046-0.335-0.139l-2.471-2.471
					c-0.185-0.185-0.185-0.486,0-0.671s0.486-0.185,0.671,0l2.471,2.471c0.185,0.185,0.185,0.486,0,0.671
					C184.45,338.34,184.328,338.386,184.207,338.386z" />
					<path style="fill:#0091FF;" d="M180.597,334.776c-0.121,0-0.243-0.046-0.335-0.139l-10.045-10.045
					c-0.185-0.185-0.185-0.486,0-0.671c0.185-0.185,0.485-0.185,0.671,0l10.045,10.045c0.185,0.185,0.185,0.486,0,0.671
					C180.84,334.73,180.719,334.776,180.597,334.776z" />
					<path style="fill:#0091FF;" d="M185.062,336.164c-0.121,0-0.243-0.046-0.335-0.139l-0.936-0.936
					c-0.185-0.185-0.185-0.486,0-0.671c0.185-0.185,0.486-0.185,0.671,0l0.936,0.936c0.185,0.185,0.185,0.486,0,0.671
					C185.304,336.118,185.183,336.164,185.062,336.164z" />
					<path style="fill:#0091FF;" d="M183.286,334.389c-0.121,0-0.243-0.046-0.335-0.139l-4.51-4.511
					c-0.185-0.185-0.185-0.485,0-0.671c0.185-0.185,0.486-0.185,0.671,0l4.51,4.511c0.185,0.185,0.185,0.486,0,0.671
					C183.529,334.342,183.407,334.389,183.286,334.389z" />
					<path style="fill:#0091FF;" d="M177.928,329.03c-0.121,0-0.243-0.046-0.335-0.139l-6.506-6.506
					c-0.185-0.185-0.185-0.486,0-0.671c0.185-0.185,0.486-0.185,0.671,0l6.506,6.506c0.185,0.185,0.185,0.486,0,0.671
					C178.171,328.984,178.049,329.03,177.928,329.03z" />
					<path style="fill:#0091FF;" d="M196.248,308.199c-0.121,0-0.243-0.046-0.335-0.139l-7.256-7.256
					c-0.185-0.185-0.185-0.486,0-0.671s0.486-0.185,0.671,0l7.256,7.256c0.185,0.185,0.185,0.486,0,0.671
					C196.491,308.152,196.369,308.199,196.248,308.199z" />
					<path style="fill:#0091FF;" d="M187.884,299.835c-0.121,0-0.243-0.046-0.335-0.139l-6.148-6.148
					c-0.185-0.185-0.185-0.486,0-0.671s0.486-0.185,0.671,0l6.148,6.148c0.185,0.185,0.185,0.486,0,0.671
					C188.127,299.788,188.005,299.835,187.884,299.835z" />
					<path style="fill:#0091FF;" d="M197.332,305.488c-0.121,0-0.243-0.046-0.335-0.139l-2.945-2.945
					c-0.185-0.185-0.185-0.486,0-0.671s0.485-0.185,0.671,0l2.945,2.945c0.185,0.185,0.185,0.486,0,0.671
					C197.575,305.441,197.454,305.488,197.332,305.488z" />
					<path style="fill:#0091FF;" d="M193.315,301.471c-0.121,0-0.243-0.046-0.335-0.139l-10.862-10.862
					c-0.185-0.185-0.185-0.486,0-0.671c0.185-0.185,0.486-0.185,0.671,0l10.862,10.862c0.185,0.185,0.185,0.486,0,0.671
					C193.558,301.424,193.437,301.471,193.315,301.471z" />
					<path style="fill:#0091FF;" d="M198.417,302.777c-0.121,0-0.243-0.046-0.335-0.139l-8.524-8.524
					c-0.185-0.185-0.185-0.486,0-0.671c0.185-0.185,0.485-0.185,0.671,0l8.524,8.524c0.185,0.185,0.185,0.486,0,0.671
					C198.659,302.73,198.538,302.777,198.417,302.777z" />
					<path style="fill:#0091FF;" d="M188.709,293.069c-0.121,0-0.243-0.046-0.335-0.139l-3.949-3.949
					c-0.185-0.185-0.185-0.486,0-0.671c0.185-0.185,0.486-0.185,0.671,0l3.949,3.949c0.185,0.185,0.185,0.486,0,0.671
					C188.951,293.023,188.83,293.069,188.709,293.069z" />
					<path style="fill:#0091FF;" d="M195.164,310.909c-0.121,0-0.243-0.046-0.335-0.139l-2.711-2.711
					c-0.185-0.185-0.185-0.486,0-0.671s0.486-0.185,0.671,0l2.711,2.711c0.185,0.185,0.185,0.486,0,0.671
					C195.406,310.863,195.285,310.909,195.164,310.909z" />
					<path style="fill:#0091FF;" d="M191.519,307.264c-0.121,0-0.243-0.046-0.335-0.139l-11.285-11.285
					c-0.185-0.185-0.185-0.486,0-0.671s0.486-0.185,0.671,0l11.285,11.285c0.185,0.185,0.185,0.485,0,0.671
					C191.761,307.218,191.64,307.264,191.519,307.264z" />
					<path style="fill:#0091FF;" d="M194.079,313.62c-0.121,0-0.243-0.046-0.335-0.139l-9.605-9.605
					c-0.185-0.185-0.185-0.486,0-0.671c0.185-0.185,0.486-0.185,0.671,0l9.605,9.605c0.185,0.185,0.185,0.486,0,0.671
					C194.322,313.574,194.201,313.62,194.079,313.62z" />
					<path style="fill:#0091FF;" d="M183.68,303.221c-0.121,0-0.243-0.046-0.335-0.139l-9.465-9.465
					c-0.185-0.185-0.185-0.486,0-0.671c0.185-0.185,0.485-0.185,0.671,0l9.465,9.465c0.185,0.185,0.185,0.486,0,0.671
					C183.923,303.174,183.801,303.221,183.68,303.221z" />
					<path style="fill:#0091FF;" d="M172.865,292.405c-0.121,0-0.243-0.046-0.335-0.139l-3.285-3.286
					c-0.185-0.185-0.185-0.485,0-0.671c0.185-0.185,0.485-0.185,0.671,0l3.285,3.285c0.185,0.185,0.185,0.486,0,0.671
					C173.108,292.359,172.986,292.405,172.865,292.405z" />
					<path style="fill:#0091FF;" d="M192.995,316.331c-0.121,0-0.243-0.046-0.335-0.139l-4.942-4.942
					c-0.185-0.185-0.185-0.485,0-0.671c0.185-0.185,0.485-0.185,0.671,0l4.942,4.942c0.185,0.185,0.185,0.486,0,0.671
					C193.238,316.284,193.116,316.331,192.995,316.331z" />
					<path style="fill:#0091FF;" d="M186.997,310.333c-0.121,0-0.243-0.046-0.335-0.139l-16.442-16.443
					c-0.185-0.185-0.185-0.486,0-0.671c0.185-0.185,0.486-0.185,0.671,0l16.442,16.443c0.185,0.185,0.185,0.486,0,0.671
					C187.24,310.286,187.118,310.333,186.997,310.333z" />
					<path style="fill:#0091FF;" d="M191.911,319.042c-0.121,0-0.243-0.046-0.335-0.139l-9.928-9.928
					c-0.185-0.185-0.185-0.486,0-0.671c0.185-0.185,0.486-0.185,0.671,0l9.928,9.928c0.185,0.185,0.185,0.485,0,0.671
					C192.154,318.995,192.032,319.042,191.911,319.042z" />
					<path style="fill:#0091FF;" d="M181.068,308.199c-0.121,0-0.243-0.046-0.335-0.139l-9.489-9.489
					c-0.185-0.185-0.185-0.486,0-0.671c0.185-0.185,0.486-0.185,0.671,0l9.489,9.489c0.185,0.185,0.185,0.486,0,0.671
					C181.31,308.152,181.189,308.199,181.068,308.199z" />
					<path style="fill:#00DB2F;" d="M190.826,321.752c-0.121,0-0.243-0.046-0.335-0.139l-3.175-3.175
					c-0.185-0.185-0.185-0.486,0-0.671c0.185-0.185,0.485-0.185,0.671,0l3.176,3.175c0.185,0.185,0.185,0.486,0,0.671
					C191.069,321.706,190.948,321.752,190.826,321.752z" />
					<path style="fill:#00DB2F;" d="M186.562,317.488c-0.121,0-0.243-0.046-0.335-0.139l-14.11-14.11
					c-0.185-0.185-0.185-0.486,0-0.671s0.486-0.185,0.671,0l14.11,14.11c0.185,0.185,0.185,0.486,0,0.671
					C186.805,317.442,186.683,317.488,186.562,317.488z" />
					<path style="fill:#00DB2F;" d="M193.368,328.089c-0.121,0-0.243-0.046-0.335-0.139l-1.457-1.457
					c-0.185-0.185-0.185-0.486,0-0.671c0.185-0.185,0.486-0.185,0.671,0l1.457,1.457c0.185,0.185,0.185,0.486,0,0.671
					C193.611,328.043,193.489,328.089,193.368,328.089z" />
					<path style="fill:#00DB2F;" d="M190.988,325.709c-0.121,0-0.243-0.046-0.335-0.139l-8.221-8.221
					c-0.185-0.185-0.185-0.486,0-0.671c0.185-0.185,0.486-0.185,0.671,0l8.221,8.221c0.185,0.185,0.185,0.486,0,0.671
					C191.23,325.662,191.109,325.709,190.988,325.709z" />
					<path style="fill:#00DB2F;" d="M181.61,316.331c-0.121,0-0.243-0.046-0.335-0.139l-8.253-8.253
					c-0.185-0.185-0.185-0.486,0-0.671c0.185-0.185,0.486-0.185,0.671,0l8.253,8.253c0.185,0.185,0.185,0.486,0,0.671
					C181.853,316.284,181.731,316.331,181.61,316.331z" />
					<path style="fill:#00DB2F;" d="M195.887,334.403c-0.121,0-0.243-0.046-0.335-0.139l-6.106-6.106
					c-0.185-0.185-0.185-0.486,0-0.671c0.185-0.185,0.486-0.185,0.671,0l6.106,6.106c0.185,0.185,0.185,0.486,0,0.671
					C196.129,334.356,196.008,334.403,195.887,334.403z" />
					<path style="fill:#00DB2F;" d="M188.69,327.206c-0.121,0-0.243-0.046-0.335-0.139l-11.533-11.533
					c-0.185-0.185-0.185-0.486,0-0.671c0.185-0.185,0.486-0.185,0.671,0l11.533,11.533c0.185,0.185,0.185,0.486,0,0.671
					C188.933,327.16,188.812,327.206,188.69,327.206z" />
					<path style="fill:#FF43D1;" d="M198.42,340.725c-0.121,0-0.243-0.046-0.335-0.139l-1.123-1.123
					c-0.185-0.185-0.185-0.486,0-0.671c0.185-0.185,0.485-0.185,0.671,0l1.123,1.123c0.185,0.185,0.185,0.486,0,0.671
					C198.663,340.678,198.541,340.725,198.42,340.725z" />
					<path style="fill:#FF43D1;" d="M196.225,338.53c-0.121,0-0.243-0.046-0.335-0.139l-7.921-7.921
					c-0.185-0.185-0.185-0.486,0-0.671s0.486-0.185,0.671,0l7.921,7.921c0.185,0.185,0.185,0.486,0,0.671
					C196.468,338.484,196.346,338.53,196.225,338.53z" />
					<path style="fill:#FF43D1;" d="M187.305,329.61c-0.121,0-0.243-0.046-0.335-0.139l-11.137-11.137
					c-0.185-0.185-0.185-0.486,0-0.671c0.185-0.185,0.485-0.185,0.671,0L187.64,328.8c0.185,0.185,0.185,0.486,0,0.671
					C187.547,329.563,187.426,329.61,187.305,329.61z" />
					<path style="fill:#FF43D1;" d="M195.509,340.728c-0.121,0-0.243-0.046-0.335-0.139l-0.922-0.923
					c-0.185-0.185-0.185-0.486,0-0.671c0.185-0.185,0.485-0.185,0.671,0l0.922,0.923c0.185,0.185,0.185,0.486,0,0.671
					C195.752,340.681,195.63,340.728,195.509,340.728z" />
					<path style="fill:#FF43D1;" d="M193.478,338.697c-0.121,0-0.243-0.046-0.335-0.139l-9.353-9.352
					c-0.185-0.185-0.185-0.485,0-0.671c0.185-0.185,0.486-0.185,0.671,0l9.352,9.352c0.185,0.185,0.185,0.486,0,0.671
					C193.721,338.651,193.6,338.697,193.478,338.697z" />
					<path style="fill:#FF43D1;" d="M183.286,328.505c-0.121,0-0.243-0.046-0.335-0.139l-2.689-2.689
					c-0.185-0.185-0.185-0.486,0-0.671c0.185-0.185,0.486-0.185,0.671,0l2.689,2.689c0.185,0.185,0.185,0.486,0,0.671
					C183.529,328.458,183.407,328.505,183.286,328.505z" />
					<path style="fill:#00DB2F;" d="M178.744,323.963c-0.121,0-0.243-0.046-0.335-0.139l-3.798-3.798
					c-0.185-0.185-0.185-0.486,0-0.671c0.185-0.185,0.485-0.185,0.671,0l3.798,3.798c0.185,0.185,0.185,0.485,0,0.671
					C178.987,323.917,178.866,323.963,178.744,323.963z" />
					<path style="fill:#00DB2F;" d="M173.823,319.042c-0.121,0-0.243-0.046-0.335-0.139l-0.958-0.958
					c-0.185-0.185-0.185-0.486,0-0.671s0.486-0.185,0.671,0l0.958,0.958c0.185,0.185,0.185,0.485,0,0.671
					C174.066,318.995,173.944,319.042,173.823,319.042z" />
					<path style="fill:#FF43D1;"
						d="M192.722,340.725c-0.121,0-0.243-0.046-0.335-0.139l-6.16-6.16c-0.185-0.185-0.185-0.486,0-0.671
					s0.486-0.185,0.671,0l6.16,6.16c0.185,0.185,0.185,0.485,0,0.671C192.965,340.679,192.843,340.725,192.722,340.725z" />
					<path style="fill:#FF43D1;" d="M185.637,333.639c-0.121,0-0.243-0.046-0.336-0.139l-6.569-6.569
					c-0.185-0.185-0.185-0.486,0-0.671c0.185-0.185,0.485-0.185,0.671,0l6.569,6.569c0.185,0.185,0.185,0.485,0,0.671
					C185.879,333.593,185.758,333.639,185.637,333.639z" />
					<path style="fill:#00DB2F;"
						d="M179.067,327.07c-0.121,0-0.243-0.046-0.335-0.139L175,323.199c-0.185-0.185-0.185-0.486,0-0.671
					c0.185-0.185,0.485-0.185,0.671,0l3.732,3.732c0.185,0.185,0.185,0.486,0,0.671C179.31,327.024,179.189,327.07,179.067,327.07z" />
					<path style="fill:#00DB2F;" d="M174.445,322.448c-0.121,0-0.243-0.046-0.335-0.139l-2.155-2.155
					c-0.185-0.185-0.185-0.485,0-0.671c0.185-0.185,0.485-0.185,0.671,0l2.155,2.155c0.185,0.185,0.185,0.486,0,0.671
					C174.688,322.402,174.566,322.448,174.445,322.448z" />
					<path style="fill:#FF43D1;" d="M183.25,340.699c-0.121,0-0.243-0.046-0.335-0.139l-1.267-1.267
					c-0.185-0.185-0.185-0.486,0-0.671s0.486-0.185,0.671,0l1.267,1.267c0.185,0.185,0.185,0.486,0,0.671
					C183.493,340.653,183.372,340.699,183.25,340.699z" />
					<path style="fill:#FF43D1;" d="M181.081,338.53c-0.121,0-0.243-0.046-0.335-0.139l-7.921-7.921
					c-0.185-0.185-0.185-0.486,0-0.671c0.185-0.185,0.485-0.185,0.671,0l7.921,7.921c0.185,0.185,0.185,0.486,0,0.671
					C181.324,338.484,181.202,338.53,181.081,338.53z" />
					<path style="fill:#FF43D1;" d="M172.16,329.61c-0.121,0-0.243-0.046-0.335-0.139l-2.565-2.565c-0.185-0.185-0.185-0.486,0-0.671
					s0.486-0.185,0.671,0l2.565,2.565c0.185,0.185,0.185,0.486,0,0.671C172.403,329.563,172.282,329.61,172.16,329.61z" />
					<path style="fill:#FF43D1;" d="M177.512,340.699c-0.121,0-0.243-0.046-0.335-0.139l-4.647-4.647
					c-0.185-0.185-0.185-0.486,0-0.671c0.185-0.185,0.486-0.185,0.671,0l4.647,4.647c0.185,0.185,0.185,0.486,0,0.671
					C177.755,340.653,177.633,340.699,177.512,340.699z" />
					<path style="fill:#FF43D1;"
						d="M171.813,335c-0.121,0-0.243-0.046-0.335-0.139l-5.246-5.246c-0.185-0.185-0.185-0.486,0-0.671
					c0.185-0.185,0.486-0.185,0.671,0l5.246,5.246c0.185,0.185,0.185,0.486,0,0.671C172.055,334.954,171.934,335,171.813,335z" />
					<path style="fill:#FF43D1;" d="M165.436,328.623c-0.121,0-0.243-0.046-0.335-0.139l-1.578-1.578
					c-0.185-0.185-0.185-0.486,0-0.671s0.485-0.185,0.671,0l1.578,1.578c0.185,0.185,0.185,0.486,0,0.671
					C165.678,328.577,165.557,328.623,165.436,328.623z" />
					<path style="fill:#FF43D1;"
						d="M180.394,340.699c-0.121,0-0.243-0.046-0.335-0.139l-1.65-1.65c-0.185-0.185-0.185-0.485,0-0.671
					s0.486-0.185,0.671,0l1.65,1.65c0.185,0.185,0.185,0.486,0,0.671C180.637,340.653,180.515,340.699,180.394,340.699z" />
					<path style="fill:#FF43D1;" d="M177.483,337.789c-0.121,0-0.243-0.046-0.335-0.139l-10.744-10.744
					c-0.185-0.185-0.185-0.486,0-0.671c0.185-0.185,0.485-0.185,0.671,0l10.744,10.744c0.185,0.185,0.185,0.486,0,0.671
					C177.726,337.743,177.605,337.789,177.483,337.789z" />
				</g>
				<g>
					<polygon style="fill:#FFFFFF;"
						points="179.067,288.646 174.323,300.505 169.579,288.646 163.887,288.646 171.477,307.621 
					163.887,326.596 169.579,326.596 174.323,314.737 179.067,326.596 184.76,326.596 177.17,307.621 184.76,288.646 				" />
					<path style="fill:#FFFFFF;" d="M184.76,327.071h-5.693c-0.194,0-0.368-0.118-0.441-0.298l-4.303-10.759l-4.303,10.759
					c-0.072,0.18-0.247,0.298-0.441,0.298h-5.693c-0.157,0-0.305-0.078-0.393-0.208c-0.088-0.13-0.106-0.296-0.048-0.442
					l7.52-18.799l-7.52-18.799c-0.058-0.146-0.041-0.312,0.048-0.442c0.088-0.13,0.235-0.208,0.393-0.208h5.693
					c0.194,0,0.368,0.118,0.441,0.298l4.303,10.759l4.303-10.759c0.072-0.18,0.247-0.298,0.441-0.298h5.693
					c0.157,0,0.305,0.078,0.393,0.208c0.088,0.13,0.106,0.296,0.048,0.442l-7.52,18.799l7.52,18.799
					c0.058,0.146,0.041,0.312-0.048,0.442C185.064,326.993,184.917,327.071,184.76,327.071z M179.388,326.122h4.671l-7.33-18.325
					c-0.045-0.113-0.045-0.239,0-0.353l7.33-18.325h-4.671l-4.624,11.561c-0.072,0.18-0.246,0.298-0.44,0.298
					s-0.368-0.118-0.44-0.298l-4.625-11.561h-4.671l7.33,18.325c0.045,0.113,0.045,0.239,0,0.353l-7.33,18.325h4.671l4.625-11.562
					c0.072-0.18,0.246-0.298,0.44-0.298s0.368,0.118,0.44,0.298L179.388,326.122z" />
				</g>
			</g>
			<g>
				<g>
					<path style="fill:#0091FF;" d="M217.09,298.297c-0.121,0-0.243-0.046-0.335-0.139l-4.038-4.038
					c-0.185-0.185-0.185-0.486,0-0.671c0.185-0.185,0.486-0.185,0.671,0l4.038,4.038c0.185,0.185,0.185,0.486,0,0.671
					C217.333,298.25,217.212,298.297,217.09,298.297z" />
					<path style="fill:#0091FF;" d="M211.586,292.792c-0.121,0-0.243-0.046-0.336-0.139l-3.672-3.672
					c-0.185-0.185-0.185-0.486,0-0.671c0.185-0.185,0.486-0.185,0.671,0l3.672,3.672c0.185,0.185,0.185,0.486,0,0.671
					C211.829,292.746,211.707,292.792,211.586,292.792z" />
					<path style="fill:#FF43D1;" d="M216.502,301.503c-0.121,0-0.243-0.046-0.335-0.139l-6.888-6.888
					c-0.185-0.185-0.185-0.486,0-0.671s0.486-0.185,0.671,0l6.888,6.888c0.185,0.185,0.185,0.485,0,0.671
					C216.744,301.457,216.623,301.503,216.502,301.503z" />
					<path style="fill:#FF43D1;" d="M215.621,304.418c-0.121,0-0.243-0.046-0.335-0.139l-4.295-4.295
					c-0.185-0.185-0.185-0.485,0-0.671s0.486-0.185,0.671,0l4.295,4.295c0.185,0.185,0.185,0.486,0,0.671
					C215.864,304.371,215.743,304.418,215.621,304.418z" />
				</g>
				<g>
					<path style="fill:#FF43D1;" d="M223.458,340.728c-0.121,0-0.243-0.046-0.335-0.139l-7.442-7.442
					c-0.185-0.185-0.185-0.486,0-0.671c0.185-0.185,0.486-0.185,0.671,0l7.442,7.442c0.185,0.185,0.185,0.485,0,0.671
					C223.701,340.682,223.58,340.728,223.458,340.728z" />
					<path style="fill:#FF43D1;" d="M214.863,332.132c-0.121,0-0.243-0.046-0.335-0.139l-5.059-5.059
					c-0.185-0.185-0.185-0.486,0-0.671s0.486-0.185,0.671,0l5.059,5.059c0.185,0.185,0.185,0.486,0,0.671
					C215.105,332.086,214.984,332.132,214.863,332.132z" />
					<path style="fill:#FF43D1;" d="M226.336,340.728c-0.121,0-0.243-0.046-0.335-0.139l-0.923-0.923
					c-0.185-0.185-0.185-0.486,0-0.671s0.486-0.185,0.671,0l0.923,0.923c0.185,0.185,0.185,0.485,0,0.671
					C226.579,340.682,226.457,340.728,226.336,340.728z" />
					<path style="fill:#FF43D1;" d="M224.138,338.53c-0.121,0-0.243-0.046-0.335-0.139l-11.457-11.457
					c-0.185-0.185-0.185-0.486,0-0.671s0.486-0.185,0.671,0l11.457,11.457c0.185,0.185,0.185,0.486,0,0.671
					C224.381,338.484,224.259,338.53,224.138,338.53z" />
					<path style="fill:#0091FF;" d="M235.229,307.435c-0.121,0-0.243-0.046-0.335-0.139l-0.873-0.873
					c-0.185-0.185-0.185-0.486,0-0.671c0.185-0.185,0.486-0.185,0.671,0l0.873,0.873c0.185,0.185,0.185,0.486,0,0.671
					C235.472,307.389,235.351,307.435,235.229,307.435z" />
					<path style="fill:#0091FF;" d="M232.666,304.872c-0.121,0-0.243-0.046-0.335-0.139l-11.02-11.02
					c-0.185-0.185-0.185-0.485,0-0.671c0.185-0.185,0.486-0.185,0.671,0l11.02,11.02c0.185,0.185,0.185,0.486,0,0.671
					C232.909,304.826,232.788,304.872,232.666,304.872z" />
					<path style="fill:#0091FF;" d="M234.435,310.225c-0.121,0-0.243-0.046-0.335-0.139l-9.826-9.826
					c-0.185-0.185-0.185-0.486,0-0.671c0.185-0.185,0.485-0.185,0.671,0l9.826,9.826c0.185,0.185,0.185,0.486,0,0.671
					C234.677,310.179,234.556,310.225,234.435,310.225z" />
					<path style="fill:#0091FF;" d="M223.571,299.362c-0.121,0-0.243-0.046-0.335-0.139l-2.773-2.773
					c-0.185-0.185-0.185-0.486,0-0.671c0.185-0.185,0.486-0.185,0.671,0l2.773,2.773c0.185,0.185,0.185,0.486,0,0.671
					C223.814,299.315,223.692,299.362,223.571,299.362z" />
					<path style="fill:#0091FF;" d="M235.95,305.103c-0.121,0-0.243-0.046-0.335-0.139l-7.512-7.512
					c-0.185-0.185-0.185-0.485,0-0.671s0.485-0.185,0.671,0l7.512,7.512c0.185,0.185,0.185,0.486,0,0.671
					C236.193,305.057,236.071,305.103,235.95,305.103z" />
					<path style="fill:#0091FF;" d="M226.822,295.976c-0.121,0-0.243-0.046-0.335-0.139l-4.486-4.486
					c-0.185-0.185-0.185-0.486,0-0.671c0.185-0.185,0.486-0.185,0.671,0l4.486,4.486c0.185,0.185,0.185,0.486,0,0.671
					C227.065,295.929,226.944,295.976,226.822,295.976z" />
					<path style="fill:#0091FF;" d="M236.735,302.778c-0.121,0-0.243-0.046-0.335-0.139l-2.766-2.766
					c-0.185-0.185-0.185-0.486,0-0.671c0.185-0.185,0.485-0.185,0.671,0l2.766,2.766c0.185,0.185,0.185,0.486,0,0.671
					C236.978,302.731,236.856,302.778,236.735,302.778z" />
					<path style="fill:#0091FF;" d="M232.666,298.709c-0.121,0-0.243-0.046-0.335-0.139l-9.589-9.589
					c-0.185-0.185-0.185-0.486,0-0.671c0.185-0.185,0.486-0.185,0.671,0l9.589,9.589c0.185,0.185,0.185,0.485,0,0.671
					C232.909,298.663,232.788,298.709,232.666,298.709z" />
					<path style="fill:#0091FF;" d="M233.578,312.94c-0.121,0-0.243-0.046-0.335-0.139l-3.011-3.011
					c-0.185-0.185-0.185-0.486,0-0.671s0.486-0.185,0.671,0l3.011,3.011c0.185,0.185,0.185,0.486,0,0.671
					C233.821,312.893,233.7,312.94,233.578,312.94z" />
					<path style="fill:#0091FF;" d="M229.456,308.818c-0.121,0-0.243-0.046-0.335-0.139l-4.417-4.418
					c-0.185-0.185-0.185-0.485,0-0.671c0.185-0.185,0.485-0.185,0.671,0l4.417,4.417c0.185,0.185,0.185,0.486,0,0.671
					C229.699,308.771,229.577,308.818,229.456,308.818z" />
					<path style="fill:#0091FF;" d="M223.571,302.932c-0.121,0-0.243-0.046-0.335-0.139l-3.633-3.633
					c-0.185-0.185-0.185-0.486,0-0.671s0.486-0.185,0.671,0l3.632,3.633c0.185,0.185,0.185,0.485,0,0.671
					C223.814,302.886,223.692,302.932,223.571,302.932z" />
					<path style="fill:#0091FF;" d="M232.776,315.766c-0.121,0-0.243-0.046-0.336-0.139l-11.978-11.978
					c-0.185-0.185-0.185-0.486,0-0.671c0.185-0.185,0.486-0.185,0.671,0l11.978,11.978c0.185,0.185,0.185,0.486,0,0.671
					C233.019,315.72,232.897,315.766,232.776,315.766z" />
					<path style="fill:#0091FF;" d="M231.858,318.477c-0.121,0-0.243-0.046-0.335-0.139l-1.686-1.686
					c-0.185-0.185-0.185-0.486,0-0.671c0.185-0.185,0.486-0.185,0.671,0l1.686,1.686c0.185,0.185,0.185,0.486,0,0.671
					C232.101,318.431,231.98,318.477,231.858,318.477z" />
					<path style="fill:#0091FF;" d="M228.937,315.556c-0.121,0-0.243-0.046-0.335-0.139l-10.719-10.719
					c-0.185-0.185-0.185-0.486,0-0.671c0.185-0.185,0.486-0.185,0.671,0l10.719,10.719c0.185,0.185,0.185,0.486,0,0.671
					C229.18,315.51,229.059,315.556,228.937,315.556z" />
					<path style="fill:#FF43D1;" d="M230.978,321.225c-0.121,0-0.243-0.046-0.335-0.139l-7.407-7.407
					c-0.185-0.185-0.185-0.486,0-0.671s0.485-0.185,0.671,0l7.407,7.407c0.185,0.185,0.185,0.485,0,0.671
					C231.221,321.179,231.099,321.225,230.978,321.225z" />
					<path style="fill:#FF43D1;" d="M222.185,312.432c-0.121,0-0.243-0.046-0.335-0.139l-4.847-4.846
					c-0.185-0.185-0.185-0.486,0-0.671c0.185-0.185,0.486-0.185,0.671,0l4.846,4.846c0.185,0.185,0.185,0.486,0,0.671
					C222.427,312.385,222.306,312.432,222.185,312.432z" />
					<path style="fill:#FF43D1;" d="M230.102,323.978c-0.121,0-0.243-0.046-0.335-0.139l-1.378-1.378
					c-0.185-0.185-0.185-0.486,0-0.671c0.185-0.185,0.485-0.185,0.671,0l1.378,1.378c0.185,0.185,0.185,0.486,0,0.671
					C230.345,323.931,230.223,323.978,230.102,323.978z" />
					<path style="fill:#FF43D1;" d="M227.349,321.225c-0.121,0-0.243-0.046-0.335-0.139l-7.031-7.031
					c-0.185-0.185-0.185-0.486,0-0.671c0.185-0.185,0.486-0.185,0.671,0l7.031,7.031c0.185,0.185,0.185,0.485,0,0.671
					C227.592,321.179,227.471,321.225,227.349,321.225z" />
					<path style="fill:#FF43D1;" d="M218.865,312.741c-0.121,0-0.243-0.046-0.335-0.139l-2.403-2.403
					c-0.185-0.185-0.185-0.486,0-0.671c0.185-0.185,0.486-0.185,0.671,0l2.403,2.403c0.185,0.185,0.185,0.486,0,0.671
					C219.108,312.694,218.987,312.741,218.865,312.741z" />
					<path style="fill:#00DB2F;" d="M229.133,326.637c-0.121,0-0.243-0.046-0.335-0.139l-5.562-5.562
					c-0.185-0.185-0.185-0.486,0-0.671c0.185-0.185,0.485-0.185,0.671,0l5.562,5.562c0.185,0.185,0.185,0.485,0,0.671
					C229.376,326.591,229.255,326.637,229.133,326.637z" />
					<path style="fill:#00DB2F;" d="M222.185,319.689c-0.121,0-0.243-0.046-0.335-0.139l-6.692-6.691
					c-0.185-0.185-0.185-0.486,0-0.671c0.185-0.185,0.486-0.185,0.671,0l6.691,6.691c0.185,0.185,0.185,0.486,0,0.671
					C222.427,319.642,222.306,319.689,222.185,319.689z" />
					<path style="fill:#00DB2F;" d="M229.133,330.266c-0.121,0-0.243-0.046-0.335-0.139l-1.973-1.973
					c-0.185-0.185-0.185-0.485,0-0.671c0.185-0.185,0.486-0.185,0.671,0l1.973,1.973c0.185,0.185,0.185,0.486,0,0.671
					C229.376,330.22,229.255,330.266,229.133,330.266z" />
					<path style="fill:#00DB2F;" d="M225.949,327.082c-0.121,0-0.243-0.046-0.335-0.139l-10.456-10.456
					c-0.185-0.185-0.185-0.486,0-0.671c0.185-0.185,0.486-0.185,0.671,0l10.456,10.456c0.185,0.185,0.185,0.486,0,0.671
					C226.192,327.036,226.071,327.082,225.949,327.082z" />
					<path style="fill:#00DB2F;" d="M229.16,333.916c-0.121,0-0.243-0.046-0.336-0.139l-9.652-9.652
					c-0.185-0.185-0.185-0.486,0-0.671s0.486-0.185,0.671,0l9.652,9.652c0.185,0.185,0.185,0.486,0,0.671
					C229.403,333.869,229.282,333.916,229.16,333.916z" />
					<path style="fill:#00DB2F;" d="M218.218,322.974c-0.121,0-0.243-0.046-0.335-0.139l-2.725-2.725
					c-0.185-0.185-0.185-0.486,0-0.671c0.185-0.185,0.486-0.185,0.671,0l2.725,2.725c0.185,0.185,0.185,0.486,0,0.671
					C218.461,322.927,218.34,322.974,218.218,322.974z" />
					<path style="fill:#00DB2F;" d="M229.133,337.517c-0.121,0-0.243-0.046-0.335-0.139l-3.184-3.184
					c-0.185-0.185-0.185-0.485,0-0.671c0.185-0.185,0.485-0.185,0.671,0l3.184,3.184c0.185,0.185,0.185,0.485,0,0.671
					C229.376,337.471,229.255,337.517,229.133,337.517z" />
					<path style="fill:#00DB2F;" d="M224.608,332.992c-0.121,0-0.243-0.046-0.335-0.139l-9.115-9.115
					c-0.185-0.185-0.185-0.486,0-0.671c0.185-0.185,0.486-0.185,0.671,0l9.115,9.115c0.185,0.185,0.185,0.486,0,0.671
					C224.851,332.946,224.73,332.992,224.608,332.992z" />
					<path style="fill:#FF43D1;" d="M229.15,340.728c-0.121,0-0.243-0.046-0.335-0.139l-3.802-3.802
					c-0.185-0.185-0.185-0.486,0-0.671c0.185-0.185,0.486-0.185,0.671,0l3.802,3.802c0.185,0.185,0.185,0.485,0,0.671
					C229.393,340.682,229.272,340.728,229.15,340.728z" />
					<path style="fill:#FF43D1;" d="M224.341,335.919c-0.121,0-0.243-0.046-0.335-0.139l-5.921-5.921
					c-0.185-0.185-0.185-0.486,0-0.671s0.486-0.185,0.671,0l5.921,5.921c0.185,0.185,0.185,0.486,0,0.671
					C224.584,335.872,224.462,335.919,224.341,335.919z" />
					<path style="fill:#FF43D1;" d="M217.09,328.668c-0.121,0-0.243-0.046-0.335-0.139l-1.595-1.595
					c-0.185-0.185-0.185-0.486,0-0.671c0.185-0.185,0.485-0.185,0.671,0l1.594,1.595c0.185,0.185,0.185,0.486,0,0.671
					C217.333,328.622,217.212,328.668,217.09,328.668z" />
				</g>
				<g>
					<polygon style="fill:#FFFFFF;" points="212.648,303.898 207.904,288.646 202.212,288.646 209.802,313.049 209.802,326.596 
					215.494,326.596 215.494,313.049 223.085,288.646 217.392,288.646 				" />
					<path style="fill:#FFFFFF;"
						d="M215.494,327.071h-5.693c-0.262,0-0.474-0.212-0.474-0.474v-13.475l-7.569-24.335
					c-0.045-0.144-0.018-0.301,0.071-0.422c0.089-0.121,0.231-0.193,0.382-0.193h5.693c0.208,0,0.391,0.135,0.453,0.333
					l4.291,13.796l4.291-13.796c0.062-0.198,0.245-0.333,0.453-0.333h5.693c0.151,0,0.293,0.072,0.382,0.193
					c0.089,0.122,0.116,0.278,0.071,0.422l-7.569,24.335v13.475C215.969,326.858,215.756,327.071,215.494,327.071z M210.276,326.122
					h4.744v-13.073c0-0.048,0.007-0.095,0.021-0.141l7.399-23.788h-4.699l-4.64,14.919c-0.062,0.198-0.245,0.334-0.453,0.334
					c-0.208,0-0.391-0.135-0.453-0.334l-4.64-14.919h-4.699l7.399,23.788c0.014,0.046,0.021,0.093,0.021,0.141V326.122z" />
				</g>
			</g>
		</g>
	</g>
</svg>