<?xml version="1.0" encoding="utf-8"?>
<!-- Generator: Adobe Illustrator 27.5.0, SVG Export Plug-In . SVG Version: 6.00 Build 0)  -->
<!-- <svg version="1.1" xmlns="http://www.w3.org/2000/svg" xmlns:xlink="http://www.w3.org/1999/xlink" width="100px"
    height="100px" viewBox="15 25 110 100"> -->
<svg version="1.1" xmlns="http://www.w3.org/2000/svg" xmlns:xlink="http://www.w3.org/1999/xlink" width="100px"
    height="100px" viewBox="100 25 100 100">
    <g>
        <g>
            <path style="fill:#FF43D1;" d="M157.105,81.304c-0.121,0-0.243-0.046-0.335-0.139l-4.144-4.144
                c-0.185-0.185-0.185-0.486,0-0.671c0.185-0.185,0.486-0.185,0.671,0l4.144,4.144c0.185,0.185,0.185,0.486,0,0.671
                C157.348,81.258,157.226,81.304,157.105,81.304z"/>
            <path style="fill:#FF43D1;" d="M151.457,75.656c-0.121,0-0.243-0.046-0.335-0.139l-8.005-8.005
                c-0.185-0.185-0.185-0.486,0-0.671c0.185-0.185,0.486-0.185,0.671,0l8.005,8.005c0.185,0.185,0.185,0.486,0,0.671
                C151.7,75.61,151.579,75.656,151.457,75.656z"/>
            <path style="fill:#0091FF;" d="M155.456,83.212c-0.121,0-0.243-0.046-0.335-0.139l-11.002-11.002
                c-0.185-0.185-0.185-0.486,0-0.671c0.185-0.186,0.486-0.185,0.671,0l11.002,11.002c0.185,0.185,0.185,0.486,0,0.671
                C155.699,83.166,155.577,83.212,155.456,83.212z"/>
            <path style="fill:#0091FF;" d="M142.709,70.466c-0.121,0-0.243-0.046-0.335-0.139l-0.91-0.91c-0.185-0.185-0.185-0.486,0-0.671
                c0.185-0.185,0.486-0.185,0.671,0l0.911,0.911c0.185,0.185,0.185,0.486,0,0.671C142.952,70.42,142.831,70.466,142.709,70.466z"
                />
            <path style="fill:#FF43D1;" d="M159.302,79.943c-0.121,0-0.243-0.046-0.335-0.139l-11.159-11.159
                c-0.185-0.185-0.185-0.486,0-0.671c0.185-0.185,0.486-0.185,0.671,0l11.159,11.159c0.185,0.185,0.185,0.486,0,0.671
                C159.545,79.896,159.423,79.943,159.302,79.943z"/>
            <path style="fill:#FF43D1;" d="M146.776,67.417c-0.121,0-0.243-0.046-0.335-0.139l-1.131-1.131
                c-0.185-0.185-0.185-0.486,0-0.671c0.185-0.185,0.486-0.185,0.671,0l1.131,1.131c0.185,0.185,0.185,0.486,0,0.671
                C147.019,67.371,146.897,67.417,146.776,67.417z"/>
            <path style="fill:#00DB2F;" d="M168.018,84.823c-0.121,0-0.243-0.046-0.335-0.139l-4.111-4.111
                c-0.185-0.185-0.185-0.486,0-0.671c0.185-0.185,0.486-0.185,0.671,0l4.111,4.111c0.185,0.185,0.185,0.486,0,0.671
                C168.261,84.777,168.139,84.823,168.018,84.823z"/>
            <path style="fill:#00DB2F;" d="M162.712,79.518c-0.121,0-0.243-0.046-0.335-0.139l-8.354-8.354
                c-0.185-0.185-0.185-0.486,0-0.671c0.185-0.185,0.486-0.185,0.671,0l8.354,8.354c0.185,0.185,0.185,0.486,0,0.671
                C162.955,79.472,162.834,79.518,162.712,79.518z"/>
            <path style="fill:#0091FF;" d="M154.194,85.509c-0.121,0-0.243-0.046-0.335-0.139l-2.345-2.345
                c-0.185-0.185-0.185-0.486,0-0.671c0.185-0.185,0.486-0.185,0.671,0l2.345,2.345c0.185,0.185,0.185,0.486,0,0.671
                C154.437,85.462,154.316,85.509,154.194,85.509z"/>
            <path style="fill:#0091FF;" d="M150.178,81.493c-0.121,0-0.243-0.046-0.335-0.139l-9.674-9.674
                c-0.185-0.185-0.185-0.486,0-0.671c0.185-0.185,0.486-0.185,0.671,0l9.674,9.674c0.185,0.185,0.185,0.486,0,0.671
                C150.421,81.446,150.299,81.493,150.178,81.493z"/>
            <path style="fill:#0091FF;" d="M153.293,88.165c-0.121,0-0.243-0.046-0.335-0.139l-9.879-9.879
                c-0.185-0.185-0.185-0.486,0-0.671c0.185-0.185,0.486-0.185,0.671,0l9.879,9.879c0.185,0.185,0.185,0.486,0,0.671
                C153.536,88.119,153.414,88.165,153.293,88.165z"/>
            <path style="fill:#0091FF;" d="M141.931,76.804c-0.121,0-0.243-0.046-0.335-0.139l-2.295-2.295
                c-0.185-0.185-0.185-0.486,0-0.671c0.185-0.185,0.486-0.185,0.671,0l2.295,2.295c0.185,0.185,0.185,0.486,0,0.671
                C142.174,76.757,142.053,76.804,141.931,76.804z"/>
            <path style="fill:#0091FF;" d="M152.961,91.391c-0.121,0-0.243-0.046-0.335-0.139l-2.441-2.441
                c-0.185-0.185-0.185-0.486,0-0.671c0.185-0.185,0.486-0.185,0.671,0l2.441,2.441c0.185,0.185,0.185,0.486,0,0.671
                C153.204,91.345,153.082,91.391,152.961,91.391z"/>
            <path style="fill:#0091FF;" d="M148.964,87.394c-0.121,0-0.243-0.046-0.335-0.139l-9.832-9.832
                c-0.185-0.185-0.185-0.486,0-0.671c0.185-0.185,0.486-0.185,0.671,0l9.832,9.832c0.185,0.185,0.185,0.486,0,0.671
                C149.207,87.348,149.085,87.394,148.964,87.394z"/>
            <path style="fill:#0091FF;" d="M140.735,82.723c-0.121,0-0.243-0.046-0.335-0.139l-1.575-1.574
                c-0.185-0.185-0.185-0.486,0-0.671c0.185-0.185,0.486-0.185,0.671,0l1.575,1.574c0.185,0.185,0.185,0.486,0,0.671
                C140.978,82.677,140.857,82.723,140.735,82.723z"/>
            <path style="fill:#0091FF;" d="M151.509,93.497c-0.121,0-0.243-0.046-0.335-0.139l-9.465-9.465
                c-0.185-0.185-0.185-0.486,0-0.671c0.185-0.185,0.486-0.185,0.671,0l9.465,9.465c0.185,0.185,0.185,0.486,0,0.671
                C151.752,93.451,151.63,93.497,151.509,93.497z"/>
            <path style="fill:#0091FF;" d="M149.476,95.022c-0.121,0-0.243-0.046-0.335-0.139l-5.123-5.123
                c-0.185-0.185-0.185-0.486,0-0.671c0.185-0.185,0.486-0.185,0.671,0l5.123,5.123c0.185,0.185,0.185,0.486,0,0.671
                C149.718,94.975,149.597,95.022,149.476,95.022z"/>
            <path style="fill:#0091FF;" d="M143.117,88.663c-0.121,0-0.243-0.046-0.335-0.139l-2.895-2.895
                c-0.185-0.185-0.185-0.486,0-0.671c0.185-0.185,0.486-0.185,0.671,0l2.895,2.895c0.185,0.185,0.185,0.486,0,0.671
                C143.36,88.616,143.238,88.663,143.117,88.663z"/>
            <path style="fill:#FF43D1;" d="M152.592,108.002c-0.121,0-0.243-0.046-0.335-0.139l-6.661-6.662
                c-0.185-0.185-0.185-0.486,0-0.671c0.185-0.185,0.486-0.185,0.671,0l6.661,6.662c0.185,0.185,0.185,0.485,0,0.671
                C152.835,107.955,152.714,108.002,152.592,108.002z"/>
            <path style="fill:#FF43D1;" d="M143.545,98.954c-0.121,0-0.243-0.046-0.335-0.139l-4.276-4.276
                c-0.185-0.185-0.185-0.486,0-0.671c0.185-0.185,0.486-0.185,0.671,0l4.276,4.276c0.185,0.185,0.185,0.486,0,0.671
                C143.787,98.908,143.666,98.954,143.545,98.954z"/>
            <path style="fill:#FF43D1;" d="M160.244,111.824c-0.121,0-0.243-0.046-0.335-0.139l-2.794-2.794
                c-0.185-0.185-0.185-0.486,0-0.671c0.185-0.185,0.486-0.185,0.671,0l2.794,2.794c0.185,0.185,0.185,0.486,0,0.671
                C160.487,111.777,160.365,111.824,160.244,111.824z"/>
            <path style="fill:#FF43D1;" d="M156.342,107.922c-0.121,0-0.243-0.046-0.335-0.139l-9.747-9.747
                c-0.185-0.185-0.185-0.486,0-0.671c0.185-0.185,0.486-0.185,0.671,0l9.747,9.747c0.185,0.185,0.185,0.486,0,0.671
                C156.585,107.876,156.463,107.922,156.342,107.922z"/>
            <path style="fill:#FF43D1;" d="M164.174,111.477c-0.121,0-0.243-0.046-0.335-0.139l-9.581-9.581
                c-0.185-0.185-0.185-0.486,0-0.671c0.185-0.185,0.486-0.185,0.671,0l9.581,9.581c0.185,0.185,0.185,0.486,0,0.671
                C164.417,111.43,164.296,111.477,164.174,111.477z"/>
            <path style="fill:#FF43D1;" d="M152.049,99.352c-0.121,0-0.243-0.046-0.335-0.139l-1.53-1.53c-0.185-0.185-0.185-0.486,0-0.671
                c0.185-0.185,0.486-0.185,0.671,0l1.529,1.53c0.185,0.185,0.185,0.486,0,0.671C152.292,99.305,152.171,99.352,152.049,99.352z"
                />
            <path style="fill:#00DB2F;" d="M167.189,110.18c-0.121,0-0.243-0.046-0.335-0.139l-5.705-5.705
                c-0.185-0.185-0.185-0.486,0-0.671c0.185-0.185,0.486-0.185,0.671,0l5.705,5.705c0.185,0.185,0.185,0.486,0,0.671
                C167.432,110.133,167.311,110.18,167.189,110.18z"/>
            <path style="fill:#00DB2F;" d="M160.201,103.192c-0.121,0-0.243-0.046-0.335-0.139l-6.668-6.668
                c-0.185-0.185-0.185-0.486,0-0.671c0.185-0.185,0.486-0.185,0.671,0l6.668,6.668c0.185,0.185,0.185,0.486,0,0.671
                C160.444,103.146,160.323,103.192,160.201,103.192z"/>
            <path style="fill:#00DB2F;" d="M169.7,108.258c-0.121,0-0.243-0.046-0.335-0.139l-1.851-1.851c-0.185-0.185-0.185-0.486,0-0.671
                c0.185-0.185,0.485-0.185,0.671,0l1.851,1.851c0.185,0.185,0.185,0.486,0,0.671C169.943,108.212,169.822,108.258,169.7,108.258z
                "/>
            <path style="fill:#00DB2F;" d="M166.312,104.869c-0.121,0-0.243-0.046-0.335-0.139l-10.27-10.27
                c-0.185-0.185-0.185-0.486,0-0.671c0.185-0.185,0.486-0.185,0.671,0l10.27,10.27c0.185,0.185,0.185,0.486,0,0.671
                C166.555,104.823,166.433,104.869,166.312,104.869z"/>
            <path style="fill:#00DB2F;" d="M171.707,105.844c-0.121,0-0.243-0.046-0.335-0.139l-11.258-11.258
                c-0.185-0.185-0.185-0.486,0-0.671c0.185-0.185,0.486-0.185,0.671,0l11.258,11.258c0.185,0.185,0.185,0.486,0,0.671
                C171.95,105.797,171.829,105.844,171.707,105.844z"/>
            <path style="fill:#00DB2F;" d="M159.452,93.589c-0.121,0-0.243-0.046-0.335-0.139l-1.403-1.403
                c-0.185-0.185-0.185-0.486,0-0.671c0.185-0.185,0.486-0.185,0.671,0l1.403,1.403c0.185,0.185,0.185,0.486,0,0.671
                C159.695,93.542,159.574,93.589,159.452,93.589z"/>
            <path style="fill:#00DB2F;" d="M173.115,103.424c-0.121,0-0.243-0.046-0.335-0.139l-5.774-5.774
                c-0.185-0.185-0.185-0.486,0-0.671c0.185-0.185,0.485-0.185,0.671,0l5.774,5.774c0.185,0.185,0.185,0.486,0,0.671
                C173.357,103.378,173.236,103.424,173.115,103.424z"/>
            <path style="fill:#00DB2F;" d="M165.951,96.26c-0.121,0-0.243-0.046-0.335-0.139l-6.477-6.477c-0.185-0.185-0.185-0.486,0-0.671
                c0.185-0.185,0.486-0.185,0.671,0l6.477,6.477c0.185,0.185,0.185,0.486,0,0.671C166.194,96.214,166.073,96.26,165.951,96.26z"/>
            <path style="fill:#00DB2F;" d="M173.103,82.289c-0.121,0-0.243-0.046-0.335-0.139l-0.985-0.985
                c-0.185-0.185-0.185-0.486,0-0.671c0.185-0.185,0.486-0.185,0.671,0l0.985,0.985c0.185,0.185,0.185,0.486,0,0.671
                C173.346,82.243,173.224,82.289,173.103,82.289z"/>
            <path style="fill:#00DB2F;" d="M170.757,79.943c-0.121,0-0.243-0.046-0.335-0.139L159.11,68.493
                c-0.185-0.185-0.185-0.486,0-0.671c0.185-0.185,0.486-0.185,0.671,0l11.311,11.311c0.185,0.185,0.185,0.486,0,0.671
                C171,79.896,170.878,79.943,170.757,79.943z"/>
            <path style="fill:#00DB2F;" d="M170.581,83.509c-0.121,0-0.243-0.046-0.335-0.139l-13.624-13.624
                c-0.185-0.185-0.185-0.486,0-0.671c0.185-0.185,0.486-0.185,0.671,0l13.624,13.624c0.185,0.185,0.185,0.486,0,0.671
                C170.823,83.463,170.702,83.509,170.581,83.509z"/>
            <path style="fill:#0091FF;" d="M170.286,78.136c-0.121,0-0.243-0.046-0.335-0.139l-6.972-6.972
                c-0.185-0.185-0.185-0.486,0-0.671c0.185-0.185,0.485-0.185,0.671,0l6.972,6.972c0.185,0.185,0.185,0.486,0,0.671
                C170.528,78.09,170.407,78.136,170.286,78.136z"/>
            <path style="fill:#0091FF;" d="M161.22,69.07c-0.121,0-0.243-0.046-0.335-0.139l-4.592-4.592c-0.185-0.185-0.185-0.486,0-0.671
                c0.185-0.185,0.486-0.185,0.671,0l4.592,4.592c0.185,0.185,0.185,0.486,0,0.671C161.463,69.024,161.341,69.07,161.22,69.07z"/>
        </g>
        <g>
            <path style="fill:#FFFFFF;" d="M147.603,97.7c4.793,0,9.223-3.141,11.849-8.402l-5.093-2.542
                c-1.642,3.289-4.167,5.252-6.756,5.252c-4.629,0-8.539-6.083-8.539-13.283c0-7.2,3.91-13.283,8.539-13.283
                c2.589,0,5.114,1.963,6.756,5.252l5.093-2.542c-5.031-10.078-15.973-11.329-22.225-2.473
                C128.872,77.516,134.896,97.7,147.603,97.7z"/>
            <path style="fill:#FFFFFF;" d="M147.603,98.175c-4.934,0-9.326-3.016-12.051-8.274c-3.989-7.698-3.459-17.771,1.287-24.495
                c2.973-4.211,7.2-6.434,11.6-6.1c4.708,0.358,8.876,3.505,11.437,8.635c0.056,0.112,0.066,0.243,0.026,0.362
                c-0.04,0.119-0.125,0.218-0.238,0.274l-5.093,2.542c-0.234,0.117-0.519,0.022-0.636-0.213c-1.559-3.124-3.926-4.989-6.331-4.989
                c-4.371,0-8.064,5.866-8.064,12.808c0,6.943,3.693,12.808,8.064,12.808c2.405,0,4.772-1.865,6.331-4.99
                c0.117-0.234,0.402-0.329,0.636-0.213l5.093,2.542c0.113,0.056,0.198,0.155,0.238,0.274c0.04,0.119,0.031,0.25-0.026,0.362
                C157.168,94.936,152.58,98.175,147.603,98.175z M147.577,60.221c-3.773,0-7.368,2.056-9.963,5.731
                c-4.551,6.447-5.052,16.116-1.22,23.512c2.556,4.933,6.641,7.762,11.208,7.762c4.481,0,8.642-2.875,11.207-7.718l-4.246-2.119
                c-1.727,3.199-4.304,5.093-6.961,5.093c-4.886,0-9.013-6.3-9.013-13.757c0-7.457,4.128-13.757,9.013-13.757
                c2.658,0,5.234,1.894,6.961,5.093l4.246-2.119c-2.421-4.574-6.205-7.369-10.443-7.691
                C148.104,60.231,147.84,60.221,147.577,60.221z"/>
        </g>
    </g>
</svg>