<?xml version="1.0" encoding="utf-8"?>
<!-- Generator: Adobe Illustrator 27.5.0, SVG Export Plug-In . SVG Version: 6.00 Build 0)  -->
<svg version="1.1" xmlns="http://www.w3.org/2000/svg" xmlns:xlink="http://www.w3.org/1999/xlink" width="100px"
    height="100px"  viewBox="45 100 100 100">

    <g>
        <path style="fill:#0091FF;" d="M104.552,149.046c-0.121,0-0.243-0.046-0.335-0.139l-9.296-9.296
        c-0.185-0.185-0.185-0.486,0-0.671c0.185-0.185,0.486-0.185,0.671,0l9.296,9.296c0.185,0.185,0.185,0.486,0,0.671
        C104.795,148.999,104.674,149.046,104.552,149.046z" />
        <path style="fill:#0091FF;"
            d="M94.231,138.725c-0.121,0-0.243-0.046-0.335-0.139l-3.33-3.33c-0.185-0.185-0.185-0.486,0-0.671
        c0.185-0.185,0.486-0.185,0.671,0l3.33,3.33c0.185,0.185,0.185,0.486,0,0.671C94.474,138.678,94.353,138.725,94.231,138.725z" />
        <path style="fill:#0091FF;" d="M104.547,152.835c-0.121,0-0.243-0.046-0.335-0.139l-2.576-2.576
        c-0.185-0.185-0.185-0.486,0-0.671c0.185-0.185,0.486-0.185,0.671,0l2.576,2.576c0.185,0.185,0.185,0.486,0,0.671
        C104.79,152.789,104.668,152.835,104.547,152.835z" />
        <path style="fill:#0091FF;" d="M100.834,149.123c-0.121,0-0.243-0.046-0.335-0.139l-9.934-9.934
        c-0.185-0.185-0.185-0.486,0-0.671c0.185-0.185,0.486-0.185,0.671,0l9.934,9.934c0.185,0.185,0.185,0.486,0,0.671
        C101.077,149.077,100.956,149.123,100.834,149.123z" />
        <path style="fill:#0091FF;" d="M104.609,156.692c-0.121,0-0.243-0.046-0.335-0.139l-7.646-7.646
        c-0.185-0.185-0.185-0.486,0-0.671c0.185-0.185,0.486-0.185,0.671,0l7.646,7.646c0.185,0.185,0.185,0.486,0,0.671
        C104.851,156.646,104.73,156.692,104.609,156.692z" />
        <path style="fill:#0091FF;"
            d="M95.929,148.012c-0.121,0-0.243-0.046-0.335-0.139l-5.028-5.028c-0.185-0.185-0.185-0.486,0-0.671
        c0.185-0.185,0.486-0.185,0.671,0l5.028,5.028c0.185,0.185,0.185,0.486,0,0.671C96.171,147.966,96.05,148.012,95.929,148.012z" />
        <path style="fill:#0091FF;" d="M104.547,160.426c-0.121,0-0.243-0.046-0.335-0.139l-3.634-3.634
        c-0.185-0.185-0.185-0.485,0-0.671c0.185-0.185,0.486-0.185,0.671,0l3.634,3.634c0.185,0.185,0.185,0.485,0,0.671
        C104.79,160.379,104.668,160.426,104.547,160.426z" />
        <path style="fill:#0091FF;"
            d="M99.93,155.809c-0.121,0-0.243-0.046-0.335-0.139l-9.029-9.029c-0.185-0.185-0.185-0.486,0-0.671
        c0.185-0.185,0.486-0.185,0.671,0l9.029,9.029c0.185,0.185,0.185,0.486,0,0.671C100.173,155.762,100.051,155.809,99.93,155.809z" />
        <path style="fill:#0091FF;"
            d="M104.547,164.221c-0.121,0-0.243-0.046-0.335-0.139l-1.56-1.56c-0.185-0.185-0.185-0.486,0-0.671
        c0.185-0.185,0.486-0.185,0.671,0l1.56,1.56c0.185,0.185,0.185,0.486,0,0.671C104.79,164.174,104.668,164.221,104.547,164.221z" />
        <path style="fill:#0091FF;" d="M102.055,161.729c-0.121,0-0.243-0.046-0.335-0.139l-11.155-11.155
        c-0.185-0.185-0.185-0.486,0-0.671c0.185-0.185,0.486-0.185,0.671,0l11.155,11.155c0.185,0.185,0.185,0.486,0,0.671
        C102.298,161.683,102.177,161.729,102.055,161.729z" />
        <path style="fill:#0091FF;" d="M104.547,168.016c-0.121,0-0.243-0.046-0.335-0.139l-2.111-2.111
        c-0.185-0.185-0.185-0.486,0-0.671c0.185-0.185,0.486-0.185,0.671,0l2.111,2.111c0.185,0.185,0.185,0.486,0,0.671
        C104.79,167.969,104.668,168.016,104.547,168.016z" />
        <path style="fill:#0091FF;" d="M101.465,164.934c-0.121,0-0.243-0.046-0.335-0.139l-3.822-3.822
        c-0.185-0.185-0.185-0.486,0-0.671c0.185-0.185,0.486-0.185,0.671,0l3.822,3.823c0.185,0.185,0.185,0.486,0,0.671
        C101.707,164.887,101.586,164.934,101.465,164.934z" />
        <path style="fill:#0091FF;"
            d="M96.057,159.525c-0.121,0-0.243-0.046-0.335-0.139l-5.156-5.156c-0.185-0.185-0.185-0.486,0-0.671
        c0.185-0.185,0.486-0.185,0.671,0l5.156,5.156c0.185,0.185,0.185,0.486,0,0.671C96.3,159.479,96.178,159.525,96.057,159.525z" />
        <path style="fill:#0091FF;"
            d="M104.547,171.811c-0.121,0-0.243-0.046-0.335-0.139l-9.85-9.85c-0.185-0.185-0.185-0.486,0-0.671
        c0.185-0.185,0.486-0.185,0.671,0l9.85,9.85c0.185,0.185,0.185,0.486,0,0.671C104.79,171.765,104.668,171.811,104.547,171.811z" />
        <path style="fill:#0091FF;"
            d="M93.415,160.679c-0.121,0-0.243-0.046-0.335-0.139l-2.514-2.514c-0.185-0.185-0.185-0.486,0-0.671
        c0.185-0.185,0.486-0.185,0.671,0l2.514,2.514c0.185,0.185,0.185,0.486,0,0.671C93.658,160.632,93.536,160.679,93.415,160.679z" />
        <path style="fill:#00DB2F;" d="M104.547,175.606c-0.121,0-0.243-0.046-0.335-0.139l-3.496-3.496
        c-0.185-0.185-0.185-0.485,0-0.671c0.185-0.185,0.486-0.185,0.671,0l3.496,3.496c0.185,0.185,0.185,0.485,0,0.671
        C104.79,175.56,104.668,175.606,104.547,175.606z" />
        <path style="fill:#00DB2F;"
            d="M99.842,170.901c-0.122,0-0.243-0.046-0.335-0.139l-8.941-8.941c-0.185-0.185-0.185-0.486,0-0.671
        c0.185-0.185,0.486-0.185,0.671,0l8.941,8.941c0.185,0.185,0.185,0.486,0,0.671C100.085,170.855,99.963,170.901,99.842,170.901z" />
        <path style="fill:#00DB2F;" d="M104.575,179.423c-0.121,0-0.243-0.046-0.335-0.139L90.565,165.61
        c-0.185-0.185-0.185-0.486,0-0.671c0.185-0.185,0.486-0.185,0.671,0l13.674,13.674c0.185,0.185,0.185,0.486,0,0.671
        C104.818,179.377,104.697,179.423,104.575,179.423z" />
        <path style="fill:#00DB2F;" d="M104.547,183.19c-0.121,0-0.243-0.046-0.335-0.139l-11.132-11.132
        c-0.185-0.185-0.185-0.485,0-0.671c0.185-0.185,0.486-0.185,0.671,0l11.132,11.132c0.185,0.185,0.185,0.486,0,0.671
        C104.79,183.144,104.668,183.19,104.547,183.19z" />
        <path style="fill:#00DB2F;"
            d="M92.478,171.121c-0.121,0-0.243-0.046-0.335-0.139l-1.577-1.577c-0.185-0.185-0.185-0.486,0-0.671
        c0.185-0.185,0.486-0.185,0.671,0l1.577,1.577c0.185,0.185,0.185,0.486,0,0.671C92.72,171.074,92.599,171.121,92.478,171.121z" />
        <path style="fill:#FF43D1;" d="M104.555,186.993c-0.121,0-0.243-0.046-0.335-0.139l-4.239-4.239
        c-0.185-0.185-0.185-0.486,0-0.671c0.185-0.185,0.486-0.185,0.671,0l4.239,4.239c0.185,0.185,0.185,0.486,0,0.671
        C104.798,186.947,104.677,186.993,104.555,186.993z" />
        <path style="fill:#FF43D1;"
            d="M99.006,181.444c-0.121,0-0.243-0.046-0.335-0.139l-8.105-8.105c-0.185-0.185-0.185-0.486,0-0.671
        c0.185-0.185,0.486-0.185,0.671,0l8.105,8.105c0.185,0.185,0.185,0.485,0,0.671C99.249,181.398,99.128,181.444,99.006,181.444z" />
        <path style="fill:#FF43D1;"
            d="M98.863,186.993c-0.121,0-0.243-0.046-0.335-0.139l-8.734-8.735c-0.185-0.185-0.185-0.486,0-0.671
        c0.185-0.185,0.486-0.185,0.671,0l8.734,8.735c0.185,0.185,0.185,0.486,0,0.671C99.106,186.947,98.984,186.993,98.863,186.993z" />
        <path style="fill:#FF43D1;"
            d="M88.966,177.096c-0.121,0-0.243-0.046-0.335-0.139l-3.757-3.757c-0.185-0.185-0.185-0.486,0-0.671
        c0.185-0.185,0.486-0.185,0.671,0l3.757,3.757c0.185,0.185,0.185,0.485,0,0.671C89.209,177.05,89.087,177.096,88.966,177.096z" />
        <path style="fill:#FF43D1;" d="M101.709,186.993c-0.121,0-0.243-0.046-0.335-0.139l-4.012-4.012
        c-0.185-0.185-0.185-0.486,0-0.671c0.185-0.185,0.486-0.185,0.671,0l4.012,4.012c0.185,0.185,0.185,0.486,0,0.671
        C101.952,186.947,101.83,186.993,101.709,186.993z" />
        <path style="fill:#FF43D1;"
            d="M96.676,181.96c-0.121,0-0.243-0.046-0.335-0.139l-8.621-8.621c-0.185-0.185-0.185-0.486,0-0.671
        c0.185-0.185,0.486-0.185,0.671,0l8.621,8.621c0.185,0.185,0.185,0.485,0,0.671C96.919,181.914,96.797,181.96,96.676,181.96z" />
        <g>
            <rect x="85.208" y="134.921" style="fill:#FFFFFF;" width="5.693" height="37.951" />
            <path style="fill:#FFFFFF;" d="M90.901,173.346h-5.693c-0.262,0-0.474-0.212-0.474-0.474v-37.951
            c0-0.262,0.212-0.474,0.474-0.474h5.693c0.262,0,0.474,0.212,0.474,0.474v37.951C91.375,173.134,91.163,173.346,90.901,173.346z
             M85.683,172.397h4.744v-37.002h-4.744V172.397z" />
        </g>
    </g>

</svg>