<?xml version="1.0" encoding="utf-8"?>
<!-- Generator: Adobe Illustrator 27.5.0, SVG Export Plug-In . SVG Version: 6.00 Build 0)  -->
<svg version="1.1" xmlns="http://www.w3.org/2000/svg" xmlns:xlink="http://www.w3.org/1999/xlink" width="100px"
    height="100px" viewBox="155 100 100 100">

    <g>
        <path style="fill:#0091FF;" d="M208.732,149.033c-0.121,0-0.243-0.046-0.335-0.139l-10.163-10.163
        c-0.185-0.185-0.185-0.486,0-0.671c0.185-0.185,0.486-0.185,0.671,0l10.163,10.163c0.185,0.185,0.185,0.486,0,0.671
        C208.975,148.987,208.854,149.033,208.732,149.033z" />
        <path style="fill:#0091FF;" d="M197.552,137.852c-0.121,0-0.243-0.046-0.335-0.139l-2.471-2.471
        c-0.185-0.185-0.185-0.486,0-0.671c0.185-0.185,0.486-0.185,0.671,0l2.471,2.471c0.185,0.185,0.185,0.486,0,0.671
        C197.794,137.806,197.673,137.852,197.552,137.852z" />
        <path style="fill:#0091FF;"
            d="M208.727,152.823c-0.121,0-0.243-0.046-0.335-0.139l-3.79-3.79c-0.185-0.185-0.185-0.486,0-0.671
        c0.185-0.185,0.486-0.185,0.671,0l3.79,3.79c0.185,0.185,0.185,0.486,0,0.671C208.97,152.776,208.848,152.823,208.727,152.823z" />
        <path style="fill:#0091FF;" d="M203.771,147.867c-0.121,0-0.243-0.046-0.335-0.139l-2.836-2.836
        c-0.185-0.185-0.185-0.486,0-0.671c0.185-0.185,0.486-0.185,0.671,0l2.836,2.836c0.185,0.185,0.185,0.486,0,0.671
        C204.014,147.821,203.893,147.867,203.771,147.867z" />
        <path style="fill:#0091FF;"
            d="M200.184,144.28c-0.121,0-0.243-0.046-0.335-0.139l-5.103-5.103c-0.185-0.185-0.185-0.486,0-0.671
        c0.185-0.185,0.486-0.185,0.671,0l5.103,5.103c0.185,0.185,0.185,0.486,0,0.671C200.427,144.234,200.305,144.28,200.184,144.28z" />
        <path style="fill:#0091FF;" d="M208.789,156.679c-0.121,0-0.243-0.046-0.335-0.139l-1.106-1.106
        c-0.185-0.185-0.185-0.486,0-0.671c0.185-0.185,0.485-0.185,0.671,0l1.106,1.106c0.185,0.185,0.185,0.486,0,0.671
        C209.031,156.633,208.91,156.679,208.789,156.679z" />
        <path style="fill:#0091FF;" d="M206.48,154.371c-0.121,0-0.243-0.046-0.335-0.139l-11.399-11.399
        c-0.185-0.185-0.185-0.486,0-0.671c0.185-0.185,0.486-0.185,0.671,0l11.399,11.399c0.185,0.185,0.185,0.485,0,0.671
        C206.723,154.324,206.601,154.371,206.48,154.371z" />
        <path style="fill:#0091FF;" d="M208.727,160.413c-0.121,0-0.243-0.046-0.335-0.139l-11.742-11.742
        c-0.185-0.185-0.185-0.486,0-0.671s0.486-0.185,0.671,0l11.742,11.742c0.185,0.185,0.185,0.485,0,0.671
        C208.97,160.367,208.848,160.413,208.727,160.413z" />
        <path style="fill:#0091FF;" d="M196.212,147.898c-0.121,0-0.243-0.046-0.335-0.139l-1.131-1.131
        c-0.185-0.185-0.185-0.486,0-0.671c0.185-0.185,0.486-0.185,0.671,0l1.131,1.131c0.185,0.185,0.185,0.486,0,0.671
        C196.455,147.852,196.334,147.898,196.212,147.898z" />
        <path style="fill:#0091FF;" d="M208.727,164.208c-0.121,0-0.243-0.046-0.335-0.139l-4.537-4.537
        c-0.185-0.185-0.185-0.486,0-0.671c0.185-0.185,0.486-0.185,0.671,0l4.537,4.537c0.185,0.185,0.185,0.486,0,0.671
        C208.97,164.162,208.848,164.208,208.727,164.208z" />
        <path style="fill:#0091FF;"
            d="M203.091,158.572c-0.121,0-0.243-0.046-0.335-0.139l-8.01-8.01c-0.185-0.185-0.185-0.486,0-0.671
        c0.185-0.185,0.486-0.185,0.671,0l8.01,8.01c0.185,0.185,0.185,0.486,0,0.671C203.334,158.526,203.212,158.572,203.091,158.572z" />
        <path style="fill:#FF43D1;" d="M215.262,184.053c-0.121,0-0.243-0.046-0.335-0.139l-10.698-10.698
        c-0.185-0.185-0.185-0.486,0-0.671c0.185-0.185,0.486-0.185,0.671,0l10.699,10.698c0.185,0.185,0.185,0.486,0,0.671
        C215.505,184.007,215.384,184.053,215.262,184.053z" />
        <path style="fill:#FF43D1;" d="M218.215,187.006c-0.121,0-0.243-0.046-0.335-0.139l-2.182-2.182
        c-0.185-0.185-0.185-0.486,0-0.671c0.185-0.185,0.486-0.185,0.671,0l2.182,2.182c0.185,0.185,0.185,0.486,0,0.671
        C218.458,186.96,218.337,187.006,218.215,187.006z" />
        <path style="fill:#FF43D1;" d="M210.412,175.136c-0.121,0-0.243-0.046-0.335-0.139l-1.781-1.781
        c-0.185-0.185-0.185-0.486,0-0.671c0.185-0.185,0.486-0.185,0.671,0l1.781,1.781c0.185,0.185,0.185,0.486,0,0.671
        C210.655,175.089,210.533,175.136,210.412,175.136z" />
        <path style="fill:#FF43D1;" d="M222.283,187.006c-0.121,0-0.243-0.046-0.335-0.139l-10.893-10.893
        c-0.185-0.185-0.185-0.485,0-0.671c0.185-0.185,0.486-0.185,0.671,0l10.893,10.893c0.185,0.185,0.185,0.486,0,0.671
        C222.525,186.96,222.404,187.006,222.283,187.006z" />
        <path style="fill:#FF43D1;" d="M203.308,175.893c-0.121,0-0.243-0.046-0.335-0.139l-2.533-2.533
        c-0.185-0.185-0.185-0.486,0-0.671c0.185-0.185,0.486-0.185,0.671,0l2.533,2.533c0.185,0.185,0.185,0.486,0,0.671
        C203.55,175.847,203.429,175.893,203.308,175.893z" />
        <path style="fill:#FF43D1;" d="M209.522,182.107c-0.121,0-0.243-0.046-0.335-0.139l-5.332-5.332
        c-0.185-0.185-0.185-0.486,0-0.671s0.486-0.185,0.671,0l5.332,5.332c0.185,0.185,0.185,0.486,0,0.671
        C209.764,182.061,209.643,182.107,209.522,182.107z" />
        <path style="fill:#FF43D1;"
            d="M214.42,187.006c-0.121,0-0.243-0.046-0.335-0.139l-4.008-4.008c-0.185-0.185-0.185-0.486,0-0.671
        c0.185-0.185,0.486-0.185,0.671,0l4.008,4.008c0.185,0.185,0.185,0.486,0,0.671C214.663,186.96,214.542,187.006,214.42,187.006z" />
        <path style="fill:#FF43D1;" d="M205.431,181.812c-0.121,0-0.243-0.046-0.335-0.139l-8.514-8.514
        c-0.185-0.185-0.185-0.485,0-0.671c0.185-0.185,0.486-0.185,0.671,0l8.513,8.514c0.185,0.185,0.185,0.485,0,0.671
        C205.674,181.766,205.553,181.812,205.431,181.812z" />
        <path style="fill:#FF43D1;" d="M210.625,187.006c-0.121,0-0.243-0.046-0.335-0.139l-4.436-4.436
        c-0.185-0.185-0.185-0.486,0-0.671c0.185-0.185,0.486-0.185,0.671,0l4.436,4.437c0.185,0.185,0.185,0.486,0,0.671
        C210.868,186.96,210.747,187.006,210.625,187.006z" />
        <path style="fill:#FF43D1;" d="M199.265,179.441c-0.121,0-0.243-0.046-0.335-0.139l-6.081-6.081
        c-0.185-0.185-0.185-0.486,0-0.671c0.185-0.185,0.485-0.185,0.671,0l6.081,6.081c0.185,0.185,0.185,0.486,0,0.671
        C199.508,179.395,199.387,179.441,199.265,179.441z" />
        <path style="fill:#FF43D1;"
            d="M206.83,187.006c-0.121,0-0.243-0.046-0.335-0.139l-6.349-6.349c-0.185-0.185-0.185-0.485,0-0.671
        s0.486-0.185,0.671,0l6.349,6.349c0.185,0.185,0.185,0.486,0,0.671C207.073,186.96,206.952,187.006,206.83,187.006z" />
        <path style="fill:#FF43D1;" d="M199.861,183.832c-0.121,0-0.243-0.046-0.335-0.139l-10.472-10.472
        c-0.185-0.185-0.185-0.486,0-0.671c0.185-0.185,0.486-0.185,0.671,0l10.472,10.472c0.185,0.185,0.185,0.486,0,0.671
        C200.104,183.785,199.982,183.832,199.861,183.832z" />
        <path style="fill:#FF43D1;" d="M203.035,187.006c-0.121,0-0.243-0.046-0.335-0.139l-2.182-2.182
        c-0.185-0.185-0.185-0.486,0-0.671c0.185-0.185,0.485-0.185,0.671,0l2.182,2.182c0.185,0.185,0.185,0.486,0,0.671
        C203.278,186.96,203.157,187.006,203.035,187.006z" />
        <path style="fill:#0091FF;" d="M208.727,168.003c-0.121,0-0.243-0.046-0.335-0.139l-8.569-8.569
        c-0.185-0.185-0.185-0.486,0-0.671s0.486-0.185,0.671,0l8.569,8.569c0.185,0.185,0.185,0.486,0,0.671
        C208.97,167.957,208.848,168.003,208.727,168.003z" />
        <path style="fill:#0091FF;" d="M199.086,158.362c-0.121,0-0.243-0.046-0.335-0.139l-4.005-4.005
        c-0.185-0.185-0.185-0.485,0-0.671c0.185-0.185,0.486-0.185,0.671,0l4.005,4.005c0.185,0.185,0.185,0.486,0,0.671
        C199.329,158.316,199.207,158.362,199.086,158.362z" />
        <path style="fill:#00DB2F;" d="M208.727,171.798c-0.121,0-0.243-0.046-0.335-0.139l-5.076-5.076
        c-0.185-0.185-0.185-0.486,0-0.671c0.185-0.185,0.486-0.185,0.671,0l5.076,5.076c0.185,0.185,0.185,0.486,0,0.671
        C208.97,171.752,208.848,171.798,208.727,171.798z" />
        <path style="fill:#00DB2F;" d="M202.796,165.867c-0.121,0-0.243-0.046-0.335-0.139l-7.715-7.715
        c-0.185-0.185-0.185-0.486,0-0.671c0.185-0.185,0.486-0.185,0.671,0l7.715,7.715c0.185,0.185,0.185,0.486,0,0.671
        C203.039,165.821,202.918,165.867,202.796,165.867z" />
        <path style="fill:#00DB2F;" d="M202.355,169.221c-0.121,0-0.243-0.046-0.335-0.139l-7.274-7.274
        c-0.185-0.185-0.185-0.486,0-0.671c0.185-0.185,0.486-0.185,0.671,0l7.274,7.274c0.185,0.185,0.185,0.486,0,0.671
        C202.598,169.175,202.477,169.221,202.355,169.221z" />
        <path style="fill:#00DB2F;" d="M198.676,169.331c-0.121,0-0.243-0.046-0.335-0.139l-3.595-3.595
        c-0.185-0.185-0.185-0.486,0-0.671c0.185-0.185,0.486-0.185,0.671,0l3.595,3.595c0.185,0.185,0.185,0.486,0,0.671
        C198.919,169.285,198.797,169.331,198.676,169.331z" />
        <path style="fill:#00DB2F;" d="M225.806,181.275c-0.121,0-0.243-0.046-0.335-0.139l-7.424-7.424
        c-0.185-0.185-0.185-0.486,0-0.671s0.486-0.185,0.671,0l7.424,7.424c0.185,0.185,0.185,0.486,0,0.671
        C226.048,181.229,225.927,181.275,225.806,181.275z" />
        <path style="fill:#00DB2F;" d="M217.117,172.587c-0.121,0-0.243-0.046-0.335-0.139l-4.958-4.958
        c-0.185-0.185-0.185-0.485,0-0.671c0.185-0.185,0.485-0.185,0.671,0l4.958,4.958c0.185,0.185,0.185,0.485,0,0.671
        C217.36,172.541,217.239,172.587,217.117,172.587z" />
        <path style="fill:#FF43D1;" d="M225.814,186.987c-0.121,0-0.243-0.046-0.335-0.139l-5.487-5.487
        c-0.185-0.185-0.185-0.486,0-0.671c0.185-0.185,0.486-0.185,0.671,0l5.487,5.487c0.185,0.185,0.185,0.486,0,0.671
        C226.057,186.941,225.935,186.987,225.814,186.987z" />
        <path style="fill:#FF43D1;" d="M219.236,180.409c-0.121,0-0.243-0.046-0.335-0.139l-7.077-7.077
        c-0.185-0.185-0.185-0.486,0-0.671c0.185-0.185,0.485-0.185,0.671,0l7.077,7.077c0.185,0.185,0.185,0.486,0,0.671
        C219.479,180.363,219.358,180.409,219.236,180.409z" />
        <path style="fill:#00DB2F;" d="M225.814,184.053c-0.121,0-0.243-0.046-0.335-0.139l-0.847-0.847
        c-0.185-0.185-0.185-0.486,0-0.671c0.185-0.185,0.486-0.185,0.671,0l0.847,0.847c0.185,0.185,0.185,0.486,0,0.671
        C226.057,184.007,225.935,184.053,225.814,184.053z" />
        <path style="fill:#00DB2F;" d="M224.095,182.334c-0.121,0-0.243-0.046-0.335-0.139l-11.935-11.935
        c-0.185-0.185-0.185-0.486,0-0.671c0.185-0.185,0.485-0.185,0.671,0l11.935,11.935c0.185,0.185,0.185,0.486,0,0.671
        C224.338,182.287,224.216,182.334,224.095,182.334z" />
        <g>
            <path style="fill:#FFFFFF;"
                d="M189.389,134.907c0,0.992,0,35.173,0,37.951h22.77v-5.693h-17.078v-32.258H189.389z" />
            <path style="fill:#FFFFFF;" d="M212.159,173.332h-22.77c-0.262,0-0.474-0.212-0.474-0.474v-37.951
            c0-0.262,0.212-0.474,0.474-0.474h5.693c0.262,0,0.474,0.212,0.474,0.474v31.784h16.603c0.262,0,0.474,0.212,0.474,0.474v5.693
            C212.634,173.12,212.421,173.332,212.159,173.332z M189.863,172.383h21.822v-4.744h-16.604c-0.262,0-0.474-0.212-0.474-0.474
            v-31.784h-4.744V172.383z" />
        </g>
    </g>


</svg>