<?xml version="1.0" encoding="utf-8"?>
<!-- Generator: Adobe Illustrator 27.5.0, SVG Export Plug-In . SVG Version: 6.00 Build 0)  -->
<svg version="1.1" xmlns="http://www.w3.org/2000/svg" xmlns:xlink="http://www.w3.org/1999/xlink" width="100px"
    height="100px"  viewBox="225 175 100 100">

    <g>
        <g>
            <path style="fill:#0091FF;"
                d="M299.751,237.889c-0.121,0-0.243-0.046-0.335-0.139l-1.41-1.41c-0.185-0.185-0.185-0.485,0-0.671
            s0.486-0.185,0.671,0l1.41,1.41c0.185,0.185,0.185,0.485,0,0.671C299.994,237.842,299.873,237.889,299.751,237.889z" />
            <path style="fill:#0091FF;" d="M297.221,235.358c-0.121,0-0.243-0.046-0.335-0.139l-7.334-7.334
            c-0.185-0.185-0.185-0.486,0-0.671c0.185-0.185,0.485-0.185,0.671,0l7.334,7.334c0.185,0.185,0.185,0.486,0,0.671
            C297.464,235.312,297.342,235.358,297.221,235.358z" />
            <path style="fill:#0091FF;" d="M288.67,226.807c-0.121,0-0.243-0.046-0.335-0.139l-14.031-14.031
            c-0.185-0.185-0.185-0.485,0-0.671c0.185-0.185,0.486-0.185,0.671,0l14.031,14.031c0.185,0.185,0.185,0.486,0,0.671
            C288.913,226.761,288.791,226.807,288.67,226.807z" />
            <path style="fill:#0091FF;" d="M273.516,211.653c-0.121,0-0.243-0.046-0.335-0.139l-2.604-2.604
            c-0.185-0.185-0.185-0.486,0-0.671s0.486-0.185,0.671,0l2.604,2.604c0.185,0.185,0.185,0.486,0,0.671
            C273.758,211.607,273.637,211.653,273.516,211.653z" />
            <path style="fill:#0091FF;" d="M299.807,241.739c-0.121,0-0.243-0.046-0.335-0.139l-0.761-0.761
            c-0.185-0.185-0.185-0.486,0-0.671c0.185-0.185,0.486-0.185,0.671,0l0.761,0.761c0.185,0.185,0.185,0.485,0,0.671
            C300.05,241.693,299.928,241.739,299.807,241.739z" />
            <path style="fill:#0091FF;" d="M297.794,239.727c-0.121,0-0.243-0.046-0.335-0.139l-4.112-4.112
            c-0.185-0.185-0.185-0.486,0-0.671c0.185-0.185,0.486-0.185,0.671,0l4.112,4.112c0.185,0.185,0.185,0.486,0,0.671
            C298.037,239.68,297.916,239.727,297.794,239.727z" />
            <path style="fill:#0091FF;" d="M292.683,234.615c-0.121,0-0.243-0.046-0.335-0.139l-13.622-13.622
            c-0.185-0.185-0.185-0.486,0-0.671c0.185-0.185,0.486-0.185,0.671,0l13.622,13.622c0.185,0.185,0.185,0.486,0,0.671
            C292.926,234.569,292.804,234.615,292.683,234.615z" />
            <path style="fill:#0091FF;" d="M278.246,220.178c-0.121,0-0.243-0.046-0.335-0.139l-7.334-7.334
            c-0.185-0.185-0.185-0.486,0-0.671s0.486-0.185,0.671,0l7.334,7.334c0.185,0.185,0.185,0.486,0,0.671
            C278.488,220.132,278.367,220.178,278.246,220.178z" />
            <path style="fill:#0091FF;" d="M299.751,245.479c-0.121,0-0.243-0.046-0.335-0.139l-9.183-9.183
            c-0.185-0.185-0.185-0.486,0-0.671c0.185-0.185,0.486-0.185,0.671,0l9.183,9.183c0.185,0.185,0.185,0.486,0,0.671
            C299.994,245.432,299.873,245.479,299.751,245.479z" />
            <path style="fill:#0091FF;" d="M289.559,235.287c-0.121,0-0.243-0.046-0.335-0.139l-15.619-15.619
            c-0.185-0.185-0.185-0.486,0-0.671c0.185-0.185,0.486-0.185,0.671,0l15.619,15.619c0.185,0.185,0.185,0.485,0,0.671
            C289.802,235.24,289.681,235.287,289.559,235.287z" />
            <path style="fill:#0091FF;" d="M273.005,218.733c-0.121,0-0.243-0.046-0.335-0.139l-2.093-2.093
            c-0.185-0.185-0.185-0.486,0-0.671c0.185-0.185,0.486-0.185,0.671,0l2.093,2.093c0.185,0.185,0.185,0.485,0,0.671
            C273.248,218.686,273.127,218.733,273.005,218.733z" />
            <path style="fill:#00DB2F;" d="M299.751,249.274c-0.121,0-0.243-0.046-0.335-0.139l-5.461-5.461
            c-0.185-0.185-0.185-0.485,0-0.671s0.486-0.185,0.671,0l5.461,5.461c0.185,0.185,0.185,0.486,0,0.671
            C299.994,249.227,299.873,249.274,299.751,249.274z" />
            <path style="fill:#00DB2F;" d="M292.948,242.471c-0.121,0-0.243-0.046-0.335-0.139l-8.796-8.796
            c-0.185-0.185-0.185-0.486,0-0.671c0.185-0.185,0.485-0.185,0.671,0l8.796,8.796c0.185,0.185,0.185,0.485,0,0.671
            C293.191,242.424,293.07,242.471,292.948,242.471z" />
            <path style="fill:#0091FF;" d="M281.537,231.059c-0.121,0-0.243-0.046-0.335-0.139l-3.802-3.801
            c-0.185-0.185-0.185-0.486,0-0.671s0.486-0.185,0.671,0l3.802,3.801c0.185,0.185,0.185,0.485,0,0.671
            C281.779,231.013,281.658,231.059,281.537,231.059z" />
            <path style="fill:#0091FF;" d="M276.558,226.081c-0.121,0-0.243-0.046-0.335-0.139l-5.646-5.646
            c-0.185-0.185-0.185-0.486,0-0.671c0.185-0.185,0.486-0.185,0.671,0l5.646,5.646c0.185,0.185,0.185,0.486,0,0.671
            C276.801,226.034,276.679,226.081,276.558,226.081z" />
            <path style="fill:#00DB2F;" d="M299.439,252.757c-0.121,0-0.243-0.046-0.335-0.139l-10.769-10.769
            c-0.185-0.185-0.185-0.486,0-0.671s0.486-0.185,0.671,0l10.769,10.769c0.185,0.185,0.185,0.486,0,0.671
            C299.682,252.71,299.561,252.757,299.439,252.757z" />
            <path style="fill:#00DB2F;" d="M287.661,240.979c-0.121,0-0.243-0.046-0.336-0.139l-8.545-8.545
            c-0.185-0.185-0.185-0.486,0-0.671c0.185-0.185,0.486-0.185,0.671,0l8.546,8.545c0.185,0.185,0.185,0.486,0,0.671
            C287.904,240.932,287.783,240.979,287.661,240.979z" />
            <path style="fill:#00DB2F;" d="M278.049,231.366c-0.121,0-0.243-0.046-0.335-0.139l-7.137-7.137
            c-0.185-0.185-0.185-0.486,0-0.671c0.185-0.185,0.486-0.185,0.671,0l7.137,7.137c0.185,0.185,0.185,0.486,0,0.671
            C278.291,231.32,278.17,231.366,278.049,231.366z" />
            <path style="fill:#00DB2F;" d="M298.341,255.454c-0.121,0-0.243-0.046-0.335-0.139l-1.433-1.433
            c-0.185-0.185-0.185-0.486,0-0.671c0.185-0.185,0.486-0.185,0.671,0l1.433,1.433c0.185,0.185,0.185,0.485,0,0.671
            C298.584,255.408,298.463,255.454,298.341,255.454z" />
            <path style="fill:#00DB2F;" d="M295.644,252.757c-0.121,0-0.243-0.046-0.335-0.139l-4.188-4.188
            c-0.185-0.185-0.185-0.486,0-0.671c0.185-0.185,0.486-0.185,0.671,0l4.188,4.188c0.185,0.185,0.185,0.486,0,0.671
            C295.887,252.71,295.765,252.757,295.644,252.757z" />
            <path style="fill:#00DB2F;" d="M290.259,247.372c-0.121,0-0.243-0.046-0.335-0.139l-14.19-14.19
            c-0.185-0.185-0.185-0.486,0-0.671c0.185-0.185,0.485-0.185,0.671,0l14.19,14.19c0.185,0.185,0.185,0.486,0,0.671
            C290.502,247.326,290.381,247.372,290.259,247.372z" />
            <path style="fill:#00DB2F;" d="M274.997,232.11c-0.121,0-0.243-0.046-0.335-0.139l-4.085-4.085
            c-0.185-0.185-0.185-0.486,0-0.671s0.486-0.185,0.671,0l4.085,4.085c0.185,0.185,0.185,0.486,0,0.671
            C275.24,232.064,275.119,232.11,274.997,232.11z" />
            <path style="fill:#00DB2F;"
                d="M296.69,257.598c-0.121,0-0.243-0.046-0.335-0.139l-5.38-5.38c-0.185-0.185-0.185-0.485,0-0.671
            c0.185-0.185,0.485-0.185,0.671,0l5.38,5.38c0.185,0.185,0.185,0.486,0,0.671C296.933,257.551,296.811,257.598,296.69,257.598z" />
            <path style="fill:#00DB2F;" d="M290.114,251.022c-0.121,0-0.243-0.046-0.335-0.139l-13.133-13.133
            c-0.185-0.185-0.185-0.485,0-0.671s0.486-0.185,0.671,0l13.133,13.133c0.185,0.185,0.185,0.486,0,0.671
            C290.357,250.975,290.235,251.022,290.114,251.022z" />
            <path style="fill:#00DB2F;" d="M275.928,236.836c-0.121,0-0.243-0.046-0.335-0.139l-5.016-5.016
            c-0.185-0.185-0.185-0.485,0-0.671s0.486-0.185,0.671,0l5.016,5.016c0.185,0.185,0.185,0.486,0,0.671
            C276.171,236.79,276.05,236.836,275.928,236.836z" />
            <path style="fill:#00DB2F;" d="M294.546,259.249c-0.121,0-0.243-0.046-0.335-0.139l-9.324-9.324
            c-0.185-0.185-0.185-0.486,0-0.671c0.185-0.185,0.486-0.185,0.671,0l9.323,9.324c0.185,0.185,0.185,0.485,0,0.671
            C294.788,259.202,294.667,259.249,294.546,259.249z" />
            <path style="fill:#00DB2F;" d="M284.152,248.855c-0.121,0-0.243-0.046-0.335-0.139l-10.967-10.967
            c-0.185-0.185-0.185-0.485,0-0.671c0.185-0.185,0.486-0.185,0.671,0l10.966,10.967c0.185,0.185,0.185,0.486,0,0.671
            C284.395,248.809,284.274,248.855,284.152,248.855z" />
            <path style="fill:#00DB2F;" d="M272.347,237.05c-0.121,0-0.243-0.046-0.335-0.139l-1.435-1.435
            c-0.185-0.185-0.185-0.486,0-0.671c0.185-0.185,0.486-0.185,0.671,0l1.435,1.435c0.185,0.185,0.185,0.485,0,0.671
            C272.59,237.004,272.469,237.05,272.347,237.05z" />
            <path style="fill:#FF43D1;" d="M292.125,260.273c-0.121,0-0.243-0.046-0.335-0.139l-3.199-3.199
            c-0.185-0.185-0.185-0.485,0-0.671s0.486-0.185,0.671,0l3.199,3.199c0.185,0.185,0.185,0.486,0,0.671
            C292.368,260.226,292.247,260.273,292.125,260.273z" />
            <path style="fill:#FF43D1;" d="M287.957,256.104c-0.121,0-0.243-0.046-0.335-0.139l-12.433-12.433
            c-0.185-0.185-0.185-0.486,0-0.671c0.185-0.185,0.486-0.185,0.671,0l12.433,12.433c0.185,0.185,0.185,0.486,0,0.671
            C288.2,256.058,288.078,256.104,287.957,256.104z" />
            <path style="fill:#FF43D1;" d="M289.036,260.653c-0.121,0-0.243-0.046-0.335-0.139l-6.066-6.067
            c-0.185-0.185-0.185-0.486,0-0.671c0.185-0.185,0.486-0.185,0.671,0l6.066,6.067c0.185,0.185,0.185,0.485,0,0.671
            C289.278,260.607,289.157,260.653,289.036,260.653z" />
            <path style="fill:#FF43D1;" d="M282.031,253.649c-0.121,0-0.243-0.046-0.335-0.139l-10.676-10.675
            c-0.185-0.185-0.185-0.486,0-0.671s0.486-0.185,0.671,0l10.675,10.676c0.185,0.185,0.185,0.485,0,0.671
            C282.274,253.602,282.152,253.649,282.031,253.649z" />
            <path style="fill:#FF43D1;" d="M282.148,257.798c-0.121,0-0.243-0.046-0.335-0.139l-7.911-7.91
            c-0.185-0.185-0.185-0.485,0-0.671c0.185-0.185,0.485-0.185,0.671,0l7.91,7.91c0.185,0.185,0.185,0.486,0,0.671
            C282.391,257.752,282.27,257.798,282.148,257.798z" />
            <path style="fill:#FF43D1;" d="M273.205,248.855c-0.121,0-0.243-0.046-0.335-0.139l-4.61-4.61c-0.185-0.185-0.185-0.486,0-0.671
            c0.185-0.185,0.485-0.185,0.671,0l4.61,4.61c0.185,0.185,0.185,0.486,0,0.671C273.447,248.809,273.326,248.855,273.205,248.855z
            " />
        </g>
        <g>
            <path style="fill:#0091FF;" d="M299.746,222.701c-0.121,0-0.243-0.046-0.335-0.139l-10.469-10.468
            c-0.185-0.185-0.185-0.486,0-0.671c0.185-0.185,0.486-0.185,0.671,0l10.469,10.468c0.185,0.185,0.185,0.486,0,0.671
            C299.989,222.654,299.867,222.701,299.746,222.701z" />
            <path style="fill:#0091FF;" d="M288.323,211.278c-0.121,0-0.243-0.046-0.335-0.139l-2.228-2.229
            c-0.185-0.185-0.185-0.486,0-0.671c0.185-0.185,0.485-0.185,0.671,0l2.229,2.229c0.185,0.185,0.185,0.486,0,0.671
            C288.566,211.232,288.444,211.278,288.323,211.278z" />
            <path style="fill:#0091FF;" d="M299.74,226.49c-0.121,0-0.243-0.046-0.335-0.139l-3.608-3.609c-0.185-0.185-0.185-0.485,0-0.671
            s0.486-0.185,0.671,0l3.608,3.608c0.185,0.185,0.185,0.486,0,0.671C299.983,226.444,299.862,226.49,299.74,226.49z" />
            <path style="fill:#0091FF;" d="M295.042,221.792c-0.121,0-0.243-0.046-0.335-0.139l-8.947-8.947
            c-0.185-0.185-0.185-0.486,0-0.671c0.185-0.185,0.485-0.185,0.671,0l8.948,8.947c0.185,0.185,0.185,0.486,0,0.671
            C295.285,221.745,295.163,221.792,295.042,221.792z" />
            <path style="fill:#0091FF;" d="M299.802,230.347c-0.121,0-0.243-0.046-0.335-0.139L285.759,216.5
            c-0.185-0.185-0.185-0.486,0-0.671c0.185-0.185,0.485-0.185,0.671,0l13.708,13.708c0.185,0.185,0.185,0.486,0,0.671
            C300.045,230.301,299.923,230.347,299.802,230.347z" />
            <path style="fill:#0091FF;" d="M299.74,234.081c-0.121,0-0.243-0.046-0.335-0.139l-5.665-5.665
            c-0.185-0.185-0.185-0.485,0-0.671s0.486-0.185,0.671,0l5.665,5.665c0.185,0.185,0.185,0.486,0,0.671
            C299.983,234.034,299.862,234.081,299.74,234.081z" />
            <path style="fill:#0091FF;" d="M293.024,227.365c-0.121,0-0.243-0.046-0.335-0.139l-6.93-6.93c-0.185-0.185-0.185-0.486,0-0.671
            c0.185-0.185,0.485-0.185,0.671,0l6.93,6.93c0.185,0.185,0.185,0.486,0,0.671C293.267,227.318,293.146,227.365,293.024,227.365z
            " />
        </g>
        <g>
            <path style="fill:#FFFFFF;" d="M280.402,236.089L280.402,236.089c0,2.616-2.128,4.744-4.744,4.744
            c-2.616,0-4.744-2.128-4.744-4.744l0,0v-27.514h-5.693v27.514l0,0c0,5.755,4.682,10.437,10.437,10.437
            s10.436-4.682,10.436-10.437l0,0v-27.514h-5.693V236.089z" />
            <path style="fill:#FFFFFF;" d="M275.658,247c-6.016,0-10.911-4.895-10.911-10.911v-27.514c0-0.262,0.212-0.474,0.474-0.474
            h5.693c0.262,0,0.474,0.212,0.474,0.474v27.514c0,2.354,1.915,4.27,4.269,4.27c2.354,0,4.27-1.915,4.27-4.27v-27.514
            c0-0.262,0.212-0.474,0.474-0.474h5.693c0.262,0,0.474,0.212,0.474,0.474v27.514C286.569,242.105,281.674,247,275.658,247z
             M265.696,209.049v27.04c0,5.493,4.469,9.962,9.962,9.962c5.493,0,9.962-4.469,9.962-9.962v-27.04h-4.744v27.04
            c0,2.877-2.341,5.218-5.218,5.218c-2.877,0-5.218-2.341-5.218-5.218v-27.04H265.696z" />
        </g>
    </g>
 
</svg>