<?xml version="1.0" encoding="utf-8"?>
<!-- Generator: Adobe Illustrator 27.5.0, SVG Export Plug-In . SVG Version: 6.00 Build 0)  -->
<svg version="1.1" xmlns="http://www.w3.org/2000/svg" xmlns:xlink="http://www.w3.org/1999/xlink" width="100px"
    height="100px" viewBox="130 255 100 100">

    <g>
        <g>
            <path style="fill:#0091FF;" d="M184.207,338.386c-0.121,0-0.243-0.046-0.335-0.139l-2.471-2.471
            c-0.185-0.185-0.185-0.486,0-0.671s0.486-0.185,0.671,0l2.471,2.471c0.185,0.185,0.185,0.486,0,0.671
            C184.45,338.34,184.328,338.386,184.207,338.386z" />
            <path style="fill:#0091FF;" d="M180.597,334.776c-0.121,0-0.243-0.046-0.335-0.139l-10.045-10.045
            c-0.185-0.185-0.185-0.486,0-0.671c0.185-0.185,0.485-0.185,0.671,0l10.045,10.045c0.185,0.185,0.185,0.486,0,0.671
            C180.84,334.73,180.719,334.776,180.597,334.776z" />
            <path style="fill:#0091FF;" d="M185.062,336.164c-0.121,0-0.243-0.046-0.335-0.139l-0.936-0.936
            c-0.185-0.185-0.185-0.486,0-0.671c0.185-0.185,0.486-0.185,0.671,0l0.936,0.936c0.185,0.185,0.185,0.486,0,0.671
            C185.304,336.118,185.183,336.164,185.062,336.164z" />
            <path style="fill:#0091FF;" d="M183.286,334.389c-0.121,0-0.243-0.046-0.335-0.139l-4.51-4.511
            c-0.185-0.185-0.185-0.485,0-0.671c0.185-0.185,0.486-0.185,0.671,0l4.51,4.511c0.185,0.185,0.185,0.486,0,0.671
            C183.529,334.342,183.407,334.389,183.286,334.389z" />
            <path style="fill:#0091FF;" d="M177.928,329.03c-0.121,0-0.243-0.046-0.335-0.139l-6.506-6.506
            c-0.185-0.185-0.185-0.486,0-0.671c0.185-0.185,0.486-0.185,0.671,0l6.506,6.506c0.185,0.185,0.185,0.486,0,0.671
            C178.171,328.984,178.049,329.03,177.928,329.03z" />
            <path style="fill:#0091FF;" d="M196.248,308.199c-0.121,0-0.243-0.046-0.335-0.139l-7.256-7.256
            c-0.185-0.185-0.185-0.486,0-0.671s0.486-0.185,0.671,0l7.256,7.256c0.185,0.185,0.185,0.486,0,0.671
            C196.491,308.152,196.369,308.199,196.248,308.199z" />
            <path style="fill:#0091FF;" d="M187.884,299.835c-0.121,0-0.243-0.046-0.335-0.139l-6.148-6.148
            c-0.185-0.185-0.185-0.486,0-0.671s0.486-0.185,0.671,0l6.148,6.148c0.185,0.185,0.185,0.486,0,0.671
            C188.127,299.788,188.005,299.835,187.884,299.835z" />
            <path style="fill:#0091FF;" d="M197.332,305.488c-0.121,0-0.243-0.046-0.335-0.139l-2.945-2.945
            c-0.185-0.185-0.185-0.486,0-0.671s0.485-0.185,0.671,0l2.945,2.945c0.185,0.185,0.185,0.486,0,0.671
            C197.575,305.441,197.454,305.488,197.332,305.488z" />
            <path style="fill:#0091FF;" d="M193.315,301.471c-0.121,0-0.243-0.046-0.335-0.139l-10.862-10.862
            c-0.185-0.185-0.185-0.486,0-0.671c0.185-0.185,0.486-0.185,0.671,0l10.862,10.862c0.185,0.185,0.185,0.486,0,0.671
            C193.558,301.424,193.437,301.471,193.315,301.471z" />
            <path style="fill:#0091FF;" d="M198.417,302.777c-0.121,0-0.243-0.046-0.335-0.139l-8.524-8.524
            c-0.185-0.185-0.185-0.486,0-0.671c0.185-0.185,0.485-0.185,0.671,0l8.524,8.524c0.185,0.185,0.185,0.486,0,0.671
            C198.659,302.73,198.538,302.777,198.417,302.777z" />
            <path style="fill:#0091FF;" d="M188.709,293.069c-0.121,0-0.243-0.046-0.335-0.139l-3.949-3.949
            c-0.185-0.185-0.185-0.486,0-0.671c0.185-0.185,0.486-0.185,0.671,0l3.949,3.949c0.185,0.185,0.185,0.486,0,0.671
            C188.951,293.023,188.83,293.069,188.709,293.069z" />
            <path style="fill:#0091FF;" d="M195.164,310.909c-0.121,0-0.243-0.046-0.335-0.139l-2.711-2.711
            c-0.185-0.185-0.185-0.486,0-0.671s0.486-0.185,0.671,0l2.711,2.711c0.185,0.185,0.185,0.486,0,0.671
            C195.406,310.863,195.285,310.909,195.164,310.909z" />
            <path style="fill:#0091FF;" d="M191.519,307.264c-0.121,0-0.243-0.046-0.335-0.139l-11.285-11.285
            c-0.185-0.185-0.185-0.486,0-0.671s0.486-0.185,0.671,0l11.285,11.285c0.185,0.185,0.185,0.485,0,0.671
            C191.761,307.218,191.64,307.264,191.519,307.264z" />
            <path style="fill:#0091FF;" d="M194.079,313.62c-0.121,0-0.243-0.046-0.335-0.139l-9.605-9.605
            c-0.185-0.185-0.185-0.486,0-0.671c0.185-0.185,0.486-0.185,0.671,0l9.605,9.605c0.185,0.185,0.185,0.486,0,0.671
            C194.322,313.574,194.201,313.62,194.079,313.62z" />
            <path style="fill:#0091FF;" d="M183.68,303.221c-0.121,0-0.243-0.046-0.335-0.139l-9.465-9.465
            c-0.185-0.185-0.185-0.486,0-0.671c0.185-0.185,0.485-0.185,0.671,0l9.465,9.465c0.185,0.185,0.185,0.486,0,0.671
            C183.923,303.174,183.801,303.221,183.68,303.221z" />
            <path style="fill:#0091FF;" d="M172.865,292.405c-0.121,0-0.243-0.046-0.335-0.139l-3.285-3.286
            c-0.185-0.185-0.185-0.485,0-0.671c0.185-0.185,0.485-0.185,0.671,0l3.285,3.285c0.185,0.185,0.185,0.486,0,0.671
            C173.108,292.359,172.986,292.405,172.865,292.405z" />
            <path style="fill:#0091FF;" d="M192.995,316.331c-0.121,0-0.243-0.046-0.335-0.139l-4.942-4.942
            c-0.185-0.185-0.185-0.485,0-0.671c0.185-0.185,0.485-0.185,0.671,0l4.942,4.942c0.185,0.185,0.185,0.486,0,0.671
            C193.238,316.284,193.116,316.331,192.995,316.331z" />
            <path style="fill:#0091FF;" d="M186.997,310.333c-0.121,0-0.243-0.046-0.335-0.139l-16.442-16.443
            c-0.185-0.185-0.185-0.486,0-0.671c0.185-0.185,0.486-0.185,0.671,0l16.442,16.443c0.185,0.185,0.185,0.486,0,0.671
            C187.24,310.286,187.118,310.333,186.997,310.333z" />
            <path style="fill:#0091FF;" d="M191.911,319.042c-0.121,0-0.243-0.046-0.335-0.139l-9.928-9.928
            c-0.185-0.185-0.185-0.486,0-0.671c0.185-0.185,0.486-0.185,0.671,0l9.928,9.928c0.185,0.185,0.185,0.485,0,0.671
            C192.154,318.995,192.032,319.042,191.911,319.042z" />
            <path style="fill:#0091FF;" d="M181.068,308.199c-0.121,0-0.243-0.046-0.335-0.139l-9.489-9.489
            c-0.185-0.185-0.185-0.486,0-0.671c0.185-0.185,0.486-0.185,0.671,0l9.489,9.489c0.185,0.185,0.185,0.486,0,0.671
            C181.31,308.152,181.189,308.199,181.068,308.199z" />
            <path style="fill:#00DB2F;" d="M190.826,321.752c-0.121,0-0.243-0.046-0.335-0.139l-3.175-3.175
            c-0.185-0.185-0.185-0.486,0-0.671c0.185-0.185,0.485-0.185,0.671,0l3.176,3.175c0.185,0.185,0.185,0.486,0,0.671
            C191.069,321.706,190.948,321.752,190.826,321.752z" />
            <path style="fill:#00DB2F;" d="M186.562,317.488c-0.121,0-0.243-0.046-0.335-0.139l-14.11-14.11
            c-0.185-0.185-0.185-0.486,0-0.671s0.486-0.185,0.671,0l14.11,14.11c0.185,0.185,0.185,0.486,0,0.671
            C186.805,317.442,186.683,317.488,186.562,317.488z" />
            <path style="fill:#00DB2F;" d="M193.368,328.089c-0.121,0-0.243-0.046-0.335-0.139l-1.457-1.457
            c-0.185-0.185-0.185-0.486,0-0.671c0.185-0.185,0.486-0.185,0.671,0l1.457,1.457c0.185,0.185,0.185,0.486,0,0.671
            C193.611,328.043,193.489,328.089,193.368,328.089z" />
            <path style="fill:#00DB2F;" d="M190.988,325.709c-0.121,0-0.243-0.046-0.335-0.139l-8.221-8.221
            c-0.185-0.185-0.185-0.486,0-0.671c0.185-0.185,0.486-0.185,0.671,0l8.221,8.221c0.185,0.185,0.185,0.486,0,0.671
            C191.23,325.662,191.109,325.709,190.988,325.709z" />
            <path style="fill:#00DB2F;" d="M181.61,316.331c-0.121,0-0.243-0.046-0.335-0.139l-8.253-8.253
            c-0.185-0.185-0.185-0.486,0-0.671c0.185-0.185,0.486-0.185,0.671,0l8.253,8.253c0.185,0.185,0.185,0.486,0,0.671
            C181.853,316.284,181.731,316.331,181.61,316.331z" />
            <path style="fill:#00DB2F;" d="M195.887,334.403c-0.121,0-0.243-0.046-0.335-0.139l-6.106-6.106
            c-0.185-0.185-0.185-0.486,0-0.671c0.185-0.185,0.486-0.185,0.671,0l6.106,6.106c0.185,0.185,0.185,0.486,0,0.671
            C196.129,334.356,196.008,334.403,195.887,334.403z" />
            <path style="fill:#00DB2F;" d="M188.69,327.206c-0.121,0-0.243-0.046-0.335-0.139l-11.533-11.533
            c-0.185-0.185-0.185-0.486,0-0.671c0.185-0.185,0.486-0.185,0.671,0l11.533,11.533c0.185,0.185,0.185,0.486,0,0.671
            C188.933,327.16,188.812,327.206,188.69,327.206z" />
            <path style="fill:#FF43D1;" d="M198.42,340.725c-0.121,0-0.243-0.046-0.335-0.139l-1.123-1.123
            c-0.185-0.185-0.185-0.486,0-0.671c0.185-0.185,0.485-0.185,0.671,0l1.123,1.123c0.185,0.185,0.185,0.486,0,0.671
            C198.663,340.678,198.541,340.725,198.42,340.725z" />
            <path style="fill:#FF43D1;" d="M196.225,338.53c-0.121,0-0.243-0.046-0.335-0.139l-7.921-7.921
            c-0.185-0.185-0.185-0.486,0-0.671s0.486-0.185,0.671,0l7.921,7.921c0.185,0.185,0.185,0.486,0,0.671
            C196.468,338.484,196.346,338.53,196.225,338.53z" />
            <path style="fill:#FF43D1;" d="M187.305,329.61c-0.121,0-0.243-0.046-0.335-0.139l-11.137-11.137
            c-0.185-0.185-0.185-0.486,0-0.671c0.185-0.185,0.485-0.185,0.671,0L187.64,328.8c0.185,0.185,0.185,0.486,0,0.671
            C187.547,329.563,187.426,329.61,187.305,329.61z" />
            <path style="fill:#FF43D1;" d="M195.509,340.728c-0.121,0-0.243-0.046-0.335-0.139l-0.922-0.923
            c-0.185-0.185-0.185-0.486,0-0.671c0.185-0.185,0.485-0.185,0.671,0l0.922,0.923c0.185,0.185,0.185,0.486,0,0.671
            C195.752,340.681,195.63,340.728,195.509,340.728z" />
            <path style="fill:#FF43D1;" d="M193.478,338.697c-0.121,0-0.243-0.046-0.335-0.139l-9.353-9.352
            c-0.185-0.185-0.185-0.485,0-0.671c0.185-0.185,0.486-0.185,0.671,0l9.352,9.352c0.185,0.185,0.185,0.486,0,0.671
            C193.721,338.651,193.6,338.697,193.478,338.697z" />
            <path style="fill:#FF43D1;" d="M183.286,328.505c-0.121,0-0.243-0.046-0.335-0.139l-2.689-2.689
            c-0.185-0.185-0.185-0.486,0-0.671c0.185-0.185,0.486-0.185,0.671,0l2.689,2.689c0.185,0.185,0.185,0.486,0,0.671
            C183.529,328.458,183.407,328.505,183.286,328.505z" />
            <path style="fill:#00DB2F;" d="M178.744,323.963c-0.121,0-0.243-0.046-0.335-0.139l-3.798-3.798
            c-0.185-0.185-0.185-0.486,0-0.671c0.185-0.185,0.485-0.185,0.671,0l3.798,3.798c0.185,0.185,0.185,0.485,0,0.671
            C178.987,323.917,178.866,323.963,178.744,323.963z" />
            <path style="fill:#00DB2F;" d="M173.823,319.042c-0.121,0-0.243-0.046-0.335-0.139l-0.958-0.958
            c-0.185-0.185-0.185-0.486,0-0.671s0.486-0.185,0.671,0l0.958,0.958c0.185,0.185,0.185,0.485,0,0.671
            C174.066,318.995,173.944,319.042,173.823,319.042z" />
            <path style="fill:#FF43D1;"
                d="M192.722,340.725c-0.121,0-0.243-0.046-0.335-0.139l-6.16-6.16c-0.185-0.185-0.185-0.486,0-0.671
            s0.486-0.185,0.671,0l6.16,6.16c0.185,0.185,0.185,0.485,0,0.671C192.965,340.679,192.843,340.725,192.722,340.725z" />
            <path style="fill:#FF43D1;" d="M185.637,333.639c-0.121,0-0.243-0.046-0.336-0.139l-6.569-6.569
            c-0.185-0.185-0.185-0.486,0-0.671c0.185-0.185,0.485-0.185,0.671,0l6.569,6.569c0.185,0.185,0.185,0.485,0,0.671
            C185.879,333.593,185.758,333.639,185.637,333.639z" />
            <path style="fill:#00DB2F;"
                d="M179.067,327.07c-0.121,0-0.243-0.046-0.335-0.139L175,323.199c-0.185-0.185-0.185-0.486,0-0.671
            c0.185-0.185,0.485-0.185,0.671,0l3.732,3.732c0.185,0.185,0.185,0.486,0,0.671C179.31,327.024,179.189,327.07,179.067,327.07z" />
            <path style="fill:#00DB2F;" d="M174.445,322.448c-0.121,0-0.243-0.046-0.335-0.139l-2.155-2.155
            c-0.185-0.185-0.185-0.485,0-0.671c0.185-0.185,0.485-0.185,0.671,0l2.155,2.155c0.185,0.185,0.185,0.486,0,0.671
            C174.688,322.402,174.566,322.448,174.445,322.448z" />
            <path style="fill:#FF43D1;" d="M183.25,340.699c-0.121,0-0.243-0.046-0.335-0.139l-1.267-1.267
            c-0.185-0.185-0.185-0.486,0-0.671s0.486-0.185,0.671,0l1.267,1.267c0.185,0.185,0.185,0.486,0,0.671
            C183.493,340.653,183.372,340.699,183.25,340.699z" />
            <path style="fill:#FF43D1;" d="M181.081,338.53c-0.121,0-0.243-0.046-0.335-0.139l-7.921-7.921
            c-0.185-0.185-0.185-0.486,0-0.671c0.185-0.185,0.485-0.185,0.671,0l7.921,7.921c0.185,0.185,0.185,0.486,0,0.671
            C181.324,338.484,181.202,338.53,181.081,338.53z" />
            <path style="fill:#FF43D1;"
                d="M172.16,329.61c-0.121,0-0.243-0.046-0.335-0.139l-2.565-2.565c-0.185-0.185-0.185-0.486,0-0.671
            s0.486-0.185,0.671,0l2.565,2.565c0.185,0.185,0.185,0.486,0,0.671C172.403,329.563,172.282,329.61,172.16,329.61z" />
            <path style="fill:#FF43D1;" d="M177.512,340.699c-0.121,0-0.243-0.046-0.335-0.139l-4.647-4.647
            c-0.185-0.185-0.185-0.486,0-0.671c0.185-0.185,0.486-0.185,0.671,0l4.647,4.647c0.185,0.185,0.185,0.486,0,0.671
            C177.755,340.653,177.633,340.699,177.512,340.699z" />
            <path style="fill:#FF43D1;"
                d="M171.813,335c-0.121,0-0.243-0.046-0.335-0.139l-5.246-5.246c-0.185-0.185-0.185-0.486,0-0.671
            c0.185-0.185,0.486-0.185,0.671,0l5.246,5.246c0.185,0.185,0.185,0.486,0,0.671C172.055,334.954,171.934,335,171.813,335z" />
            <path style="fill:#FF43D1;" d="M165.436,328.623c-0.121,0-0.243-0.046-0.335-0.139l-1.578-1.578
            c-0.185-0.185-0.185-0.486,0-0.671s0.485-0.185,0.671,0l1.578,1.578c0.185,0.185,0.185,0.486,0,0.671
            C165.678,328.577,165.557,328.623,165.436,328.623z" />
            <path style="fill:#FF43D1;"
                d="M180.394,340.699c-0.121,0-0.243-0.046-0.335-0.139l-1.65-1.65c-0.185-0.185-0.185-0.485,0-0.671
            s0.486-0.185,0.671,0l1.65,1.65c0.185,0.185,0.185,0.486,0,0.671C180.637,340.653,180.515,340.699,180.394,340.699z" />
            <path style="fill:#FF43D1;" d="M177.483,337.789c-0.121,0-0.243-0.046-0.335-0.139l-10.744-10.744
            c-0.185-0.185-0.185-0.486,0-0.671c0.185-0.185,0.485-0.185,0.671,0l10.744,10.744c0.185,0.185,0.185,0.486,0,0.671
            C177.726,337.743,177.605,337.789,177.483,337.789z" />
        </g>
        <g>
            <polygon style="fill:#FFFFFF;"
                points="179.067,288.646 174.323,300.505 169.579,288.646 163.887,288.646 171.477,307.621 
            163.887,326.596 169.579,326.596 174.323,314.737 179.067,326.596 184.76,326.596 177.17,307.621 184.76,288.646 				" />
            <path style="fill:#FFFFFF;" d="M184.76,327.071h-5.693c-0.194,0-0.368-0.118-0.441-0.298l-4.303-10.759l-4.303,10.759
            c-0.072,0.18-0.247,0.298-0.441,0.298h-5.693c-0.157,0-0.305-0.078-0.393-0.208c-0.088-0.13-0.106-0.296-0.048-0.442
            l7.52-18.799l-7.52-18.799c-0.058-0.146-0.041-0.312,0.048-0.442c0.088-0.13,0.235-0.208,0.393-0.208h5.693
            c0.194,0,0.368,0.118,0.441,0.298l4.303,10.759l4.303-10.759c0.072-0.18,0.247-0.298,0.441-0.298h5.693
            c0.157,0,0.305,0.078,0.393,0.208c0.088,0.13,0.106,0.296,0.048,0.442l-7.52,18.799l7.52,18.799
            c0.058,0.146,0.041,0.312-0.048,0.442C185.064,326.993,184.917,327.071,184.76,327.071z M179.388,326.122h4.671l-7.33-18.325
            c-0.045-0.113-0.045-0.239,0-0.353l7.33-18.325h-4.671l-4.624,11.561c-0.072,0.18-0.246,0.298-0.44,0.298
            s-0.368-0.118-0.44-0.298l-4.625-11.561h-4.671l7.33,18.325c0.045,0.113,0.045,0.239,0,0.353l-7.33,18.325h4.671l4.625-11.562
            c0.072-0.18,0.246-0.298,0.44-0.298s0.368,0.118,0.44,0.298L179.388,326.122z" />
        </g>
    </g>
</svg>